<svg width="260" height="260" viewBox="0 0 260 260" fill="none" xmlns="http://www.w3.org/2000/svg">
<g clip-path="url(#clip0_0_7039)">
<path d="M120.947 213.061C167.353 213.061 204.972 175.441 204.972 129.035C204.972 82.6296 167.353 45.0102 120.947 45.0102C74.5408 45.0102 36.9214 82.6296 36.9214 129.035C36.9214 175.441 74.5408 213.061 120.947 213.061Z" fill="#B6F1CF"/>
<path d="M120.947 213.174C109.585 213.174 98.5741 210.951 88.1985 206.563C78.1744 202.322 69.1822 196.255 61.4601 188.533C53.7379 180.811 47.6713 171.808 43.4303 161.795C39.0306 151.408 36.8081 140.397 36.8081 129.035C36.8081 117.673 39.0306 106.663 43.419 96.2869C47.66 86.2629 53.7266 77.2707 61.4487 69.5372C69.1709 61.8037 78.1744 55.7484 88.1871 51.5075C98.5627 47.1191 109.585 44.8966 120.947 44.8966C132.309 44.8966 143.32 47.1191 153.695 51.5075C163.719 55.7484 172.711 61.815 180.434 69.5372C188.156 77.2594 194.222 86.2629 198.463 96.2869C202.852 106.663 205.074 117.673 205.074 129.035C205.074 140.397 202.852 151.408 198.463 161.784C194.222 171.808 188.156 180.8 180.434 188.522C172.711 196.244 163.708 202.311 153.695 206.552C143.32 210.951 132.309 213.174 120.947 213.174ZM120.947 45.1234C74.6819 45.1234 37.0349 82.7703 37.0349 129.035C37.0349 175.3 74.6819 212.947 120.947 212.947C167.212 212.947 204.859 175.3 204.859 129.035C204.859 82.7703 167.212 45.1234 120.947 45.1234Z" fill="#111111"/>
<path d="M170.874 61.4524C170.693 61.5318 170.579 61.6338 170.545 61.7813C170.364 62.6771 170.273 62.9946 169.105 62.008C167.937 61.0215 163.583 59.366 162.778 59.0485C161.973 58.7309 162.018 59.8989 161.565 60.3525C161.111 60.8061 159.909 60.0803 159.047 59.8536C158.628 59.7402 157.993 60.5906 157.426 60.704C156.859 60.8174 159.365 64.7068 158.446 64.6615C157.222 64.5934 156.258 60.6133 155.248 59.6608C154.046 58.5268 155.044 60.3865 153.82 60.8287C152.981 61.1349 155.294 63.176 154.965 63.244C154.636 63.3121 152.017 61.7926 150.837 60.9988C147.073 58.4815 149.749 61.2143 149.749 61.2143C148.309 60.602 144.612 60.3185 143.569 60.2731C142.537 60.2278 141.516 60.5339 140.643 60.5566C139.77 60.5793 140.53 58.9577 139.883 59.1165C139.237 59.2752 139.18 60.4545 138.285 60.2504C137.389 60.035 136.3 60.1824 135.155 60.9081C133.998 61.6338 132.252 60.3638 131.946 59.9443C131.64 59.5247 133.08 57.9825 133.738 58.833C134.395 59.6835 135.813 59.5247 137.037 59.2412C138.296 58.9464 137.355 58.1526 136.289 57.6764C135.064 57.1434 134.475 55.9981 133.556 54.8188C132.638 53.6395 128.306 53.1519 126.957 52.9592C125.618 52.7664 119.575 53.254 117.545 53.8323C116.456 54.1498 111.773 53.7416 109.63 54.2292C107.487 54.7281 104.777 56.6558 105.026 57.1774C105.287 57.6991 109.267 57.2682 109.414 57.5743C109.562 57.8805 108.144 58.7309 107.532 58.7763C106.772 58.833 105.967 58.5155 104.606 58.6742C103.234 58.8443 104.414 61.0669 105.049 61.4638C105.457 61.7132 105.911 61.94 107.203 61.7246C108.496 61.5091 108.949 61.8947 109.936 61.9173C110.923 61.94 112.431 60.1257 113.451 60.2958C114.46 60.4659 115.436 60.2731 116.184 59.8989C116.944 59.5247 116.207 58.4361 116.207 58.4361C116.819 57.7558 124.587 56.1909 125.755 56.8599C126.957 57.5403 121.672 58.0052 121.015 58.1073C119.847 58.2774 118.475 60.1937 118.509 60.8287C118.543 61.4524 124.303 61.8606 123.203 62.6204C122.103 63.3801 120.232 61.8947 118.168 61.6225C116.093 61.3504 116.093 62.1101 117.239 62.3822C118.373 62.6544 117 63.2781 116.445 63.4822C115.889 63.6863 115.061 62.8245 114.483 62.6884C113.893 62.5523 111.864 64.2759 110.208 64.48C108.553 64.6842 105.808 62.9265 105.808 62.9265C105.808 62.9265 104.357 63.709 104.005 62.2348C103.631 60.6813 101.817 60.6587 101.035 61.1009C100.332 61.4978 97.3719 60.8287 96.1019 61.1009C95.0927 61.3163 92.3712 62.5297 92.3712 62.5297C92.1218 62.8245 90.5116 62.6544 90.126 62.1668C89.7405 61.6792 89.0261 62.4049 88.7313 62.7451C88.4364 63.0853 87.8014 62.4956 86.951 62.2008C86.1005 61.906 85.7717 64.2759 85.6356 65.0357C85.4995 65.7954 81.6214 67.9159 81.1112 68.3355C80.6009 68.755 79.2061 66.8613 78.7866 65.8408C78.367 64.8316 75.2827 67.6211 74.5569 68.4148C73.8426 69.2199 71.8922 69.2993 71.7221 70.2518C71.552 71.193 69.7263 71.4425 69.6583 71.9301C69.6016 72.4177 69.2387 73.8918 69.2387 73.8918L69.114 75.5133C69.114 75.5133 70.5314 74.6629 70.8376 74.9804C71.9942 76.1597 74.5569 75.4906 75.9971 73.8351C77.4372 72.1909 80.4761 72.1909 81.6214 72.0548C82.7667 71.9301 84.4563 69.3106 84.7058 70.6147C84.9552 71.9301 85.3294 71.7486 86.5201 71.7713C87.3252 71.7826 87.9488 70.9322 88.8333 71.7486C89.7178 72.5651 88.3344 73.3135 88.1643 74.9237C87.9942 76.5339 88.822 79.0059 88.6859 80.1965C88.5612 81.3758 86.9283 82.8273 87.3138 83.2582C87.6994 83.6777 89.3776 82.5665 89.9673 82.1356C90.5569 81.7047 90.1033 80.5934 91.0218 80.1738C91.9403 79.7543 91.4414 80.514 91.6909 81.1037C91.9403 81.6933 92.8021 80.9336 92.4619 80.0945C92.0197 79.0399 91.6342 78.4389 91.2373 77.2029C90.8971 76.1824 90.795 75.3773 90.9651 74.5948C91.1692 73.6196 91.4641 72.9279 92.1104 72.1568C93.165 70.8982 94.5711 72.0661 93.9814 73.9598C93.3918 75.8535 94.1175 76.6473 94.4577 77.2369C94.7979 77.8266 95.8071 78.677 94.6278 80.0718C93.4485 81.4665 93.4825 81.5459 93.4485 82.351C93.4031 83.1561 92.7341 83.1561 92.3485 85.1859C91.963 87.2156 92.8928 89.9258 93.2784 88.7805C93.6639 87.6352 95.2628 88.1908 95.9431 87.5558C96.6235 86.9208 95.9885 86.3765 95.7731 85.2312C95.5576 84.0859 96.9524 83.3375 96.9524 83.3375C96.9524 83.3375 97.8028 85.356 98.1997 84.0066C98.5966 82.6572 99.2429 83.7911 100.252 83.6664C101.261 83.5417 101.726 84.3014 100.592 85.356C99.447 86.4105 100.762 86.6713 100.207 87.4651C99.6625 88.2702 97.8822 87.2156 98.812 88.2248C99.7419 89.2341 98.2677 89.6763 98.2224 91.3432C98.1657 93.8605 99.8553 91.1164 100.366 92.806C100.876 94.4956 102.237 93.3389 103.166 92.7039C104.096 92.0689 104.731 95.6635 104.731 95.6635C104.731 95.6635 105.74 94.7337 106.546 95.4481C107.611 96.3892 108.099 94.8811 108.655 95.3914C109.21 95.9016 110.185 95.278 109.981 97.1036C109.766 98.9179 109.052 97.8634 108.541 99.088C108.031 100.313 107.022 100.902 106.217 101.163C105.412 101.424 103.892 104.837 102.962 104.338C102.032 103.828 99.5151 103.953 99.5151 103.953C99.4697 104.395 99.413 104.951 99.345 105.586L99.1976 106.992C99.5831 109.396 100.127 110.53 101.159 110.178C102.191 109.838 103.144 114.68 102.974 117.084C102.804 119.499 104.675 120.712 103.62 123.695C102.94 125.611 103.869 126.847 104.913 129.432C105.956 132.018 106.908 137.483 105.967 139.037C105.015 140.59 104.368 145.773 108.575 144.865C111.478 144.242 113.19 144.412 115.164 144.933C117.148 145.455 119.665 143.38 121.468 143.981C123.271 144.582 121.865 142.393 125.222 142.223C128.578 142.053 130.801 142.768 132.365 140.885C133.624 139.377 135.042 139.683 135.711 137.676C138.239 136.882 139.793 135.544 139.963 134.342C138.319 132.891 140.19 131.632 138.262 131.258C135.472 130.714 134.747 127.856 135.779 125.747C135.779 125.747 132.717 128.072 131.107 128.23C129.667 128.366 126.446 128.378 126.616 126.053C126.786 123.729 127.909 124.556 126.015 122.232C124.122 119.907 121.933 115.723 124.258 114.77C126.582 113.818 128.487 115.326 128.317 118.172C128.147 121.019 133.738 124.545 135.11 124.114C136.482 123.683 137.049 123.899 137.48 126.133C137.91 128.366 150.202 130.827 151.835 130.657C153.468 130.487 152.55 132.97 154.795 135.374C157.029 137.79 154.784 138.039 157.199 140.273C159.614 142.507 161.508 137.88 161.304 140.114C161.077 142.609 160.011 146.918 160.782 150.104C161.553 153.291 161.735 157.509 162.585 159.573C163.447 161.636 161.292 165.605 163.447 165.945C165.601 166.286 168.527 162.067 169.219 159.913C169.91 157.758 168.878 154.493 171.112 152.848C173.346 151.215 177.145 148.721 177.916 147.077C178.687 145.444 181.193 144.582 181.873 143.028C182.554 141.475 185.151 142.167 185.752 141.135C186.353 140.103 188.167 138.47 187.906 140.704C187.645 142.938 187.214 143.198 188.598 144.752C189.981 146.305 188.019 149.208 188.167 150.864C188.371 153.132 190.412 152.417 192.748 151.703C195.095 150.989 192.034 162.067 192.136 165.957C192.204 168.338 192.748 170.595 193.156 171.989C200.64 159.425 204.949 144.741 204.949 129.047C204.972 101.322 191.557 76.7493 170.874 61.4524ZM118.055 90.3567C115.719 89.6083 113.565 86.9888 112.215 86.4786C110.65 85.8889 107.067 86.6146 106.228 85.7755C105.389 84.9364 103.098 84.1426 106.512 81.8521C109.925 79.5615 111.932 78.2461 113.429 79.4254C114.925 80.5934 114.789 80.2192 114.925 80.5934C115.061 80.9676 112.816 80.548 113.338 81.013C113.848 81.4779 113.202 82.918 114.551 82.7366C115.912 82.5551 116.706 82.884 117.59 83.1675C118.475 83.4509 121.378 84.6643 121.049 86.4899C120.72 88.3156 121.378 88.3609 121.559 88.9733C121.752 89.5629 120.391 91.1051 118.055 90.3567ZM120.516 82.0789C119.983 82.6572 118.883 82.7252 118.1 82.6005C117.556 82.5098 116.139 82.0108 116.513 81.047C116.898 80.0831 121.752 80.5934 121.944 80.9336C122.137 81.2738 121.049 81.5119 120.516 82.0789ZM138.285 89.064C137.264 89.2908 136.187 88.7691 135.518 89.9598C135.314 90.3226 136.414 92.6245 137.003 93.1688C137.593 93.7131 137.003 95.9697 137.003 95.9697C137.253 95.4027 138.704 94.3708 139.237 96.4686C139.815 98.7365 137.967 97.6933 137.128 97.1036C136.3 96.514 136.538 98.7252 137.275 99.553C138.012 100.381 137.173 101.571 137.173 102.83C137.185 105.177 135.699 104.202 134.611 104.395C133.522 104.588 130.608 102.581 129.633 100.914C128.657 99.2468 132.139 97.2737 132.377 96.48C132.615 95.6862 131.878 93.6564 130.857 91.8988C129.825 90.1412 131.186 87.329 132.309 87.7146C133.431 88.1115 135.801 86.3652 138.398 86.7054C140.995 87.0455 139.305 88.8258 138.285 89.064Z" fill="white"/>
<path d="M193.179 172.091H193.168C193.122 172.091 193.088 172.057 193.077 172.012C192.646 170.549 192.113 168.315 192.045 165.957C192.011 164.539 192.385 162.215 192.771 159.765C193.315 156.364 193.939 152.519 193.202 151.873C193.1 151.782 192.963 151.76 192.805 151.816L192.544 151.896C190.934 152.383 189.55 152.814 188.734 152.259C188.348 151.998 188.133 151.544 188.065 150.875C188.008 150.24 188.246 149.446 188.496 148.596C188.915 147.201 189.346 145.75 188.518 144.82C187.373 143.527 187.441 143.085 187.645 141.781C187.691 141.464 187.747 141.112 187.804 140.681C187.872 140.114 187.804 139.763 187.611 139.695C187.226 139.57 186.307 140.42 185.865 141.18C185.57 141.69 184.878 141.815 184.141 141.94C183.257 142.099 182.35 142.257 181.998 143.062C181.647 143.856 180.819 144.48 180.025 145.092C179.231 145.693 178.415 146.317 178.029 147.111C177.36 148.517 174.594 150.49 172.36 152.077C171.94 152.372 171.543 152.656 171.192 152.916C169.774 153.948 169.706 155.683 169.65 157.361C169.616 158.28 169.582 159.153 169.343 159.913C168.606 162.203 165.613 166.365 163.447 166.013C162.086 165.798 162.302 164.301 162.528 162.714C162.687 161.58 162.857 160.412 162.506 159.573C162.007 158.382 161.746 156.5 161.463 154.504C161.247 153.007 161.032 151.454 160.691 150.093C160.113 147.689 160.555 144.684 160.918 142.257C161.043 141.452 161.145 140.692 161.213 140.069C161.247 139.638 161.202 139.57 161.19 139.558C161.134 139.547 160.896 139.763 160.703 139.921C159.977 140.545 158.639 141.713 157.142 140.318C155.883 139.15 155.861 138.504 155.838 137.812C155.815 137.2 155.804 136.565 154.738 135.408C153.627 134.206 153.275 132.982 153.026 132.086C152.742 131.088 152.584 130.646 151.881 130.725C151.824 130.736 151.756 130.736 151.677 130.736C149.386 130.736 137.831 128.366 137.4 126.11C137.173 124.942 136.913 124.341 136.538 124.114C136.244 123.944 135.869 123.955 135.178 124.171C134.429 124.409 132.626 123.604 130.982 122.323C130.12 121.653 128.136 119.896 128.238 118.127C128.317 116.744 127.898 115.598 127.07 115.009C126.333 114.487 125.369 114.419 124.349 114.838C123.895 115.02 123.6 115.36 123.475 115.825C123.09 117.333 124.53 120.134 126.151 122.118C127.399 123.649 127.387 123.865 127.127 124.522C127.013 124.829 126.843 125.237 126.786 126.008C126.741 126.552 126.9 126.994 127.24 127.323C128.215 128.276 130.472 128.14 131.152 128.072C132.706 127.924 135.733 125.634 135.767 125.611C135.813 125.577 135.869 125.577 135.903 125.611C135.937 125.645 135.96 125.702 135.937 125.747C135.382 126.892 135.359 128.253 135.881 129.308C136.21 129.977 136.913 130.827 138.341 131.111C139.43 131.326 139.407 131.859 139.385 132.426C139.362 132.959 139.339 133.56 140.099 134.229C140.133 134.252 140.144 134.297 140.133 134.331C139.94 135.635 138.273 136.973 135.858 137.744C135.45 138.923 134.769 139.309 134.044 139.729C133.533 140.023 133.012 140.33 132.502 140.931C131.311 142.371 129.78 142.337 127.671 142.291C126.957 142.28 126.151 142.257 125.278 142.303C123.487 142.393 123.101 143.074 122.829 143.561C122.591 143.981 122.387 144.355 121.48 144.049C120.606 143.754 119.552 144.117 118.441 144.502C117.341 144.877 116.195 145.274 115.175 145.001C113.213 144.491 111.512 144.321 108.632 144.945C107.305 145.228 106.341 144.956 105.752 144.14C104.697 142.654 105.298 139.933 105.899 138.957C106.795 137.483 105.888 132.074 104.833 129.455C104.618 128.933 104.414 128.457 104.232 128.026C103.484 126.325 102.996 125.203 103.552 123.638C104.164 121.914 103.779 120.826 103.382 119.658C103.11 118.875 102.826 118.059 102.906 117.05C103.053 114.941 102.327 110.96 101.5 110.325C101.409 110.257 101.329 110.235 101.239 110.257C100.921 110.359 100.626 110.337 100.377 110.189C99.8213 109.849 99.4357 108.863 99.1296 106.98V106.946L99.2997 105.279C99.3564 104.746 99.4017 104.281 99.4471 103.907C99.4471 103.851 99.5038 103.805 99.5491 103.805C99.6512 103.805 102.112 103.692 103.064 104.202C103.529 104.452 104.289 103.363 104.913 102.49C105.423 101.764 105.865 101.14 106.228 101.027C106.84 100.834 107.952 100.313 108.485 99.02C108.723 98.4416 109.029 98.3283 109.267 98.2262C109.562 98.1128 109.8 98.0221 109.913 97.0582C110.049 95.9016 109.709 95.8336 109.267 95.7315C109.052 95.6862 108.813 95.6295 108.621 95.448C108.473 95.312 108.337 95.3687 108.042 95.5614C107.68 95.7882 107.192 96.1057 106.512 95.5047C105.797 94.8697 104.89 95.6862 104.845 95.7202C104.811 95.7429 104.765 95.7542 104.731 95.7429C104.697 95.7315 104.663 95.6975 104.652 95.6521C104.527 94.9151 104.062 92.9647 103.518 92.7379C103.439 92.7039 103.359 92.7152 103.268 92.7719C103.189 92.8286 103.098 92.8853 103.019 92.9534C102.395 93.3956 101.613 93.9399 101.001 93.7244C100.683 93.611 100.445 93.3049 100.298 92.8173C100.218 92.5678 100.127 92.4204 99.9914 92.3524C99.7986 92.2503 99.5265 92.341 99.2657 92.4317C98.9708 92.5338 98.676 92.6359 98.4492 92.4658C98.2338 92.307 98.143 91.9555 98.1544 91.3091C98.1771 90.5381 98.4832 90.0278 98.7327 89.6082C99.0389 89.0866 99.2316 88.7804 98.7667 88.2702C98.5059 87.9867 98.4265 87.8393 98.4946 87.7145C98.5626 87.5785 98.7554 87.5898 99.0275 87.6238C99.4017 87.6578 99.9233 87.7032 100.15 87.3744C100.354 87.0795 100.264 86.8868 100.161 86.6486C100.014 86.2971 99.8326 85.9002 100.547 85.2425C101.057 84.7776 101.273 84.324 101.137 84.0292C101.035 83.8024 100.706 83.7004 100.298 83.7457C99.8893 83.7911 99.5378 83.655 99.2657 83.553C99.0162 83.4509 98.8121 83.3829 98.676 83.4509C98.5513 83.5189 98.4379 83.7004 98.3472 84.0065C98.2451 84.3581 98.0977 84.5395 97.8936 84.5508C97.4854 84.5735 97.0998 83.8024 96.9411 83.4622C96.6349 83.6664 95.7618 84.3014 95.9205 85.1745C95.9886 85.5374 96.1019 85.8322 96.1927 86.1043C96.3968 86.6713 96.5669 87.1249 96.0566 87.6125C95.7504 87.896 95.2855 87.964 94.8319 88.0207C94.2083 88.1001 93.6299 88.1795 93.4258 88.7918C93.3124 89.1433 93.131 89.1546 93.029 89.132C92.4847 88.9959 91.9744 86.7393 92.2692 85.1405C92.496 83.9385 92.8249 83.4282 93.0743 83.054C93.2444 82.7932 93.3578 82.6231 93.3691 82.317V82.2262C93.4032 81.4665 93.4485 81.2964 94.5711 79.9697C95.5123 78.8698 95.002 78.1554 94.6051 77.5884C94.5258 77.475 94.4577 77.373 94.3897 77.2709C94.3557 77.2029 94.3103 77.1348 94.2536 77.0555C93.9021 76.4885 93.3578 75.6267 93.9021 73.9031C94.2423 72.8145 93.9021 72.0548 93.4485 71.8166C93.063 71.6125 92.6094 71.7486 92.2239 72.2022C91.6229 72.9166 91.3167 73.5629 91.1013 74.5948C90.9425 75.3205 91.0219 76.0803 91.3734 77.1462C91.6229 77.9286 91.8723 78.4502 92.1331 79.0058C92.2806 79.3233 92.428 79.6408 92.5981 80.0264C92.8475 80.6387 92.5187 81.217 92.1785 81.3644C91.9404 81.4665 91.7249 81.3644 91.6229 81.1263C91.5208 80.8995 91.5322 80.6501 91.5322 80.4573C91.5322 80.3326 91.5322 80.1738 91.4981 80.1511C91.4868 80.1398 91.4074 80.1171 91.1013 80.2532C90.6363 80.4686 90.5683 80.8655 90.4889 81.2964C90.4209 81.6366 90.3642 81.9995 90.0694 82.2149C89.2076 82.8272 87.6994 83.7911 87.2685 83.3148C87.0191 83.0427 87.3479 82.5551 87.7561 81.9314C88.1303 81.3644 88.5499 80.7294 88.6179 80.1738C88.6746 79.6408 88.5272 78.8131 88.3798 77.9399C88.1984 76.874 88.0056 75.7741 88.0963 74.901C88.1643 74.1979 88.4705 73.6536 88.7086 73.2114C89.0715 72.5537 89.2302 72.2135 88.7993 71.8166C88.2664 71.329 87.8582 71.4878 87.3933 71.6692C87.1324 71.7713 86.8603 71.8733 86.5655 71.862H86.1799C85.2841 71.862 84.8759 71.862 84.6378 70.6146C84.6151 70.5126 84.5811 70.3765 84.4904 70.3425C84.2749 70.2745 83.7873 70.694 83.3564 71.0796C82.8121 71.5445 82.1998 72.0774 81.6782 72.1455C81.5194 72.1682 81.338 72.1795 81.1225 72.1908C79.8072 72.2929 77.3465 72.4857 76.1332 73.8804C75.226 74.9236 73.8313 75.6153 72.5953 75.6607C71.8469 75.6834 71.2345 75.4679 70.8036 75.0257C70.6562 74.8783 69.8738 75.1958 69.2275 75.5813C69.1934 75.604 69.1481 75.604 69.1141 75.5813C69.0801 75.5586 69.0574 75.5133 69.0574 75.4793L69.1821 73.8577V73.8351C69.1821 73.8237 69.5336 72.3723 69.6017 71.896C69.6357 71.6239 69.9872 71.4538 70.4294 71.2497C70.9624 70.9888 71.5747 70.7054 71.6654 70.2178C71.7675 69.6168 72.4592 69.356 73.1849 69.0725C73.7065 68.8684 74.2395 68.6643 74.5343 68.3354C75.0219 67.7911 77.6073 65.3418 78.5938 65.5119C78.7639 65.5346 78.8773 65.6366 78.9454 65.7954C79.2969 66.6458 80.3515 68.1313 80.9298 68.2674C81.0205 68.2901 81.0658 68.2674 81.0999 68.2447C81.2473 68.12 81.6782 67.8592 82.2225 67.519C83.3678 66.8159 85.5109 65.5006 85.5903 65.013L85.613 64.8882C85.7377 64.1171 85.9985 62.4956 86.5995 62.1441C86.7356 62.0647 86.8943 62.042 87.0417 62.0987C87.3479 62.2008 87.62 62.3482 87.8582 62.4729C88.2891 62.6997 88.5612 62.8244 88.6973 62.677C89.0148 62.3255 89.457 61.8946 89.8539 61.8946H89.8653C90.024 61.8946 90.1601 61.974 90.2621 62.0987C90.4776 62.3709 91.1806 62.5523 91.7363 62.5636C92.1218 62.575 92.2919 62.5069 92.3373 62.4616C92.3486 62.4502 92.3599 62.4389 92.3826 62.4276C92.496 62.3822 95.1268 61.2142 96.136 60.9988C96.7596 60.8627 97.7688 60.9534 98.7327 61.0328C99.7079 61.1122 100.706 61.2029 101.046 61.0101C101.534 60.738 102.407 60.6246 103.121 60.9421C103.665 61.1802 104.028 61.6225 104.176 62.2235C104.266 62.5977 104.448 62.8585 104.697 62.9605C105.185 63.176 105.809 62.8358 105.82 62.8358C105.854 62.8131 105.899 62.8131 105.933 62.8358C105.956 62.8585 108.666 64.5707 110.265 64.3666C111.161 64.2532 112.193 63.6749 113.02 63.21C113.757 62.8018 114.279 62.4956 114.585 62.575C114.835 62.6317 115.096 62.8018 115.39 62.9719C115.787 63.2213 116.207 63.4821 116.49 63.3687C117.227 63.0966 117.658 62.7904 117.647 62.6657C117.647 62.6544 117.636 62.5636 117.295 62.4843C116.728 62.3482 116.4 62.0874 116.445 61.8266C116.513 61.4751 117.171 61.3617 118.259 61.5091C119.098 61.6225 119.903 61.9286 120.618 62.2008C121.684 62.609 122.602 62.9492 123.215 62.5296C123.283 62.4843 123.305 62.4502 123.305 62.4276C123.26 62.1781 121.763 61.8719 120.879 61.6905C119.223 61.3503 118.497 61.1689 118.475 60.84C118.441 60.1483 119.824 58.1866 121.071 58.0052C121.162 57.9938 121.344 57.9712 121.604 57.9371C122.251 57.8691 123.317 57.7444 124.246 57.5856C125.811 57.3135 125.891 57.098 125.902 57.0753C125.902 57.0753 125.891 57.03 125.777 56.9733C124.711 56.361 117.363 57.7784 116.434 58.4701C116.547 58.6629 116.796 59.1618 116.694 59.57C116.638 59.7628 116.513 59.9215 116.32 60.0236C115.481 60.4432 114.483 60.5906 113.519 60.4318C113.032 60.3524 112.374 60.806 111.739 61.2369C111.115 61.6678 110.526 62.0647 110.015 62.0534C109.63 62.042 109.324 61.9853 109.029 61.9286C108.541 61.8266 108.088 61.7359 107.305 61.8719C106.001 62.0874 105.514 61.8719 105.071 61.5884C104.595 61.2936 103.79 60.0009 103.972 59.1845C104.028 58.9464 104.187 58.6515 104.686 58.5835C105.525 58.4814 106.137 58.5608 106.682 58.6289C107.033 58.6742 107.328 58.7082 107.623 58.6855C108.065 58.6515 109.052 58.1299 109.346 57.7557C109.392 57.699 109.403 57.665 109.403 57.6537C109.244 57.5743 108.428 57.5856 107.77 57.5856C106.171 57.597 105.185 57.5743 105.026 57.2454C104.981 57.1547 104.992 57.0413 105.049 56.9166C105.423 56.1228 107.838 54.5693 109.698 54.1384C110.9 53.8549 112.873 53.8663 114.608 53.8663C115.969 53.8663 117.137 53.8776 117.613 53.7416C119.586 53.1746 125.664 52.6643 127.07 52.8684C127.172 52.8798 127.297 52.9024 127.433 52.9138C129.111 53.1406 132.774 53.6282 133.647 54.7508C133.851 55.0116 134.032 55.261 134.214 55.5105C134.86 56.395 135.416 57.1661 136.334 57.5743C137.049 57.8918 137.797 58.3794 137.752 58.833C137.729 59.0711 137.502 59.2525 137.06 59.3546C135.949 59.6154 134.384 59.8535 133.647 58.9123C133.318 58.4928 132.819 58.8103 132.615 58.9577C132.195 59.2639 131.935 59.7401 132.037 59.8875C132.309 60.2617 133.998 61.5091 135.087 60.8287C136.448 59.9669 137.593 59.9896 138.307 60.1597C138.761 60.2617 138.954 59.9669 139.192 59.6267C139.373 59.3659 139.555 59.1051 139.861 59.0257C139.974 58.9917 140.076 59.0144 140.144 59.0711C140.292 59.1845 140.292 59.434 140.292 59.7174C140.292 59.9782 140.292 60.2731 140.416 60.3978C140.462 60.4432 140.541 60.4658 140.643 60.4658C141.006 60.4545 141.392 60.3978 141.8 60.3298C142.367 60.2391 142.968 60.1483 143.569 60.1824C144.612 60.2277 147.696 60.4658 149.329 60.9761C148.558 60.137 148.694 59.9782 148.74 59.9215C148.853 59.7855 149.103 59.7515 150.883 60.9421C152.13 61.7812 154.285 62.9945 154.84 63.1533C154.761 63.0286 154.591 62.8131 154.443 62.643C153.865 61.94 153.434 61.373 153.536 61.0101C153.559 60.9308 153.616 60.8174 153.786 60.7607C154.307 60.5679 154.375 60.103 154.432 59.7174C154.466 59.4793 154.489 59.2865 154.647 59.2412C154.795 59.1845 154.988 59.2865 155.328 59.6267C155.759 60.0349 156.167 60.9308 156.598 61.8946C157.165 63.1533 157.8 64.5707 158.458 64.6047C158.503 64.6047 158.514 64.5934 158.526 64.5821C158.662 64.378 158.174 63.2894 157.857 62.575C157.403 61.5658 157.154 60.9875 157.267 60.7493C157.301 60.6926 157.346 60.6473 157.414 60.6359C157.652 60.5906 157.913 60.3865 158.163 60.1937C158.492 59.9442 158.809 59.7061 159.093 59.7855C159.342 59.8535 159.626 59.9669 159.909 60.069C160.533 60.3071 161.236 60.5792 161.497 60.3071C161.633 60.171 161.735 59.9329 161.814 59.7061C161.984 59.2752 162.2 58.7422 162.823 58.9804L162.959 59.0257C166.338 60.3411 168.436 61.3163 169.185 61.9513C169.377 62.1101 169.944 62.5977 170.16 62.5296C170.296 62.4843 170.364 62.1441 170.432 61.7926C170.466 61.6111 170.602 61.4751 170.818 61.373C170.852 61.3617 170.897 61.3617 170.931 61.3843C181.295 69.0498 189.879 79.1419 195.764 90.5607C198.769 96.3892 201.083 102.569 202.647 108.931C204.269 115.462 205.085 122.232 205.085 129.035C205.085 144.208 201.003 159.074 193.281 172.035C193.258 172.069 193.224 172.091 193.179 172.091ZM192.975 151.556C193.122 151.556 193.247 151.601 193.349 151.692C194.188 152.417 193.61 156.001 192.997 159.788C192.601 162.237 192.238 164.539 192.272 165.945C192.328 168.145 192.805 170.243 193.224 171.694C200.833 158.824 204.859 144.072 204.859 129.035C204.859 102.569 192.147 77.3616 170.863 61.5771C170.749 61.6338 170.681 61.7132 170.659 61.8039C170.568 62.2575 170.5 62.6203 170.239 62.7111C170.001 62.7904 169.672 62.6317 169.037 62.0987C168.538 61.6792 167.064 60.8287 162.88 59.2072L162.744 59.1505C162.347 58.9917 162.222 59.2639 162.029 59.7401C161.927 59.9896 161.825 60.2504 161.655 60.4205C161.281 60.7947 160.544 60.5112 159.83 60.2277C159.546 60.1143 159.274 60.0123 159.036 59.9556C158.854 59.9102 158.582 60.1257 158.31 60.3298C158.038 60.5339 157.766 60.7493 157.482 60.806C157.414 60.9761 157.811 61.8379 158.072 62.4276C158.616 63.6182 158.922 64.3666 158.73 64.6501C158.696 64.7068 158.616 64.7748 158.469 64.7635C157.675 64.7181 157.029 63.3007 156.416 61.9173C155.997 60.9875 155.6 60.103 155.203 59.7288C154.852 59.3999 154.761 59.3999 154.75 59.3999C154.727 59.4226 154.704 59.5927 154.682 59.6948C154.625 60.0916 154.545 60.6813 153.888 60.9194C153.808 60.9421 153.797 60.9875 153.786 61.0101C153.706 61.2936 154.273 61.9853 154.647 62.4389C155.044 62.9265 155.18 63.0966 155.135 63.2327C155.112 63.278 155.078 63.3234 155.022 63.3347C154.591 63.4254 151.711 61.6905 150.792 61.0782C149.511 60.2277 149.103 60.0576 148.966 60.0349C149.034 60.2164 149.454 60.7153 149.851 61.1122C149.885 61.1462 149.896 61.2142 149.862 61.2596C149.828 61.305 149.772 61.3163 149.726 61.305C148.297 60.6926 144.521 60.4091 143.592 60.3751C143.002 60.3524 142.424 60.4432 141.868 60.5225C141.448 60.5906 141.063 60.6473 140.677 60.6586C140.519 60.6586 140.382 60.6133 140.292 60.5225C140.099 60.3298 140.099 59.9896 140.099 59.6834C140.099 59.502 140.099 59.2639 140.042 59.2185C140.02 59.2072 139.974 59.2072 139.952 59.2185C139.725 59.2752 139.577 59.502 139.419 59.7288C139.169 60.0916 138.897 60.4885 138.296 60.3524C137.627 60.1937 136.55 60.171 135.246 60.9988C134.021 61.7812 132.195 60.4318 131.889 60.0009C131.674 59.7061 132.037 59.1164 132.513 58.7649C133.035 58.368 133.556 58.368 133.862 58.7649C134.52 59.604 135.994 59.3773 137.049 59.1278C137.366 59.0484 137.548 58.935 137.559 58.8103C137.582 58.5495 137.037 58.1186 136.266 57.7784C135.28 57.3475 134.713 56.5537 134.044 55.6466C133.862 55.3971 133.681 55.1476 133.488 54.8982C132.672 53.8436 128.93 53.3447 127.331 53.1292C127.195 53.1065 127.07 53.0952 126.968 53.0839C125.698 52.9024 119.688 53.356 117.613 53.957C117.114 54.1044 115.923 54.0931 114.551 54.0931C112.828 54.0931 110.877 54.0817 109.698 54.3539C107.816 54.7848 105.525 56.3269 105.196 57.0073C105.174 57.064 105.162 57.1207 105.174 57.1434C105.287 57.3702 106.863 57.3588 107.714 57.3588C109.108 57.3475 109.471 57.3702 109.562 57.5516C109.596 57.631 109.585 57.7217 109.528 57.8238C109.278 58.232 108.133 58.8783 107.577 58.9237C107.271 58.9464 106.954 58.9123 106.602 58.867C106.069 58.7989 105.468 58.7309 104.652 58.833C104.357 58.867 104.187 59.0031 104.142 59.2525C103.994 59.9102 104.686 61.1235 105.139 61.407C105.548 61.6565 105.99 61.8606 107.215 61.6565C108.042 61.5204 108.541 61.6225 109.018 61.7132C109.301 61.7699 109.596 61.8266 109.959 61.8379H109.97C110.401 61.8379 110.979 61.441 111.535 61.0555C112.204 60.5906 112.896 60.1143 113.474 60.2164C114.392 60.3638 115.334 60.2277 116.139 59.8308C116.275 59.7628 116.366 59.6607 116.4 59.5247C116.513 59.1164 116.127 58.5381 116.116 58.5268C116.082 58.4814 116.093 58.4247 116.127 58.3907C116.49 57.9825 118.781 57.4155 120.754 57.064C121.74 56.8826 125.018 56.3383 125.811 56.7919C125.993 56.8939 126.072 57.0073 126.038 57.1434C125.959 57.5403 124.7 57.8351 121.559 58.1866C121.321 58.2093 121.128 58.232 121.037 58.2433C119.937 58.4021 118.599 60.2504 118.633 60.84C118.69 61.0328 120.04 61.3163 120.856 61.4864C122.421 61.8039 123.385 62.0307 123.464 62.3935C123.487 62.5183 123.43 62.6203 123.283 62.7224C122.568 63.21 121.593 62.8471 120.47 62.4162C119.767 62.1441 118.974 61.8493 118.157 61.7359C117.023 61.5884 116.615 61.7699 116.592 61.8719C116.581 61.9513 116.762 62.1441 117.273 62.2688C117.397 62.3028 117.783 62.3935 117.794 62.6544C117.817 63.0286 116.989 63.4028 116.49 63.5842C116.105 63.7316 115.64 63.4481 115.186 63.1646C114.914 62.9945 114.665 62.8471 114.449 62.7904C114.234 62.7337 113.655 63.0626 113.043 63.4028C112.204 63.879 111.149 64.4687 110.208 64.5821C108.643 64.7748 106.194 63.3007 105.786 63.0512C105.604 63.142 105.026 63.3687 104.527 63.1533C104.21 63.0059 103.983 62.7111 103.881 62.2575C103.756 61.7359 103.427 61.339 102.951 61.1349C102.305 60.8514 101.5 60.9534 101.08 61.1916C100.683 61.4184 99.7306 61.3276 98.642 61.2369C97.6895 61.1575 96.7143 61.0668 96.1133 61.2029C95.1721 61.407 92.6774 62.4956 92.428 62.609C92.2806 62.7564 91.9404 62.7791 91.6796 62.7678C91.0672 62.7564 90.3075 62.5523 90.0353 62.2121C89.9786 62.1327 89.8993 62.0987 89.8086 62.0874C89.5704 62.076 89.2076 62.3369 88.8107 62.7904C88.5612 63.0739 88.1643 62.8698 87.6994 62.6317C87.4613 62.5069 87.2005 62.3709 86.9057 62.2688C86.8149 62.2348 86.7356 62.2461 86.6449 62.2915C86.1346 62.5977 85.8738 64.1965 85.7604 64.8769L85.7377 65.0016C85.647 65.5459 84.0481 66.5778 82.2678 67.6664C81.7576 67.9839 81.3153 68.256 81.1792 68.3694C81.1112 68.4261 80.9978 68.4828 80.8164 68.4375C80.102 68.2674 79.0134 66.6232 78.6846 65.8294C78.6505 65.75 78.5938 65.7047 78.5031 65.682C77.7094 65.5459 75.3281 67.6777 74.6477 68.4375C74.3189 68.8117 73.7632 69.0271 73.219 69.2426C72.5499 69.5034 71.9263 69.7528 71.8469 70.2178C71.7335 70.8188 71.0418 71.1476 70.4861 71.4197C70.146 71.5785 69.8058 71.7486 69.7831 71.896C69.7264 72.3723 69.3976 73.7217 69.3635 73.8577L69.2501 75.2525C69.7151 74.9917 70.6222 74.5494 70.917 74.8443C71.3026 75.2298 71.8582 75.4226 72.5386 75.4112C73.7179 75.3772 75.0446 74.7082 75.9064 73.7103C77.1764 72.2475 79.6938 72.0548 81.0545 71.9414C81.27 71.93 81.4514 71.9073 81.6101 71.896C82.0637 71.8506 82.6534 71.3404 83.1636 70.8868C83.742 70.3879 84.1955 69.991 84.5244 70.1044C84.6718 70.1611 84.7738 70.2971 84.8192 70.5466C85.0233 71.6125 85.2614 71.6125 86.1346 71.6125H86.5201C86.7696 71.6125 87.0077 71.5218 87.2685 71.4311C87.7448 71.2497 88.2777 71.0455 88.9127 71.6239C89.4911 72.1568 89.2076 72.6784 88.8674 73.2908C88.6293 73.733 88.3458 74.2433 88.2777 74.8896C88.187 75.7401 88.3911 76.874 88.5612 77.8719C88.72 78.7564 88.8674 79.5955 88.7993 80.1625C88.7313 80.7861 88.2891 81.4438 87.9035 82.0221C87.6087 82.4757 87.2685 82.986 87.3933 83.1334C87.5974 83.3602 88.6519 82.8839 89.8993 81.9995C90.1261 81.8407 90.1714 81.5572 90.2281 81.2284C90.3075 80.7861 90.3982 80.2872 90.9652 80.0264C91.2713 79.8903 91.4528 79.8563 91.5775 79.9357C91.7249 80.0264 91.7136 80.2192 91.7136 80.4346C91.7136 80.616 91.7022 80.8315 91.7816 81.0129C91.8383 81.149 91.9177 81.183 92.0424 81.1377C92.2919 81.0243 92.5414 80.5707 92.3486 80.1058C92.1898 79.7202 92.0424 79.4027 91.895 79.0966C91.6342 78.5409 91.3847 78.008 91.1239 77.2142C90.7611 76.1143 90.6817 75.3205 90.8518 74.5494C91.0786 73.4949 91.4074 72.7918 92.0197 72.0548C92.4733 71.5218 93.0516 71.3517 93.5279 71.6125C94.0608 71.9073 94.4577 72.7691 94.0835 73.9711C93.5733 75.5927 94.0608 76.3751 94.4124 76.9307C94.4577 77.0101 94.5031 77.0781 94.5484 77.1575C94.6051 77.2482 94.6732 77.3503 94.7526 77.4523C95.1494 78.0193 95.7618 78.8811 94.7072 80.1171C93.5959 81.4325 93.5959 81.5345 93.5506 82.2376V82.3283C93.5279 82.6912 93.3918 82.9066 93.2217 83.1788C92.9949 83.5303 92.6774 84.0179 92.4506 85.1745C92.1331 86.8527 92.7228 88.8258 93.0403 88.9052C93.063 88.9165 93.1083 88.8598 93.165 88.7124C93.4145 87.9753 94.1289 87.8733 94.7526 87.7939C95.1835 87.7372 95.603 87.6805 95.8525 87.4424C96.2607 87.0682 96.136 86.728 95.9319 86.1837C95.8298 85.9116 95.7164 85.6054 95.6484 85.2199C95.4216 84.0065 96.8277 83.2355 96.8844 83.2014C96.907 83.1901 96.9411 83.1788 96.9751 83.1901C97.0091 83.2014 97.0318 83.2241 97.0431 83.2581C97.2246 83.689 97.5988 84.324 97.8142 84.324H97.8255C97.9163 84.324 98.007 84.1766 98.075 83.9385C98.1884 83.553 98.3245 83.3375 98.5173 83.2355C98.7554 83.1221 99.0162 83.2241 99.2997 83.3262C99.5718 83.4282 99.878 83.553 100.23 83.5076C100.751 83.4396 101.148 83.5983 101.307 83.9158C101.488 84.3127 101.25 84.8457 100.66 85.3899C100.071 85.9342 100.184 86.2177 100.332 86.5352C100.445 86.796 100.57 87.0795 100.298 87.4764C99.9914 87.93 99.379 87.8619 98.9708 87.8279C98.8688 87.8166 98.744 87.8052 98.676 87.8166C98.6987 87.8619 98.7554 87.9413 98.9028 88.1001C99.4811 88.7237 99.209 89.1773 98.8915 89.7103C98.642 90.1185 98.3585 90.5948 98.3472 91.2978C98.3358 91.8308 98.4039 92.1596 98.5513 92.2617C98.6873 92.3637 98.9141 92.273 99.1636 92.1936C99.4584 92.0916 99.7873 91.9782 100.071 92.1256C100.264 92.2276 100.4 92.4204 100.49 92.7266C100.615 93.1461 100.808 93.4069 101.057 93.4863C101.556 93.6564 102.282 93.1461 102.872 92.7379C102.962 92.6812 103.042 92.6132 103.132 92.5565C103.28 92.4544 103.439 92.4317 103.597 92.4998C104.278 92.7833 104.709 94.745 104.833 95.4027C105.162 95.1645 105.967 94.711 106.648 95.312C107.203 95.7996 107.555 95.5728 107.906 95.346C108.167 95.1759 108.462 94.9945 108.757 95.2666C108.904 95.4027 109.097 95.448 109.301 95.4934C109.868 95.6295 110.265 95.8109 110.118 97.0696C110.004 98.0901 109.732 98.2602 109.335 98.419C109.097 98.5097 108.882 98.6004 108.677 99.088C108.11 100.471 106.931 101.016 106.285 101.22C105.99 101.311 105.525 101.968 105.083 102.603C104.346 103.646 103.575 104.735 102.94 104.384C102.146 103.953 100.116 103.987 99.6399 104.009C99.6058 104.372 99.5605 104.803 99.5038 105.291L99.3337 106.935C99.6172 108.715 99.98 109.679 100.479 109.974C100.672 110.087 100.887 110.11 101.148 110.019C101.25 109.985 101.42 109.974 101.613 110.121C102.565 110.858 103.257 115.043 103.11 117.05C103.042 118.014 103.302 118.773 103.575 119.567C103.972 120.712 104.38 121.892 103.745 123.695C103.223 125.18 103.699 126.269 104.425 127.924C104.607 128.344 104.822 128.831 105.037 129.353C106.001 131.78 107.09 137.404 106.081 139.06C105.48 140.035 104.969 142.654 105.933 143.992C106.466 144.729 107.351 144.979 108.575 144.707C111.501 144.072 113.225 144.253 115.22 144.775C116.173 145.024 117.284 144.639 118.35 144.276C119.495 143.879 120.584 143.516 121.536 143.822C122.262 144.06 122.387 143.845 122.614 143.437C122.92 142.892 123.339 142.155 125.256 142.064C126.129 142.019 126.945 142.03 127.66 142.053C129.712 142.099 131.186 142.121 132.309 140.772C132.842 140.137 133.409 139.808 133.908 139.513C134.633 139.094 135.257 138.731 135.631 137.597C135.643 137.563 135.665 137.54 135.699 137.529C138.024 136.803 139.645 135.556 139.861 134.342C139.078 133.617 139.101 132.948 139.124 132.403C139.146 131.836 139.158 131.496 138.262 131.326C136.743 131.031 135.994 130.113 135.643 129.41C135.144 128.412 135.11 127.153 135.529 126.042C134.679 126.654 132.456 128.174 131.141 128.298C130.245 128.389 128.068 128.48 127.047 127.493C126.65 127.108 126.48 126.609 126.526 125.997C126.582 125.191 126.752 124.761 126.877 124.443C127.104 123.876 127.149 123.74 125.947 122.266C124.348 120.293 122.806 117.424 123.226 115.78C123.362 115.235 123.702 114.85 124.224 114.634C125.324 114.181 126.367 114.249 127.172 114.827C128.068 115.473 128.533 116.675 128.442 118.15C128.374 119.318 129.338 120.78 131.095 122.152C132.638 123.354 134.429 124.171 135.087 123.967C135.722 123.774 136.232 123.683 136.64 123.933C137.083 124.205 137.366 124.817 137.604 126.076C137.774 126.972 140.201 128.094 144.249 129.149C147.549 130.011 151.042 130.589 151.835 130.51C152.765 130.408 152.958 131.088 153.23 132.04C153.48 132.914 153.82 134.104 154.897 135.272C156.02 136.485 156.042 137.166 156.065 137.824C156.088 138.459 156.099 139.06 157.301 140.171C158.65 141.429 159.807 140.432 160.567 139.774C160.918 139.468 161.134 139.286 161.315 139.377C161.463 139.445 161.497 139.649 161.451 140.103C161.394 140.738 161.281 141.498 161.156 142.303C160.793 144.707 160.351 147.689 160.93 150.047C161.258 151.42 161.485 152.984 161.701 154.481C161.984 156.466 162.245 158.337 162.733 159.493C163.107 160.389 162.937 161.591 162.778 162.748C162.562 164.29 162.37 165.617 163.515 165.798C165.533 166.115 168.459 162.022 169.162 159.845C169.4 159.119 169.423 158.257 169.457 157.35C169.525 155.615 169.582 153.824 171.09 152.724C171.453 152.463 171.838 152.179 172.258 151.884C174.469 150.308 177.213 148.347 177.848 146.997C178.245 146.147 179.095 145.512 179.912 144.888C180.717 144.276 181.477 143.697 181.817 142.949C182.225 142.03 183.234 141.86 184.13 141.69C184.81 141.566 185.457 141.452 185.695 141.044C186.08 140.386 187.112 139.264 187.713 139.456C188.019 139.558 188.144 139.967 188.065 140.681C188.019 141.112 187.963 141.475 187.906 141.792C187.713 143.051 187.645 143.437 188.723 144.639C189.63 145.659 189.153 147.235 188.745 148.63C188.496 149.446 188.269 150.229 188.326 150.819C188.382 151.42 188.564 151.816 188.893 152.032C189.618 152.519 191.024 152.089 192.51 151.635L192.771 151.556C192.816 151.567 192.895 151.556 192.975 151.556ZM136.051 104.554C135.881 104.554 135.699 104.531 135.518 104.52C135.223 104.486 134.917 104.463 134.645 104.508C133.499 104.712 130.54 102.671 129.542 100.982C128.828 99.7684 130.279 98.4417 131.334 97.4778C131.776 97.0696 132.207 96.684 132.275 96.4572C132.49 95.7542 131.844 93.8265 130.767 91.9668C130.064 90.7535 130.426 89.0299 131.164 88.1228C131.538 87.6692 131.969 87.4877 132.354 87.6238C132.819 87.7826 133.567 87.5331 134.429 87.2496C135.552 86.8754 136.958 86.4105 138.421 86.6033C139.611 86.762 139.872 87.2043 139.895 87.5558C139.929 88.2588 138.954 89.0186 138.307 89.166C137.979 89.2454 137.65 89.234 137.343 89.234C136.652 89.234 136.051 89.234 135.62 90.0051C135.472 90.2772 136.482 92.5225 137.083 93.0781C137.548 93.4977 137.378 94.7677 137.23 95.4934C137.491 95.2553 137.854 95.0738 138.228 95.0965C138.591 95.1305 139.09 95.38 139.362 96.4346C139.555 97.1943 139.509 97.6592 139.203 97.8633C138.693 98.2149 137.65 97.5912 137.083 97.183C136.901 97.0582 136.856 97.1149 136.833 97.1376C136.595 97.3984 136.822 98.8272 137.378 99.4622C137.876 100.029 137.706 100.744 137.525 101.492C137.423 101.923 137.309 102.365 137.309 102.807C137.309 103.533 137.173 104.009 136.89 104.27C136.652 104.508 136.368 104.554 136.051 104.554ZM134.974 104.259C135.166 104.259 135.359 104.281 135.541 104.293C136.005 104.338 136.448 104.384 136.72 104.123C136.958 103.907 137.071 103.488 137.071 102.83C137.071 102.354 137.185 101.9 137.287 101.458C137.468 100.732 137.616 100.109 137.196 99.6323C136.606 98.9633 136.289 97.4098 136.652 97.0015C136.731 96.9108 136.901 96.8088 137.196 97.0129C137.876 97.4891 138.716 97.92 139.056 97.6819C139.26 97.5458 139.283 97.1263 139.124 96.4913C138.931 95.7542 138.614 95.3573 138.194 95.3233C137.729 95.2893 137.23 95.7088 137.094 96.0037C137.071 96.0604 137.015 96.083 136.958 96.0604C136.901 96.0377 136.867 95.981 136.89 95.9243C137.049 95.312 137.366 93.6337 136.924 93.2368C136.38 92.7379 135.166 90.3453 135.416 89.8917C135.915 89.0072 136.64 89.0072 137.343 89.0072C137.65 89.0072 137.956 89.0072 138.262 88.9392C138.886 88.8031 139.691 88.0887 139.668 87.5671C139.645 87.0909 138.965 86.8981 138.398 86.8301C136.981 86.6486 135.609 87.1022 134.497 87.4651C133.556 87.7712 132.819 88.0207 132.286 87.8393C131.889 87.7032 131.526 88.0547 131.345 88.2702C130.642 89.1206 130.324 90.7648 130.971 91.8534C131.935 93.509 132.774 95.6521 132.502 96.5253C132.411 96.8088 132.014 97.1716 131.504 97.6365C130.506 98.555 129.134 99.8024 129.746 100.857C130.755 102.569 133.636 104.463 134.611 104.281C134.724 104.27 134.849 104.259 134.974 104.259ZM119.268 90.6741C118.906 90.6741 118.486 90.6174 118.021 90.47C116.638 90.0278 115.345 88.9619 114.211 88.0207C113.417 87.363 112.726 86.796 112.17 86.5806C111.467 86.3198 110.344 86.3198 109.244 86.3311C107.895 86.3425 106.636 86.3425 106.137 85.8549C106.001 85.7188 105.831 85.5827 105.65 85.4466C105.139 85.0498 104.55 84.5962 104.573 83.9385C104.595 83.2921 105.208 82.5778 106.444 81.75C109.732 79.5388 111.909 78.0873 113.497 79.3233C114.234 79.9017 114.574 80.1058 114.744 80.1965C114.937 80.3099 114.948 80.3326 115.027 80.5367C115.05 80.5934 115.039 80.6614 115.005 80.7068C114.903 80.8542 114.597 80.8655 114.064 80.8655C113.837 80.8655 113.519 80.8655 113.395 80.8995L113.406 80.9109C113.633 81.115 113.667 81.4438 113.689 81.7613C113.723 82.0675 113.746 82.3623 113.939 82.5097C114.064 82.6118 114.256 82.6345 114.529 82.6004C115.776 82.4304 116.581 82.6912 117.352 82.952C117.443 82.986 117.533 83.0087 117.613 83.0427C118.974 83.4736 121.468 84.7436 121.151 86.4899C120.924 87.7599 121.185 88.1228 121.412 88.4516C121.502 88.5877 121.604 88.7237 121.661 88.9165C121.74 89.1887 121.582 89.5855 121.241 89.9144C121.037 90.1298 120.38 90.6741 119.268 90.6741ZM109.755 86.1043C110.707 86.1043 111.626 86.1383 112.261 86.3765C112.839 86.5919 113.542 87.1816 114.358 87.8506C115.481 88.7804 116.751 89.8237 118.1 90.2546C119.858 90.8215 120.845 90.0278 121.105 89.767C121.423 89.4495 121.514 89.1433 121.468 88.9959C121.423 88.8485 121.344 88.7351 121.253 88.599C121.003 88.2361 120.709 87.8279 120.958 86.4672C121.31 84.4828 117.613 83.2921 117.579 83.2808C117.488 83.2581 117.397 83.2241 117.307 83.1901C116.524 82.9293 115.776 82.6912 114.585 82.8499C114.245 82.8953 113.996 82.8499 113.826 82.7138C113.565 82.5097 113.531 82.1582 113.497 81.8067C113.463 81.5119 113.44 81.2397 113.281 81.1036C113.179 81.0129 113.145 80.9222 113.179 80.8428C113.247 80.6727 113.542 80.6614 114.098 80.6614C114.336 80.6614 114.721 80.6614 114.835 80.616C114.789 80.4913 114.778 80.4913 114.653 80.4119C114.483 80.3099 114.143 80.1058 113.383 79.5161C111.989 78.4275 110.095 79.6068 106.591 81.9541C105.434 82.7252 104.845 83.4055 104.822 83.9612C104.799 84.5055 105.321 84.9024 105.809 85.2766C106.001 85.424 106.183 85.56 106.319 85.7075C106.738 86.127 108.02 86.127 109.256 86.1157C109.414 86.1043 109.585 86.1043 109.755 86.1043ZM118.792 82.7705C118.543 82.7705 118.305 82.7479 118.089 82.7138C117.749 82.6571 116.796 82.385 116.456 81.7953C116.32 81.5459 116.309 81.2851 116.411 81.0129C116.547 80.6841 117.091 80.48 118.044 80.4119C119.427 80.3212 121.854 80.5593 122.047 80.8882C122.081 80.9562 122.092 81.0243 122.069 81.0923C122.013 81.2737 121.786 81.4098 121.457 81.5799C121.162 81.7386 120.833 81.9201 120.606 82.1695C120.187 82.6118 119.461 82.7705 118.792 82.7705ZM118.781 80.6047C118.259 80.6047 117.76 80.6387 117.352 80.7181C116.83 80.8201 116.672 80.9789 116.626 81.081C116.547 81.2964 116.547 81.4892 116.66 81.6706C116.921 82.1242 117.692 82.4077 118.123 82.4757C118.94 82.6118 119.96 82.5097 120.436 81.9881C120.686 81.716 121.049 81.5119 121.344 81.3531C121.57 81.2284 121.82 81.0923 121.854 81.0016C121.854 81.0016 121.854 80.9902 121.842 80.9676C121.695 80.8428 120.176 80.6047 118.781 80.6047Z" fill="#111111"/>
<path d="M61.8569 79.3346C61.0177 80.8427 58.6251 81.988 57.7747 82.022C56.9355 82.0674 54.9511 85.1517 52.4451 86.966C50.1546 88.6102 50.5061 90.3452 49.0206 91.5472C48.3629 93.1914 45.9816 96.4004 44.9611 98.2828C43.9746 100.12 42.1376 105.086 42.3077 106.175C42.4778 107.264 42.1489 108.454 41.5593 112.99C40.9696 117.526 41.8541 118.83 42.988 119.374C44.122 119.918 43.5323 122.776 44.2467 123.581C44.9611 124.375 45.5054 120.928 47.4785 122.946C49.4515 124.965 48.6578 126.938 49.0773 128.582C49.4969 130.226 51.8101 130.43 51.9802 133.038C52.1503 135.646 50.1772 139.048 49.7123 142.03C49.2474 145.013 52.91 149.764 52.5699 152.792C52.2297 155.819 52.9894 157.906 53.0461 159.38C53.1028 160.854 52.241 161.84 51.4473 163.87C50.6422 165.9 55.2006 172.42 55.1439 174.087C55.0872 175.754 59.2715 183.567 62.7187 187.57C66.1659 191.572 71.4841 195.178 73.151 195.428C74.8179 195.677 76.0198 192.502 76.3827 191.21C76.7569 189.917 78.5372 192.446 79.5237 191.697C80.5103 190.96 78.6619 188.499 78.7186 187.263C78.7753 186.027 86.5315 186.22 88.0737 185.846C89.6158 185.472 89.3664 179.938 88.5613 178.952C87.7562 177.965 87.9489 174.461 88.1757 173.146C88.8674 169.2 96.8731 164.278 104.436 163.791C110.356 163.417 118.305 153.234 118.792 150.83C119.121 149.208 105.888 151.578 104.278 147.394C103.348 144.99 105.219 142.042 100.944 137.642C99.4585 136.111 100.479 131.201 99.0843 129.806C97.6895 128.412 101.182 124.522 99.2203 119.862C98.1544 117.322 98.9255 109.702 99.3678 105.54L99.5378 103.907C99.5605 103.703 99.5719 103.533 99.5832 103.374C99.776 101.004 95.501 101.911 95.501 101.911C89.5932 97.6024 87.45 91.8193 85.2842 94.9943C81.4288 100.63 80.3742 91.842 78.3671 88.9504C75.2488 84.4487 80.4309 84.6641 80.567 81.1716C77.4826 80.7293 76.4848 77.5543 73.2984 77.8718C69.5564 78.246 68.7172 77.5656 69.1368 75.4565C69.1255 75.4678 62.696 77.8264 61.8569 79.3346Z" fill="white"/>
<path d="M73.321 195.564C73.253 195.564 73.185 195.564 73.1169 195.553C71.4387 195.303 66.0751 191.675 62.6166 187.66C59.1921 183.68 54.9511 175.833 55.0192 174.11C55.0418 173.452 54.2708 171.91 53.4543 170.288C52.2297 167.862 50.8463 165.095 51.3338 163.859C51.5947 163.19 51.8668 162.623 52.1163 162.135C52.6152 161.115 52.9667 160.378 52.9327 159.414C52.91 158.949 52.8193 158.416 52.7173 157.815C52.5018 156.511 52.2183 154.889 52.4565 152.814C52.6152 151.352 51.8101 149.435 51.0277 147.564C50.2112 145.614 49.3608 143.595 49.5989 142.042C49.7917 140.772 50.2679 139.411 50.7215 138.107C51.3565 136.281 51.9575 134.558 51.8668 133.072C51.7761 131.61 50.9937 130.929 50.2339 130.283C49.6783 129.807 49.1567 129.353 48.9752 128.639C48.8392 128.128 48.8278 127.584 48.8165 127.017C48.7825 125.747 48.7485 124.42 47.4104 123.06C47.0022 122.64 46.6166 122.436 46.2878 122.447C45.8229 122.47 45.4827 122.901 45.1765 123.275C44.9384 123.57 44.7343 123.831 44.4962 123.842C44.3828 123.842 44.2694 123.797 44.1787 123.683C43.8385 123.309 43.7818 122.561 43.7137 121.767C43.6344 120.792 43.5436 119.794 42.954 119.51C41.8654 118.989 40.8449 117.809 41.4572 113.002C41.65 111.527 41.8087 110.416 41.9448 109.52C42.2169 107.695 42.319 106.935 42.2169 106.221C42.0128 105.041 43.9065 100.007 44.859 98.2376C45.2899 97.4438 45.9363 96.4459 46.628 95.3914C47.5692 93.9513 48.533 92.4658 48.9185 91.5133C48.9299 91.4906 48.9412 91.4793 48.9526 91.4679C49.5876 90.9576 49.8824 90.334 50.1999 89.6649C50.6081 88.8031 51.0844 87.8166 52.3884 86.8754C53.6584 85.9569 54.7924 84.7096 55.7109 83.7004C56.6407 82.6685 57.3211 81.9314 57.786 81.9088C58.5344 81.8747 60.9384 80.7862 61.7661 79.278C62.6166 77.7472 68.8306 75.4566 69.1028 75.3546C69.1368 75.3432 69.1821 75.3432 69.2162 75.3772C69.2502 75.4113 69.2615 75.4453 69.2502 75.4906C69.0687 76.3864 69.1368 76.9421 69.4656 77.3049C69.9532 77.8492 71.1325 77.9967 73.287 77.7699C75.0673 77.5884 76.1672 78.4502 77.3239 79.3687C78.2537 80.1058 79.2175 80.8655 80.5896 81.0696C80.6463 81.081 80.6917 81.1263 80.6917 81.183C80.635 82.6458 79.7165 83.4849 78.9 84.2333C77.6981 85.3333 76.6662 86.2858 78.4691 88.8939C79.0361 89.7103 79.5124 90.9463 80.0113 92.2617C80.8278 94.3935 81.6782 96.5933 82.8802 96.7294C83.5492 96.8088 84.3316 96.2078 85.2048 94.9378C85.6243 94.3255 86.0552 94.0193 86.5428 93.9853C87.5747 93.9172 88.6973 95.1306 90.2508 96.8315C91.6116 98.3169 93.3125 100.165 95.5464 101.809C95.9319 101.73 98.2678 101.322 99.2657 102.195C99.5945 102.49 99.7533 102.898 99.7079 103.397C99.6966 103.544 99.6739 103.726 99.6626 103.93L99.4925 105.563C99.0956 109.362 98.2565 117.276 99.3337 119.839C100.468 122.549 99.776 125.033 99.277 126.847C98.9142 128.162 98.6193 129.194 99.175 129.75C99.8894 130.464 99.9914 132.006 100.105 133.617C100.207 135.204 100.32 136.837 101.046 137.585C104.006 140.636 104.051 143.028 104.096 144.956C104.119 145.863 104.13 146.634 104.414 147.371C105.378 149.877 110.719 149.979 114.619 150.036C117.091 150.082 118.509 150.127 118.86 150.558C118.928 150.648 118.962 150.762 118.94 150.875C118.701 152.055 116.66 155.173 113.769 158.167C111.784 160.219 107.952 163.7 104.482 163.927C100.955 164.154 97.0772 165.378 93.8228 167.283C90.7044 169.12 88.652 171.32 88.3231 173.18C88.0623 174.654 87.9603 177.999 88.686 178.895C89.321 179.677 89.6045 183.159 89.0148 184.905C88.8107 185.517 88.5046 185.88 88.1304 185.971C87.6201 186.096 86.4521 186.152 85.1027 186.232C82.6307 186.368 78.9 186.56 78.866 187.286C78.8433 187.751 79.1268 188.443 79.3876 189.101C79.8299 190.178 80.2835 191.3 79.6144 191.799C79.0701 192.208 78.3671 191.765 77.7434 191.391C77.3465 191.142 76.927 190.892 76.7115 190.972C76.6208 191.006 76.5641 191.096 76.5188 191.244C76.3487 191.709 75.1807 195.564 73.321 195.564ZM46.3105 122.209C46.7074 122.209 47.1156 122.436 47.5578 122.89C48.9526 124.318 48.9979 125.747 49.0319 127.006C49.0433 127.561 49.066 128.083 49.1907 128.582C49.3608 129.228 49.8597 129.659 50.3813 130.113C51.1411 130.759 51.9915 131.496 52.0936 133.061C52.1956 134.592 51.5833 136.338 50.937 138.186C50.4834 139.49 50.0185 140.829 49.8257 142.087C49.5989 143.573 50.4267 145.557 51.2431 147.485C52.0369 149.367 52.8533 151.329 52.6832 152.837C52.4565 154.878 52.7286 156.488 52.9441 157.77C53.0461 158.382 53.1368 158.915 53.1595 159.403C53.2049 160.423 52.8193 161.217 52.3204 162.226C52.0823 162.714 51.8101 163.269 51.5493 163.938C51.0957 165.084 52.4565 167.794 53.6584 170.186C54.5316 171.91 55.28 173.407 55.246 174.121C55.1893 175.777 59.4642 183.658 62.7867 187.524C66.2112 191.493 71.5067 195.099 73.1396 195.337C74.6024 195.553 75.7817 192.831 76.2466 191.198C76.3146 190.972 76.4167 190.835 76.5755 190.779C76.9043 190.654 77.3239 190.915 77.8115 191.21C78.3784 191.55 79.0134 191.947 79.4217 191.629C79.9433 191.232 79.5237 190.2 79.1155 189.203C78.8207 188.477 78.5485 187.796 78.5712 187.286C78.6166 186.424 81.27 186.209 85.0233 186.016C86.3614 185.948 87.518 185.88 88.0056 185.767C88.3798 185.676 88.6066 185.222 88.7313 184.848C89.287 183.193 89.0262 179.78 88.4365 179.054C87.5861 178.011 87.8015 174.461 88.0283 173.157C88.3685 171.23 90.4663 168.973 93.6413 167.102C96.9184 165.174 100.842 163.938 104.391 163.712C107.782 163.496 111.569 160.06 113.531 158.019C116.388 155.048 118.407 151.987 118.645 150.841C118.656 150.796 118.645 150.751 118.611 150.717C118.316 150.342 116.479 150.308 114.551 150.274C110.582 150.206 105.151 150.116 104.13 147.462C103.835 146.691 103.813 145.852 103.801 144.967C103.767 142.983 103.722 140.738 100.819 137.756C100.037 136.95 99.9234 135.272 99.8213 133.651C99.7193 132.143 99.6172 130.578 98.9595 129.92C98.3132 129.274 98.6193 128.185 99.0049 126.802C99.5265 124.919 100.184 122.583 99.0729 119.941C97.973 117.322 98.8121 109.373 99.209 105.563L99.3791 103.93C99.4018 103.726 99.4131 103.556 99.4244 103.397C99.4585 102.955 99.3451 102.626 99.0616 102.376C98.0864 101.515 95.5123 102.048 95.4897 102.048C95.4556 102.059 95.4216 102.048 95.3989 102.025C93.1197 100.369 91.4075 98.4984 90.0354 96.9902C88.5272 95.346 87.4386 94.1554 86.5088 94.2234C86.1006 94.2574 85.7151 94.5296 85.3409 95.0852C84.411 96.4459 83.5832 97.0583 82.8122 96.9675C81.4741 96.8088 80.601 94.5409 79.7618 92.3524C79.2629 91.0597 78.7866 89.8237 78.2424 89.0299C76.326 86.2631 77.4826 85.1972 78.7073 84.0746C79.501 83.3375 80.3288 82.5891 80.4195 81.2851C79.0361 81.0583 78.0836 80.2986 77.1424 79.5615C76.0198 78.677 74.9653 77.8379 73.2757 78.008C71.0078 78.2348 69.8058 78.076 69.2615 77.4637C68.91 77.0782 68.8079 76.5112 68.9553 75.6494C67.8894 76.0463 62.662 78.076 61.9362 79.3914C61.0971 80.8996 58.6932 82.0902 57.7633 82.1355C57.4005 82.1582 56.6747 82.9406 55.8469 83.8591C54.9285 84.8684 53.7718 86.1384 52.4905 87.0569C51.2318 87.964 50.7896 88.8825 50.37 89.767C50.0525 90.4474 49.7463 91.0824 49.0886 91.6267C48.6918 92.6019 47.7279 94.076 46.7981 95.5161C46.1064 96.5707 45.46 97.5685 45.0405 98.351C44.0312 100.233 42.2396 105.121 42.3984 106.175C42.5118 106.924 42.3984 107.695 42.1262 109.543C41.9901 110.439 41.8314 111.55 41.6386 113.024C41.0376 117.685 41.9901 118.807 42.9994 119.295C43.7024 119.635 43.7931 120.701 43.8838 121.744C43.9519 122.504 44.0086 123.207 44.2921 123.536C44.3714 123.627 44.4168 123.615 44.4395 123.615C44.5755 123.615 44.7683 123.366 44.9497 123.139C45.2672 122.742 45.6528 122.255 46.2198 122.22C46.2765 122.209 46.2991 122.209 46.3105 122.209Z" fill="#111111"/>
<path d="M88.7428 60.4659C89.3891 60.6359 90.4437 60.67 90.9993 60.7834C91.9291 60.9761 93.2218 61.4751 94.2764 60.7834C95.331 60.0917 96.0454 60.1483 95.6825 59.1732C95.3196 58.198 98.7555 57.5516 99.2318 56.5651C99.708 55.5786 101.488 55.9074 101.568 55.1817C101.636 54.4559 96.9072 55.8053 95.4104 55.9074C93.9136 56.0208 91.1807 55.8734 90.5684 56.8145C89.9447 57.7671 88.5613 58.4588 89.5479 58.4928C90.5344 58.5268 92.9724 57.6877 93.3012 57.9485C93.6301 58.2093 93.4827 58.7876 92.2807 59.0031C91.0787 59.2185 87.983 60.2731 88.7428 60.4659Z" fill="white"/>
<path d="M92.995 61.2597C92.4507 61.2597 91.9177 61.1237 91.4414 61.0103C91.2827 60.9649 91.1239 60.9309 90.9765 60.8969C90.7384 60.8515 90.4096 60.8062 90.058 60.7721C89.5818 60.7268 89.0942 60.6701 88.72 60.568C88.5385 60.5227 88.5159 60.4206 88.5159 60.3639C88.5159 60.2732 88.5272 60.0578 90.024 59.5361C90.8064 59.2527 91.7363 58.9918 92.2692 58.9011C92.9836 58.7764 93.2898 58.5156 93.3351 58.3115C93.3578 58.2094 93.3238 58.1187 93.2331 58.0507C93.097 57.9486 92.2125 58.1527 91.5548 58.3001C90.8064 58.4702 90.024 58.6403 89.5478 58.629C89.3777 58.6176 89.1622 58.595 89.1055 58.4476C89.0375 58.2548 89.2529 58.0507 89.6158 57.7218C89.8993 57.461 90.2395 57.1435 90.4776 56.7807C90.9992 55.9756 92.8702 55.9189 94.3784 55.8622C94.7526 55.8508 95.1041 55.8395 95.4103 55.8168C95.9205 55.7828 96.8163 55.59 97.7689 55.3972C99.878 54.9663 101.284 54.7055 101.613 55.0004C101.67 55.0571 101.704 55.1251 101.692 55.2158C101.647 55.6467 101.171 55.7601 100.672 55.8962C100.161 56.0209 99.5832 56.1797 99.3564 56.6446C99.1296 57.1208 98.3245 57.495 97.4854 57.8806C96.5896 58.2888 95.6484 58.7197 95.8185 59.1619C96.1246 59.9784 95.7164 60.1825 95.1154 60.4887C94.9 60.602 94.6392 60.7268 94.367 60.9082C93.9134 61.169 93.4599 61.2597 92.995 61.2597ZM88.7653 60.3526C88.7653 60.3639 88.7653 60.3639 88.7653 60.3526C89.1282 60.4433 89.6158 60.5 90.0807 60.5453C90.4436 60.5794 90.7838 60.6247 91.0219 60.6701C91.1693 60.7041 91.3281 60.7381 91.4868 60.7835C92.3259 60.9876 93.3578 61.2484 94.2083 60.6928C94.4918 60.5 94.7526 60.3753 94.9794 60.2619C95.5803 59.9557 95.8071 59.8423 95.569 59.2186C95.3309 58.5836 96.3174 58.13 97.3606 57.6538C98.1317 57.3023 98.9368 56.9394 99.1296 56.5312C99.4017 55.9642 100.037 55.8055 100.592 55.658C101.035 55.5447 101.42 55.4426 101.443 55.1818C101.443 55.1705 101.443 55.1705 101.432 55.1591C101.171 54.921 99.209 55.3179 97.7915 55.6127C96.839 55.8055 95.9319 55.9982 95.4103 56.0322C95.1041 56.0549 94.7526 56.0663 94.367 56.0776C92.9156 56.123 91.1126 56.1797 90.6477 56.894C90.3982 57.2683 90.0467 57.6084 89.7519 57.8692C89.5704 58.0393 89.321 58.2661 89.2983 58.3568C89.321 58.3682 89.3777 58.3909 89.5251 58.3909C89.9673 58.4022 90.7384 58.2321 91.4755 58.0734C92.53 57.8352 93.1424 57.7105 93.3465 57.8692C93.5052 57.994 93.5733 58.1754 93.5279 58.3682C93.4372 58.7197 92.9836 59.0032 92.2806 59.1279C91.1693 59.332 89.0488 60.0804 88.7653 60.3526Z" fill="#111111"/>
<path d="M98.5628 189.475C95.3083 189.747 94.0383 189.282 93.8796 192.593C93.8002 194.215 91.7364 194.861 91.6797 196.675C91.623 198.49 96.2155 199.93 97.2247 199.454C98.2339 198.977 97.1227 198.093 99.8895 196.97C102.668 195.848 104.743 189.69 103.949 187.989C103.144 186.277 101.851 189.203 98.5628 189.475Z" fill="white"/>
<path d="M96.6578 199.658C95.6372 199.658 93.9136 199.125 92.8137 198.41C91.9859 197.866 91.555 197.265 91.5664 196.675C91.6004 195.7 92.1787 195.054 92.7343 194.43C93.2446 193.863 93.7322 193.33 93.7662 192.582C93.9136 189.634 94.9796 189.566 97.3155 189.441C97.6783 189.418 98.0979 189.395 98.5515 189.361C100.105 189.237 101.216 188.5 102.021 187.955C102.645 187.547 103.087 187.241 103.495 187.354C103.722 187.411 103.904 187.604 104.051 187.933C104.448 188.772 104.187 190.643 103.427 192.593C102.532 194.872 101.228 196.551 99.9462 197.072C98.2567 197.753 98.0639 198.331 97.9051 198.784C97.8031 199.079 97.7124 199.351 97.2928 199.544C97.1341 199.624 96.9186 199.658 96.6578 199.658ZM98.5742 189.588C98.1206 189.622 97.701 189.645 97.3382 189.668C95.0022 189.804 94.1404 189.849 94.0044 192.593C93.959 193.421 93.4374 194.011 92.9158 194.578C92.3828 195.167 91.8272 195.78 91.8045 196.675C91.7818 197.31 92.4168 197.866 92.9498 198.206C94.3559 199.125 96.5671 199.635 97.1907 199.34C97.5309 199.181 97.599 198.977 97.6897 198.705C97.8484 198.229 98.0752 197.571 99.8669 196.845C101.092 196.347 102.35 194.725 103.223 192.491C103.96 190.62 104.221 188.783 103.858 188.012C103.734 187.751 103.598 187.604 103.45 187.558C103.155 187.479 102.713 187.763 102.169 188.125C101.318 188.704 100.184 189.452 98.5742 189.588Z" fill="#111111"/>
<path d="M136.459 211.518C131.753 211.518 122.636 209.818 111.263 206.756C89.786 200.984 66.835 192.185 60.088 187.15C60.0427 187.116 60.0313 187.037 60.0653 186.991C60.0994 186.946 60.1787 186.935 60.2241 186.969C66.9484 191.992 89.8654 200.78 111.32 206.54C125.449 210.339 136.074 212.051 139.022 210.997C139.079 210.974 139.147 211.008 139.169 211.065C139.192 211.122 139.158 211.19 139.101 211.212C138.512 211.416 137.616 211.518 136.459 211.518ZM171.657 192.638C163.56 192.638 147.878 189.724 128.102 184.406C90.9653 174.416 51.2546 159.21 39.5976 150.49C39.5523 150.456 39.5409 150.376 39.575 150.331C39.609 150.285 39.6883 150.274 39.7337 150.308C51.368 159.005 91.0334 174.2 128.159 184.179C141.528 187.774 153.219 190.325 161.973 191.572C170.353 192.763 175.739 192.672 177.122 191.323C177.168 191.278 177.236 191.278 177.281 191.323C177.327 191.368 177.327 191.436 177.281 191.482C176.487 192.264 174.56 192.638 171.657 192.638Z" fill="#111111"/>
<path d="M88.1079 206.507C88.0965 206.507 88.0852 206.507 88.0625 206.495C75.952 201.869 67.0278 190.575 62.957 174.711C58.8521 158.711 59.986 139.184 66.166 119.714C69.5792 108.931 74.3304 98.7138 80.2836 89.3247C86.0327 80.2532 92.6436 72.3496 99.9462 65.8181C107.249 59.2979 114.88 54.4673 122.614 51.485C130.631 48.4007 138.41 47.4255 145.735 48.6161C145.792 48.6275 145.837 48.6842 145.826 48.7408C145.814 48.7975 145.758 48.8429 145.701 48.8316C131.266 46.507 115.073 52.6076 100.094 65.9995C85.1142 79.4027 73.1398 98.5097 66.3815 119.794C60.2242 139.218 59.0789 158.699 63.1724 174.665C67.2206 190.461 76.088 201.699 88.1305 206.291C88.1872 206.314 88.2213 206.382 88.1986 206.439C88.1872 206.484 88.1532 206.507 88.1079 206.507Z" fill="#111111"/>
<path d="M93.1197 208.457H93.0857C92.1898 208.185 91.4301 207.482 90.8518 206.37C88.7767 202.413 88.7426 193.455 90.7611 180.46C92.8249 167.227 96.8277 151.023 102.35 133.605C109.108 112.287 117.329 91.7172 125.505 75.6719C133.692 59.6039 140.859 49.9994 145.689 48.616C145.746 48.5933 145.814 48.6387 145.825 48.6954C145.837 48.7521 145.803 48.8201 145.746 48.8314C135.881 51.655 116.502 89.7101 102.565 133.673C97.0431 151.079 93.0403 167.272 90.9765 180.482C88.9921 193.239 89.0148 202.39 91.0446 206.246C91.6002 207.3 92.3032 207.969 93.1537 208.23C93.2104 208.253 93.2444 208.309 93.2331 208.366C93.2104 208.423 93.165 208.457 93.1197 208.457Z" fill="#111111"/>
<path d="M101.035 210.475C100.32 210.475 99.6174 210.396 98.9257 210.248C98.869 210.237 98.8237 210.169 98.835 210.112C98.8463 210.056 98.9144 210.01 98.9711 210.022C105.457 211.45 113.61 205.905 121.899 194.396C130.302 182.75 138.285 165.73 144.386 146.498C158.333 102.535 158.889 58.708 145.644 48.7973C145.599 48.7633 145.588 48.6839 145.622 48.6386C145.656 48.5932 145.735 48.5819 145.78 48.6159C149.057 51.0652 151.552 55.5557 153.208 61.9624C154.807 68.1311 155.555 75.8306 155.442 84.8228C155.215 103.306 151.359 125.237 144.601 146.566C138.489 165.82 130.495 182.852 122.081 194.532C114.608 204.919 107.226 210.475 101.035 210.475Z" fill="#111111"/>
<path d="M194.302 156.08C191.263 156.08 187.679 155.729 184.414 155.298C174.027 153.937 159.83 150.875 143.365 146.442C99.9234 134.762 53.4997 116.97 39.8584 106.776C39.813 106.742 39.8017 106.663 39.8357 106.617C39.8697 106.572 39.9491 106.561 39.9944 106.595C53.6131 116.766 100.003 134.547 143.422 146.215C159.875 150.637 174.061 153.699 184.436 155.06C194.392 156.364 200.3 156.012 201.049 154.05C201.071 153.994 201.139 153.96 201.196 153.982C201.253 154.005 201.287 154.073 201.264 154.13C200.72 155.581 197.896 156.08 194.302 156.08ZM196.683 111.958C188.428 111.958 172.439 108.987 152.3 103.578C114.461 93.407 74.0241 77.906 62.1404 69.0272C62.095 68.9932 62.0837 68.9138 62.1177 68.8684C62.1517 68.8231 62.2311 68.8117 62.2765 68.8458C74.1375 77.7132 114.54 93.1916 152.357 103.352C165.919 107.003 177.791 109.6 186.693 110.87C195.22 112.083 200.731 112.015 202.205 110.654C202.534 110.348 202.659 109.997 202.591 109.554C202.579 109.498 202.625 109.43 202.681 109.418C202.738 109.407 202.806 109.452 202.818 109.509C202.908 110.019 202.75 110.45 202.364 110.813C201.536 111.584 199.586 111.958 196.683 111.958ZM178.778 73.3248C173.891 73.3248 164.456 71.5786 152.538 68.3695C130.154 62.3596 106.239 53.186 99.209 47.9358C99.1637 47.9018 99.1523 47.8224 99.1864 47.7771C99.2204 47.7317 99.2998 47.7204 99.3451 47.7544C106.353 52.9932 130.234 62.1442 152.595 68.1541C168.572 72.4517 180.422 74.1753 182.066 72.4404C182.248 72.2476 182.293 72.0208 182.202 71.7487C182.18 71.692 182.214 71.6239 182.27 71.6013C182.327 71.5786 182.395 71.6126 182.418 71.6693C182.531 72.0322 182.475 72.3383 182.225 72.5878C181.76 73.0867 180.581 73.3248 178.778 73.3248Z" fill="#111111"/>
<path d="M114.722 212.641C111.728 212.641 108.734 212.369 105.786 211.813C105.729 211.802 105.684 211.745 105.695 211.677C105.707 211.609 105.763 211.575 105.831 211.587C136.425 217.313 167.563 193.307 179.867 154.504C186.625 133.208 186.784 110.473 180.32 90.5154C173.857 70.5579 161.553 55.7599 145.667 48.8315C145.61 48.8089 145.588 48.7408 145.61 48.6841C145.633 48.6274 145.701 48.6048 145.758 48.6274C153.82 52.1427 160.964 57.665 167.008 65.047C172.836 72.1681 177.395 80.7181 180.547 90.4473C183.699 100.177 185.287 110.598 185.276 121.427C185.264 132.63 183.518 143.788 180.093 154.572C177.043 164.21 172.78 173.078 167.45 180.925C162.302 188.511 156.281 194.963 149.556 200.077C138.727 208.321 126.628 212.641 114.722 212.641Z" fill="#111111"/>
</g>
<g clip-path="url(#clip1_0_7039)">
<path d="M165.676 95.9989C165.794 98.1883 164.961 99.5014 164.598 99.9643C164.437 100.17 164.437 100.17 155.241 109.29C157.911 106.216 154.31 100.979 150.703 100.04C149.064 99.5717 147.647 99.8871 146.767 100.76L151.058 96.5045C152.634 94.9411 154.14 93.307 155.787 91.8143C159.018 88.8747 165.54 90.6103 165.676 95.9989Z" fill="#069D6E"/>
<path d="M155.242 109.403C155.22 109.403 155.198 109.397 155.18 109.385C155.162 109.373 155.147 109.356 155.138 109.337C155.129 109.317 155.126 109.295 155.129 109.273C155.132 109.252 155.142 109.232 155.156 109.215C156.302 107.896 156.145 106.338 155.812 105.263C155.086 102.921 152.878 100.723 150.675 100.149C149.129 99.7079 147.735 99.96 146.847 100.84C146.837 100.851 146.824 100.86 146.81 100.866C146.797 100.871 146.782 100.874 146.767 100.875C146.752 100.875 146.737 100.872 146.723 100.866C146.709 100.86 146.696 100.852 146.685 100.841C146.675 100.83 146.667 100.818 146.661 100.804C146.655 100.79 146.652 100.775 146.653 100.76C146.653 100.745 146.656 100.73 146.662 100.716C146.668 100.702 146.677 100.69 146.688 100.679L150.978 96.4237C151.503 95.9032 152.029 95.3656 152.538 94.8458C153.557 93.8043 154.611 92.7275 155.711 91.73C157.376 90.2154 160.014 89.8465 162.277 90.8125C164.448 91.7397 165.729 93.6276 165.789 95.9922V95.9925C165.91 98.2204 165.059 99.5611 164.687 100.034C164.522 100.245 164.522 100.245 155.321 109.37C155.311 109.381 155.298 109.389 155.285 109.394C155.271 109.4 155.256 109.403 155.242 109.403ZM149.235 99.7092C149.711 99.7092 150.215 99.7823 150.735 99.9306C153.004 100.522 155.281 102.786 156.028 105.196C156.305 106.087 156.464 107.297 155.923 108.454C164.352 100.094 164.356 100.088 164.509 99.8942C164.864 99.4416 165.678 98.1574 165.562 96.0086C165.562 96.0063 165.562 96.004 165.562 96.0017C165.505 93.728 164.275 91.9127 162.187 91.0213C160.005 90.0896 157.464 90.442 155.863 91.8982C154.768 92.8911 153.717 93.9656 152.7 95.0046C152.191 95.525 151.664 96.0633 151.138 96.5849L147.684 100.01C148.149 99.8108 148.673 99.7092 149.235 99.7092Z" fill="#111111"/>
<path d="M151.049 109.997C148.189 109.15 146.038 106.555 145.818 103.687C145.806 103.274 145.798 103.024 145.873 102.55C146.229 100.43 148.209 99.3273 150.703 100.04C153.564 100.857 156.017 103.751 156.184 106.504C156.305 108.517 155.17 109.898 153.432 110.175C153.129 110.215 152.206 110.339 151.049 109.997Z" fill="white"/>
<path d="M152.652 110.344C152.216 110.344 151.651 110.293 151.017 110.105C148.113 109.245 145.928 106.61 145.705 103.696C145.692 103.271 145.684 103.017 145.761 102.532C145.927 101.54 146.432 100.753 147.221 100.255C148.155 99.6655 149.403 99.5503 150.734 99.9306C153.633 100.758 156.128 103.704 156.297 106.497C156.418 108.504 155.301 109.992 153.45 110.287C153.186 110.324 152.919 110.343 152.652 110.344ZM151.082 109.888C152.216 110.224 153.12 110.102 153.417 110.062C155.141 109.787 156.184 108.393 156.07 106.511C155.907 103.806 153.485 100.952 150.672 100.149C149.404 99.7867 148.221 99.8926 147.342 100.447C146.61 100.91 146.14 101.643 145.985 102.569C145.912 103.032 145.919 103.277 145.932 103.684C146.148 106.5 148.266 109.054 151.082 109.888Z" fill="#111111"/>
<path d="M151.039 109.024C148.738 108.343 147.008 106.256 146.831 103.949C146.821 103.616 146.815 103.416 146.875 103.034C147.161 101.329 148.754 100.442 150.76 101.015C153.061 101.672 155.035 104 155.169 106.215C155.266 107.834 154.353 108.944 152.956 109.167C152.712 109.2 151.969 109.299 151.039 109.024Z" fill="#111111"/>
<path d="M152.327 109.325C151.975 109.325 151.519 109.285 151.006 109.133C148.662 108.438 146.898 106.31 146.718 103.958C146.707 103.613 146.701 103.409 146.763 103.017C146.898 102.212 147.307 101.574 147.948 101.17C148.704 100.692 149.714 100.598 150.792 100.906C153.131 101.574 155.146 103.953 155.282 106.208C155.38 107.834 154.474 109.04 152.973 109.279C152.856 109.295 152.631 109.325 152.327 109.325ZM151.071 108.915C151.978 109.184 152.702 109.087 152.94 109.055C154.315 108.835 155.146 107.723 155.055 106.221C154.924 104.055 152.984 101.768 150.729 101.124C149.715 100.834 148.77 100.919 148.069 101.361C147.485 101.73 147.111 102.315 146.987 103.053C146.929 103.423 146.935 103.619 146.945 103.945C147.117 106.201 148.814 108.247 151.071 108.915Z" fill="#111111"/>
<path d="M163.833 111.076C162.747 109.656 142.108 82.6661 141.477 80.2159C140.842 77.7649 145.437 73.9603 145.679 73.7601L176.202 98.6787L163.833 111.076Z" fill="#B6F1CF"/>
<path d="M163.833 111.19C163.831 111.19 163.828 111.19 163.826 111.189C163.81 111.188 163.794 111.184 163.78 111.176C163.765 111.168 163.753 111.158 163.743 111.145L163.833 111.076L163.742 111.144C161.517 108.234 141.985 82.6465 141.367 80.2441C140.733 77.7942 145.106 74.0872 145.607 73.6725C145.627 73.6557 145.652 73.6465 145.679 73.6464C145.705 73.6463 145.731 73.6554 145.751 73.6721L176.274 98.5906C176.286 98.6006 176.296 98.6131 176.303 98.6272C176.31 98.6414 176.315 98.6569 176.315 98.6727C176.316 98.6886 176.314 98.7044 176.308 98.7192C176.302 98.734 176.293 98.7475 176.282 98.7587L163.914 111.156C163.903 111.167 163.891 111.175 163.877 111.181C163.863 111.187 163.848 111.19 163.833 111.19ZM145.68 73.9071C144.945 74.5255 141.01 77.9609 141.586 80.1873C141.765 80.8797 143.815 84.1778 152.571 95.9587C157.564 102.676 162.676 109.375 163.844 110.904L176.033 98.6871L145.68 73.9071Z" fill="#111111"/>
<path d="M163.833 111.076L164.154 114.539C163.068 113.118 142.429 86.1284 141.798 83.6783C141.773 83.5811 141.756 83.4821 141.746 83.3821L141.425 79.9199C141.435 80.0205 141.452 80.1193 141.476 80.2161C142.108 82.6662 162.747 109.656 163.833 111.076Z" fill="#069D6E"/>
<path d="M164.154 114.652C164.137 114.652 164.12 114.648 164.104 114.64C164.088 114.632 164.075 114.621 164.064 114.607C161.839 111.698 142.307 86.1102 141.688 83.7063C141.661 83.6033 141.643 83.4983 141.633 83.3924L141.312 79.9301C141.31 79.9004 141.32 79.8712 141.339 79.8485C141.358 79.8259 141.385 79.8116 141.415 79.8089C141.445 79.8062 141.474 79.8151 141.497 79.8338C141.52 79.8526 141.535 79.8796 141.538 79.9091C141.547 80.0047 141.563 80.0982 141.586 80.1872C141.765 80.8796 143.815 84.1777 152.571 95.9587C157.685 102.839 162.924 109.7 163.923 111.006C163.936 111.023 163.944 111.044 163.946 111.066L164.267 114.528C164.269 114.544 164.267 114.559 164.262 114.574C164.257 114.589 164.249 114.603 164.238 114.615C164.228 114.626 164.215 114.636 164.2 114.642C164.186 114.649 164.17 114.652 164.154 114.652ZM141.623 80.8221L141.859 83.3714C141.868 83.4671 141.884 83.5606 141.908 83.6496C142.086 84.3421 144.137 87.6413 152.896 99.4267C157.69 105.877 162.584 112.297 164.005 114.156L163.723 111.119C161.532 108.253 144.02 85.3076 141.623 80.8221Z" fill="#111111"/>
<path d="M176.202 98.6784L176.523 102.141L164.154 114.538L163.833 111.076L176.202 98.6784Z" fill="white"/>
<path d="M164.154 114.652C164.126 114.652 164.099 114.641 164.078 114.622C164.057 114.603 164.044 114.577 164.041 114.549L163.72 111.087C163.719 111.07 163.721 111.053 163.726 111.038C163.732 111.022 163.741 111.008 163.753 110.996L176.121 98.5983C176.137 98.583 176.156 98.5724 176.177 98.5677C176.198 98.563 176.22 98.5644 176.24 98.5717C176.261 98.579 176.278 98.5919 176.292 98.609C176.305 98.626 176.313 98.6465 176.315 98.668L176.636 102.13C176.638 102.147 176.635 102.164 176.63 102.179C176.624 102.195 176.615 102.209 176.603 102.221L164.235 114.618C164.224 114.629 164.212 114.637 164.198 114.643C164.184 114.649 164.169 114.652 164.154 114.652ZM163.951 111.119L164.245 114.287L176.405 102.098L176.111 98.9299L163.951 111.119Z" fill="#111111"/>
<path d="M200.608 73.4348L193.669 61.3271L196.918 58.1052L212.426 65.6794L200.608 73.4348Z" fill="#B6F1CF"/>
<path d="M200.608 73.5484C200.588 73.5484 200.568 73.5431 200.551 73.5331C200.534 73.5231 200.519 73.5086 200.509 73.4913L193.571 61.3834C193.558 61.3618 193.554 61.3366 193.557 61.3118C193.56 61.287 193.572 61.2641 193.59 61.2465L196.838 58.0246C196.855 58.008 196.876 57.9971 196.899 57.9932C196.923 57.9894 196.947 57.9929 196.968 58.0033L212.476 65.5775C212.494 65.5863 212.509 65.5997 212.52 65.6164C212.531 65.633 212.538 65.6523 212.539 65.6723C212.54 65.6922 212.536 65.7122 212.527 65.7301C212.518 65.748 212.505 65.7633 212.488 65.7743L200.67 73.5297C200.652 73.5419 200.63 73.5484 200.608 73.5484ZM193.811 61.3462L200.647 73.2739L212.197 65.6939L196.941 58.2426L193.811 61.3462Z" fill="#111111"/>
<path d="M200.608 73.4349L200.743 75.1616L193.804 63.0538L193.669 61.3272L200.608 73.4349Z" fill="#069D6E"/>
<path d="M200.743 75.2751C200.703 75.2751 200.665 75.254 200.644 75.218L193.706 63.1102C193.697 63.0956 193.692 63.0794 193.691 63.0626L193.556 61.336C193.554 61.3102 193.561 61.2845 193.575 61.2631C193.59 61.2416 193.611 61.2258 193.636 61.2182C193.661 61.2106 193.687 61.2116 193.711 61.2212C193.735 61.2307 193.755 61.2482 193.768 61.2707L200.707 73.3785C200.715 73.3931 200.72 73.4093 200.721 73.4261L200.856 75.1528C200.857 75.1684 200.855 75.1841 200.85 75.1989C200.845 75.2136 200.837 75.2272 200.826 75.2387C200.816 75.2502 200.803 75.2594 200.788 75.2656C200.774 75.2719 200.759 75.2751 200.743 75.2751ZM193.916 63.0196L200.59 74.6673L200.497 73.4692L193.822 61.8215L193.916 63.0196Z" fill="#111111"/>
<path d="M212.426 65.6795L212.561 67.4061L200.743 75.1616L200.608 73.4349L212.426 65.6795Z" fill="white"/>
<path d="M200.743 75.275C200.714 75.275 200.687 75.2642 200.666 75.2448C200.645 75.2254 200.632 75.1989 200.63 75.1704L200.495 73.4437C200.493 73.4235 200.497 73.4032 200.506 73.3849C200.515 73.3667 200.529 73.3512 200.546 73.34L212.364 65.5845C212.38 65.5737 212.399 65.5673 212.419 65.5661C212.439 65.5648 212.458 65.5688 212.476 65.5775C212.512 65.5952 212.536 65.6306 212.539 65.6705L212.674 67.3972C212.677 67.4384 212.658 67.4781 212.623 67.501L200.805 75.2564C200.787 75.2686 200.765 75.275 200.743 75.275ZM200.727 73.493L200.841 74.9614L212.442 67.3481L212.328 65.8797L200.727 73.493Z" fill="#111111"/>
<path d="M205.979 67.8436C205.241 68.4066 204.229 69.1776 203.15 70.2374C189.677 83.4713 176.332 96.832 162.925 110.132C162.657 110.377 162.427 110.615 162.247 110.832C159.544 114.124 154.795 120.42 155.096 125.537C155.14 126.294 155.413 128.629 157.991 129.394C161.994 130.58 169.055 126.446 173.885 122.545C174.069 122.399 174.263 122.215 174.459 122.004C215.419 81.3801 215.421 81.3773 215.897 80.8185C220.05 75.942 224.385 67.8298 224.218 63.5262C223.965 57.0218 210.289 64.5601 205.979 67.8436Z" fill="#B6F1CF"/>
<path d="M159.532 129.713C158.97 129.713 158.443 129.646 157.959 129.502C155.53 128.782 155.052 126.713 154.983 125.543C154.763 121.801 157.177 116.827 162.16 110.76C162.346 110.535 162.578 110.295 162.849 110.048C167.222 105.71 171.665 101.289 175.961 97.0141C184.827 88.1927 193.995 79.0707 203.07 70.1565C204.154 69.0917 205.169 68.3182 205.911 67.7536L205.98 67.8436L205.911 67.7533C209.284 65.1829 219.309 59.4507 222.961 61.1706C223.826 61.5779 224.287 62.369 224.332 63.5218C224.499 67.852 220.151 75.9994 215.984 80.8921C215.504 81.4558 215.504 81.4558 174.539 122.084C174.339 122.301 174.142 122.487 173.955 122.634C169.685 126.083 163.67 129.712 159.532 129.713ZM221.261 61.0765C219.888 61.0765 217.763 61.5366 214.482 63.0226C211.114 64.5487 207.749 66.6382 206.048 67.9339L206.048 67.9341C205.312 68.4951 204.303 69.2636 203.229 70.3184C194.155 79.2322 184.987 88.3537 176.121 97.1751C171.825 101.45 167.382 105.871 163.005 110.212C162.739 110.456 162.515 110.687 162.335 110.905C157.39 116.926 154.993 121.846 155.209 125.53C155.275 126.64 155.727 128.604 158.023 129.285C159.801 129.812 162.413 129.29 165.579 127.775C168.19 126.526 171.114 124.637 173.814 122.457C173.991 122.316 174.18 122.138 174.376 121.927C215.337 81.3014 215.337 81.3014 215.811 80.7451C219.95 75.8848 224.27 67.8078 224.104 63.5306C224.063 62.4692 223.646 61.7443 222.864 61.3758C222.498 61.2037 221.983 61.0765 221.261 61.0765Z" fill="#111111"/>
<path d="M159.729 114.103C160.842 113.205 162.752 112.912 164.641 113.451C167.021 114.131 169.177 115.956 170.422 118.116C169.047 119.315 167.425 120.692 165.758 122.027C164.75 120.277 163.004 118.798 161.076 118.248C159.546 117.811 157.846 117.89 156.944 118.618C157.727 116.943 158.811 115.478 159.729 114.103Z" fill="#111111"/>
<path d="M165.758 122.14C165.738 122.14 165.718 122.135 165.701 122.125C165.684 122.115 165.669 122.1 165.659 122.083C164.635 120.305 162.867 118.877 161.044 118.357C159.455 117.903 157.836 118.043 157.015 118.706C156.995 118.722 156.97 118.731 156.944 118.731C156.919 118.731 156.894 118.723 156.873 118.707C156.853 118.691 156.839 118.669 156.833 118.644C156.827 118.619 156.83 118.593 156.84 118.569C157.478 117.205 158.3 116 159.095 114.835C159.279 114.566 159.459 114.302 159.634 114.04C159.64 114.03 159.648 114.022 159.657 114.015C160.828 113.07 162.796 112.806 164.672 113.342C166.983 114.002 169.224 115.81 170.52 118.06C170.533 118.082 170.538 118.109 170.533 118.135C170.529 118.161 170.516 118.184 170.496 118.202C168.851 119.636 167.281 120.953 165.829 122.115C165.809 122.131 165.784 122.14 165.758 122.14ZM159.224 117.868C159.825 117.868 160.469 117.956 161.106 118.138C162.944 118.663 164.727 120.082 165.789 121.856C167.189 120.733 168.698 119.467 170.276 118.092C169.002 115.929 166.838 114.196 164.61 113.56C162.81 113.046 160.93 113.29 159.813 114.181C159.641 114.438 159.463 114.698 159.283 114.963C158.566 116.014 157.827 117.098 157.225 118.297C157.75 118.014 158.452 117.868 159.224 117.868ZM181.308 104.633C180.976 105.015 180.993 105.563 181.359 106.307C181.579 106.752 182.122 107.43 182.646 107.351C183.49 107.223 183.604 105.454 182.585 104.69C182.137 104.354 181.612 104.331 181.308 104.633Z" fill="#111111"/>
<path d="M182.561 107.471C182.009 107.471 181.486 106.821 181.258 106.357C180.869 105.568 180.857 104.98 181.222 104.559C181.224 104.557 181.226 104.554 181.228 104.552C181.573 104.21 182.159 104.229 182.653 104.599C183.342 105.116 183.538 106.044 183.374 106.694C183.264 107.131 183.005 107.411 182.663 107.463C182.629 107.468 182.595 107.471 182.561 107.471ZM181.391 104.711C181.096 105.055 181.119 105.561 181.461 106.257C181.682 106.704 182.19 107.306 182.63 107.239C182.876 107.202 183.067 106.983 183.154 106.639C183.296 106.076 183.121 105.233 182.517 104.781C182.117 104.481 181.655 104.453 181.391 104.711ZM183.549 102.411C182.731 103.344 183.953 105.196 184.769 105.162C185.649 105.125 185.954 103.347 184.987 102.505C184.521 102.1 183.903 102.059 183.549 102.411Z" fill="#111111"/>
<path d="M184.745 105.276C184.228 105.276 183.677 104.691 183.395 104.102C183.067 103.419 183.093 102.759 183.463 102.336L183.469 102.33C183.866 101.936 184.551 101.975 185.061 102.419C185.704 102.979 185.815 103.915 185.592 104.55C185.436 104.996 185.137 105.26 184.773 105.276C184.764 105.276 184.754 105.276 184.745 105.276ZM183.631 102.489C183.326 102.841 183.314 103.407 183.6 104.004C183.888 104.605 184.397 105.063 184.764 105.049C185.03 105.038 185.254 104.828 185.378 104.474C185.575 103.912 185.479 103.084 184.912 102.59C184.493 102.226 183.944 102.183 183.631 102.489ZM185.938 100.041C185.064 101.03 186.287 102.882 187.135 102.815C188.059 102.741 188.411 100.944 187.415 100.096C186.945 99.6962 186.31 99.6725 185.938 100.041Z" fill="#111111"/>
<path d="M187.089 102.93C186.581 102.93 186.045 102.388 185.768 101.833C185.414 101.125 185.446 100.427 185.853 99.9661L185.858 99.9607C186.272 99.5499 186.973 99.5712 187.489 100.01C188.144 100.568 188.23 101.48 188.032 102.091C187.873 102.583 187.541 102.896 187.144 102.928C187.126 102.929 187.108 102.93 187.089 102.93ZM186.02 100.119C185.679 100.508 185.661 101.111 185.971 101.732C186.262 102.314 186.76 102.732 187.126 102.702C187.428 102.678 187.686 102.423 187.816 102.021C187.992 101.479 187.918 100.673 187.341 100.183C186.918 99.8221 186.351 99.795 186.02 100.119ZM188.437 97.5627C187.525 98.5903 188.749 100.441 189.62 100.351C190.556 100.254 190.94 98.424 189.943 97.589C189.47 97.1922 188.822 97.1809 188.437 97.5627Z" fill="#111111"/>
<path d="M189.558 100.467C189.104 100.467 188.577 100.048 188.254 99.4187C187.883 98.6964 187.92 97.9744 188.352 97.4872L188.357 97.482C188.784 97.0587 189.497 97.0673 190.016 97.5018C190.656 98.0383 190.747 98.917 190.553 99.55C190.391 100.079 190.047 100.421 189.631 100.464C189.607 100.466 189.582 100.467 189.558 100.467ZM188.519 97.6405C188.154 98.0549 188.13 98.6807 188.456 99.3151C188.746 99.8791 189.242 100.275 189.608 100.238C189.929 100.205 190.202 99.9226 190.336 99.4836C190.508 98.9223 190.431 98.1455 189.87 97.6758C189.443 97.3178 188.863 97.303 188.519 97.6405ZM191.01 95.0101C190.074 96.0625 191.298 97.9128 192.183 97.8079C193.152 97.6933 193.557 95.8721 192.532 95.0206C192.057 94.6257 191.403 94.6212 191.01 95.0101Z" fill="#111111"/>
<path d="M192.112 97.9255C191.659 97.9255 191.139 97.5199 190.818 96.9057C190.437 96.1752 190.477 95.4384 190.926 94.9346C190.927 94.9328 190.929 94.9311 190.931 94.9295C191.365 94.4991 192.085 94.501 192.605 94.9333C193.246 95.4654 193.346 96.3325 193.162 96.9558C192.998 97.5078 192.638 97.8685 192.197 97.9206C192.169 97.9239 192.14 97.9255 192.112 97.9255ZM191.093 95.0881C190.712 95.5186 190.684 96.1587 191.02 96.8008C191.313 97.3633 191.798 97.7397 192.17 97.6953C192.512 97.6549 192.809 97.3468 192.944 96.8915C193.107 96.3396 193.021 95.5741 192.46 95.108C192.031 94.7513 191.444 94.743 191.093 95.0881ZM193.62 92.4219C192.674 93.4844 193.898 95.3341 194.789 95.2232C195.756 95.103 196.165 93.2769 195.145 92.4299C194.669 92.0352 194.014 92.0318 193.62 92.4219Z" fill="#111111"/>
<path d="M194.713 95.3412C194.262 95.3412 193.744 94.941 193.424 94.333C193.039 93.5997 193.08 92.857 193.535 92.3463L193.54 92.3412C193.975 91.9095 194.697 91.9102 195.217 92.3423C195.852 92.8695 195.952 93.7342 195.77 94.3574C195.609 94.9067 195.239 95.2817 194.804 95.3358C194.774 95.3394 194.743 95.3413 194.713 95.3412ZM193.702 92.5C193.315 92.9371 193.286 93.5827 193.625 94.2276C193.918 94.7857 194.402 95.1566 194.776 95.1107C195.12 95.0679 195.417 94.7549 195.552 94.2937C195.713 93.7417 195.628 92.9783 195.072 92.5171C194.643 92.1606 194.055 92.1536 193.702 92.5ZM196.227 89.8361C195.288 90.8915 196.512 92.7409 197.4 92.634C198.36 92.5185 198.76 90.7002 197.744 89.8515C197.27 89.4556 196.618 89.4489 196.227 89.8361Z" fill="#111111"/>
<path d="M197.327 92.752C196.874 92.752 196.355 92.3482 196.034 91.7361C195.652 91.0051 195.692 90.2667 196.142 89.7609C196.144 89.7591 196.145 89.7574 196.147 89.7557C196.58 89.3271 197.297 89.3309 197.817 89.7647C198.454 90.2969 198.553 91.1644 198.368 91.7879C198.205 92.3361 197.849 92.6946 197.414 92.7469C197.385 92.7503 197.356 92.752 197.327 92.752ZM196.31 89.9143C195.927 90.3467 195.899 90.9881 196.236 91.6308C196.529 92.1918 197.013 92.5665 197.386 92.5216C197.729 92.4804 198.014 92.1819 198.15 91.7233C198.314 91.1709 198.229 90.4048 197.671 89.9388C197.243 89.5814 196.659 89.5711 196.31 89.9143ZM198.796 87.2884C197.877 88.3239 199.102 90.1732 199.977 90.0781C200.921 89.9757 201.298 88.179 200.291 87.3254C199.821 86.926 199.178 86.9102 198.796 87.2884Z" fill="#111111"/>
<path d="M199.912 90.1951C199.458 90.1951 198.934 89.7807 198.611 89.1563C198.237 88.4319 198.274 87.7055 198.711 87.2131L198.716 87.2079C199.14 86.7879 199.848 86.8012 200.365 87.2388C201.01 87.7853 201.105 88.6595 200.914 89.2833C200.753 89.8062 200.408 90.1455 199.989 90.191C199.964 90.1937 199.938 90.1951 199.912 90.1951ZM198.878 87.3664C198.509 87.7858 198.484 88.4158 198.813 89.052C199.102 89.6125 199.597 90.0052 199.965 89.9652C200.29 89.9298 200.564 89.6501 200.697 89.2166C200.866 88.6639 200.784 87.8915 200.218 87.4117C199.793 87.052 199.218 87.0328 198.878 87.3664ZM201.288 84.8163C200.406 85.8155 201.63 87.665 202.485 87.5912C203.407 87.5116 203.749 85.7498 202.751 84.886C202.284 84.4825 201.656 84.4525 201.288 84.8163Z" fill="#111111"/>
<path d="M202.434 87.7067C201.928 87.7067 201.394 87.1728 201.117 86.6236C200.758 85.9124 200.791 85.2087 201.203 84.7412L201.209 84.7356C201.618 84.3297 202.313 84.3574 202.825 84.8001C203.482 85.3684 203.571 86.275 203.376 86.8768C203.219 87.3607 202.89 87.67 202.495 87.7041C202.474 87.7059 202.454 87.7068 202.434 87.7067ZM201.371 84.8942C201.025 85.2898 201.005 85.8977 201.32 86.5213C201.611 87.0984 202.105 87.5083 202.475 87.4781C202.776 87.4521 203.032 87.2011 203.16 86.8067C203.333 86.2739 203.255 85.4724 202.677 84.9717C202.257 84.6084 201.696 84.5755 201.371 84.8942ZM203.666 82.4581C202.837 83.4045 204.061 85.2545 204.884 85.2116C205.778 85.165 206.073 83.4516 205.084 82.5718C204.624 82.162 204.014 82.1132 203.666 82.4581Z" fill="#111111"/>
<path d="M204.854 85.3257C204.34 85.3257 203.793 84.7522 203.511 84.1719C203.177 83.4834 203.203 82.8148 203.581 82.3833L203.586 82.3775C203.978 81.9898 204.654 82.037 205.16 82.4869C205.84 83.0923 205.925 84.0089 205.716 84.6043C205.561 85.0429 205.261 85.3055 204.89 85.3248C204.878 85.3254 204.866 85.3257 204.854 85.3257ZM203.749 82.5358C203.436 82.8966 203.423 83.4708 203.715 84.0728C204.004 84.6667 204.517 85.1176 204.878 85.0982C205.152 85.0839 205.379 84.8765 205.501 84.5291C205.692 83.9861 205.584 83.1685 205.009 82.6565C204.595 82.2883 204.054 82.2369 203.749 82.5358Z" fill="#111111"/>
<path d="M208.459 112.84C208.577 115.03 207.745 116.343 207.381 116.806C207.22 117.011 207.22 117.011 198.025 126.131C200.694 123.058 197.093 117.821 193.487 116.881C191.848 116.413 190.431 116.729 189.551 117.601L193.841 113.346C195.418 111.783 196.924 110.148 198.57 108.656C201.802 105.716 208.324 107.452 208.459 112.84Z" fill="#069D6E"/>
<path d="M198.024 126.245C198.003 126.245 197.981 126.239 197.963 126.227C197.945 126.215 197.93 126.198 197.921 126.178C197.912 126.159 197.909 126.137 197.912 126.115C197.915 126.093 197.924 126.073 197.939 126.057C199.085 124.738 198.928 123.179 198.595 122.104C197.869 119.763 195.661 117.565 193.458 116.991C191.912 116.55 190.518 116.802 189.63 117.682C189.62 117.693 189.607 117.701 189.593 117.707C189.58 117.713 189.565 117.716 189.55 117.716C189.534 117.716 189.52 117.713 189.506 117.708C189.492 117.702 189.479 117.693 189.468 117.683C189.458 117.672 189.449 117.659 189.444 117.645C189.438 117.631 189.435 117.616 189.436 117.601C189.436 117.586 189.439 117.571 189.445 117.558C189.451 117.544 189.46 117.531 189.471 117.521L189.473 117.519L193.761 113.265C194.286 112.745 194.812 112.207 195.321 111.687C196.34 110.646 197.394 109.569 198.494 108.572C200.159 107.057 202.797 106.688 205.06 107.654C207.232 108.582 208.512 110.47 208.572 112.836C208.692 115.063 207.842 116.403 207.47 116.876C207.305 117.087 207.305 117.087 198.104 126.212C198.083 126.233 198.054 126.245 198.024 126.245ZM192.018 116.551C192.494 116.551 192.998 116.624 193.518 116.772C195.788 117.363 198.064 119.627 198.811 122.037C199.088 122.929 199.247 124.138 198.706 125.295C207.135 116.936 207.139 116.93 207.292 116.736C207.647 116.283 208.461 114.998 208.345 112.847L208.345 112.845V112.843C208.288 110.569 207.058 108.754 204.97 107.863C202.788 106.932 200.247 107.284 198.646 108.74C197.551 109.733 196.5 110.807 195.483 111.846C194.974 112.367 194.447 112.905 193.921 113.427L190.467 116.852C190.932 116.653 191.456 116.551 192.018 116.551Z" fill="#111111"/>
<path d="M193.833 126.838C190.972 125.991 188.821 123.397 188.602 120.529C188.589 120.115 188.581 119.866 188.656 119.392C189.012 117.272 190.992 116.169 193.487 116.881C196.347 117.698 198.801 120.592 198.967 123.346C199.088 125.359 197.953 126.739 196.216 127.016C195.912 127.057 194.99 127.181 193.833 126.838Z" fill="white"/>
<path d="M195.435 127.185C194.999 127.185 194.435 127.135 193.8 126.947C190.896 126.087 188.712 123.451 188.488 120.537C188.475 120.112 188.467 119.859 188.544 119.374C188.71 118.382 189.215 117.595 190.004 117.097C190.938 116.507 192.186 116.392 193.518 116.772C196.416 117.6 198.911 120.546 199.08 123.339C199.201 125.346 198.084 126.833 196.233 127.128C195.969 127.166 195.702 127.185 195.435 127.185ZM193.865 126.729C194.999 127.065 195.903 126.944 196.2 126.904C197.925 126.629 198.967 125.235 198.854 123.352C198.69 120.648 196.269 117.794 193.455 116.991C192.187 116.628 191.004 116.734 190.126 117.289C189.393 117.751 188.923 118.485 188.768 119.41C188.695 119.873 188.703 120.119 188.715 120.525C188.931 123.342 191.049 125.895 193.865 126.729Z" fill="#111111"/>
<path d="M193.822 125.866C191.521 125.184 189.791 123.097 189.614 120.791C189.604 120.458 189.598 120.257 189.658 119.876C189.944 118.171 191.537 117.284 193.543 117.857C195.844 118.514 197.818 120.842 197.951 123.056C198.049 124.676 197.136 125.786 195.738 126.009C195.495 126.042 194.752 126.141 193.822 125.866Z" fill="#111111"/>
<path d="M195.11 126.167C194.758 126.167 194.302 126.126 193.789 125.975C191.445 125.28 189.681 123.152 189.501 120.799C189.49 120.455 189.484 120.25 189.546 119.858C189.681 119.054 190.09 118.415 190.731 118.011C191.487 117.534 192.497 117.44 193.575 117.748C195.914 118.416 197.929 120.794 198.065 123.05C198.163 124.676 197.257 125.882 195.756 126.121C195.542 126.151 195.327 126.167 195.11 126.167ZM193.854 125.757C194.761 126.025 195.485 125.928 195.723 125.897C197.098 125.677 197.929 124.565 197.838 123.063C197.707 120.896 195.767 118.61 193.512 117.966C192.498 117.676 191.553 117.761 190.852 118.203C190.268 118.572 189.894 119.157 189.77 119.895C189.711 120.265 189.718 120.461 189.727 120.787C189.9 123.043 191.597 125.089 193.854 125.757Z" fill="#111111"/>
<path d="M177.957 114.661L190.326 102.263L248.19 99.7758C248.016 99.9931 244.696 104.121 240.416 105.325C236.139 106.53 180.866 114.254 177.957 114.661Z" fill="#B6F1CF"/>
<path d="M177.957 114.774C177.935 114.774 177.913 114.768 177.894 114.755C177.876 114.743 177.861 114.725 177.852 114.704C177.844 114.684 177.842 114.661 177.846 114.639C177.85 114.617 177.861 114.597 177.877 114.581L190.245 102.183C190.266 102.163 190.293 102.151 190.321 102.15L248.185 99.6628C248.207 99.6619 248.229 99.6672 248.248 99.6783C248.266 99.6893 248.282 99.7055 248.291 99.7249C248.301 99.7444 248.305 99.7663 248.303 99.7879C248.301 99.8096 248.292 99.8302 248.279 99.8472C247.919 100.295 244.641 104.255 240.446 105.435C236.281 106.608 183.929 113.941 177.973 114.773C177.968 114.774 177.962 114.774 177.957 114.774ZM190.375 102.375L178.276 114.502C185.621 113.475 236.302 106.366 240.385 105.216C244.146 104.159 247.165 100.819 247.94 99.9004L190.375 102.375Z" fill="#111111"/>
<path d="M248.19 99.7758L248.511 103.238C248.337 103.455 245.017 107.584 240.737 108.787C236.46 109.992 181.187 117.716 178.278 118.123L177.957 114.661C180.866 114.254 236.139 106.53 240.416 105.325C244.696 104.121 248.016 99.9931 248.19 99.7758Z" fill="#069D6E"/>
<path d="M178.278 118.237C178.25 118.237 178.223 118.226 178.202 118.207C178.181 118.188 178.168 118.162 178.165 118.133L177.844 114.671C177.842 114.642 177.85 114.613 177.868 114.59C177.886 114.567 177.913 114.552 177.942 114.548C183.896 113.716 236.233 106.385 240.385 105.216C244.512 104.055 247.747 100.147 248.102 99.7047C248.116 99.6871 248.135 99.6741 248.157 99.6674C248.178 99.6607 248.201 99.6606 248.223 99.6671C248.245 99.6736 248.264 99.6864 248.278 99.7039C248.292 99.7214 248.301 99.7428 248.303 99.7653L248.625 103.227C248.627 103.257 248.618 103.286 248.6 103.309C248.24 103.757 244.964 107.716 240.768 108.897C236.602 110.07 184.25 117.403 178.294 118.235C178.289 118.236 178.284 118.237 178.278 118.237ZM178.08 114.758L178.381 117.994C184.873 117.087 236.581 109.84 240.706 108.678C244.74 107.544 247.92 103.786 248.394 103.203L248.103 100.06C247.297 101.012 244.249 104.365 240.447 105.434C236.305 106.601 184.528 113.857 178.08 114.758Z" fill="#111111"/>
<path d="M241.321 70.0521L241.456 71.7786L238.21 75.0014L238.075 73.2747L241.321 70.0521Z" fill="#069D6E"/>
<path d="M238.21 75.1148C238.182 75.1148 238.154 75.104 238.133 75.0846C238.112 75.0652 238.099 75.0386 238.097 75.0102L237.962 73.2836C237.961 73.2672 237.963 73.2507 237.969 73.2353C237.975 73.2199 237.984 73.2059 237.995 73.1943L241.241 69.9716C241.256 69.9563 241.276 69.9458 241.297 69.9412C241.318 69.9366 241.34 69.9382 241.36 69.9457C241.381 69.9532 241.398 69.9664 241.411 69.9837C241.424 70.001 241.432 70.0217 241.434 70.0433L241.569 71.77C241.57 71.7864 241.568 71.8029 241.562 71.8183C241.556 71.8337 241.547 71.8477 241.536 71.8593L238.29 75.082C238.269 75.103 238.24 75.1148 238.21 75.1148ZM238.193 73.3182L238.304 74.7479L241.338 71.7352L241.227 70.3053L238.193 73.3182Z" fill="#111111"/>
<path d="M214.889 77.2773L220.376 67.8256L241.321 70.0521L238.075 73.2748L214.889 77.2773Z" fill="#B6F1CF"/>
<path d="M214.889 77.3908C214.869 77.3908 214.85 77.3856 214.832 77.3756C214.815 77.3656 214.801 77.3513 214.791 77.334C214.781 77.3167 214.776 77.2971 214.776 77.2771C214.776 77.2572 214.781 77.2376 214.791 77.2203L220.278 67.7686C220.3 67.7298 220.344 67.7087 220.388 67.7126L241.333 69.9391C241.354 69.9414 241.375 69.9497 241.391 69.963C241.408 69.9763 241.421 69.9941 241.428 70.0143C241.435 70.0346 241.436 70.0564 241.431 70.0773C241.427 70.0982 241.416 70.1173 241.401 70.1325L238.156 73.3551C238.139 73.3715 238.118 73.3825 238.095 73.3865L214.908 77.389C214.902 77.3902 214.896 77.3908 214.889 77.3908ZM220.437 67.9463L215.109 77.1242L238.021 73.1691L241.072 70.1397L220.437 67.9463Z" fill="#111111"/>
<path d="M238.075 73.2747L238.21 75.0014L215.024 79.0039L214.889 77.2772L238.075 73.2747Z" fill="#069D6E"/>
<path d="M215.024 79.1176C214.995 79.1175 214.968 79.1067 214.947 79.0873C214.926 79.0679 214.913 79.0414 214.911 79.0129L214.776 77.2862C214.774 77.2581 214.782 77.2301 214.8 77.2078C214.817 77.1854 214.842 77.1704 214.87 77.1656L238.056 73.1631C238.072 73.1604 238.088 73.161 238.103 73.1648C238.118 73.1686 238.133 73.1756 238.145 73.1853C238.158 73.195 238.168 73.2072 238.175 73.2212C238.183 73.2351 238.187 73.2504 238.189 73.2661L238.324 74.9927C238.326 75.0209 238.317 75.0489 238.3 75.0712C238.283 75.0935 238.258 75.1085 238.23 75.1134L215.043 79.1159C215.037 79.117 215.03 79.1176 215.024 79.1176ZM215.01 77.3717L215.128 78.8711L238.089 74.9073L237.972 73.408L215.01 77.3717Z" fill="#111111"/>
<path d="M213.93 45.3532L212.143 44.9365L217.233 40.034L219.02 40.4507L213.93 45.3532Z" fill="white"/>
<path d="M213.93 45.4666C213.921 45.4666 213.913 45.4656 213.904 45.4637L212.117 45.047C212.097 45.0423 212.079 45.0324 212.064 45.0183C212.05 45.0041 212.039 44.9863 212.034 44.9666C212.028 44.9469 212.028 44.9261 212.034 44.9065C212.039 44.8868 212.05 44.8689 212.064 44.8547L217.154 39.9522C217.168 39.9391 217.185 39.9296 217.203 39.9246C217.221 39.9196 217.241 39.9192 217.259 39.9235L219.046 40.3402C219.066 40.3448 219.084 40.3548 219.099 40.3689C219.113 40.383 219.124 40.4009 219.129 40.4206C219.135 40.4402 219.135 40.461 219.129 40.4807C219.124 40.5004 219.113 40.5183 219.099 40.5324L214.009 45.4349C213.987 45.4555 213.959 45.4666 213.93 45.4666ZM212.372 44.8732L213.896 45.2285L218.791 40.5137L217.268 40.1584L212.372 44.8732Z" fill="#111111"/>
<path d="M213.93 45.3533L219.02 40.4508L217.407 63.2522L205.084 75.1202L213.93 45.3533Z" fill="#B6F1CF"/>
<path d="M205.084 75.2339C205.067 75.2339 205.049 75.2298 205.034 75.2219C205.018 75.2139 205.004 75.2024 204.993 75.1883C204.983 75.1741 204.976 75.1577 204.973 75.1403C204.97 75.1229 204.971 75.105 204.976 75.0881L213.821 45.3212C213.827 45.3024 213.837 45.2853 213.851 45.2717L218.941 40.3692C218.958 40.3533 218.979 40.3428 219.001 40.339C219.024 40.3353 219.047 40.3385 219.068 40.3482C219.089 40.3579 219.106 40.3736 219.118 40.3934C219.129 40.4132 219.135 40.436 219.133 40.4589L217.52 63.2602C217.518 63.2882 217.506 63.3145 217.485 63.334L205.163 75.2022C205.142 75.2226 205.114 75.234 205.084 75.2339ZM214.03 45.4145L205.316 74.7398L217.297 63.201L218.886 40.7378L214.03 45.4145Z" fill="#111111"/>
<path d="M205.084 75.1202L203.298 74.7034L212.143 44.9366L213.93 45.3533L205.084 75.1202Z" fill="white"/>
<path d="M205.084 75.2337C205.076 75.2337 205.067 75.2327 205.059 75.2307L203.272 74.814C203.257 74.8105 203.243 74.804 203.23 74.7948C203.218 74.7856 203.207 74.7739 203.199 74.7606C203.192 74.7472 203.187 74.7324 203.185 74.717C203.183 74.7017 203.184 74.6861 203.189 74.6713L212.034 44.9043C212.042 44.8766 212.061 44.853 212.086 44.8384C212.111 44.8239 212.141 44.8195 212.169 44.8262L213.956 45.2429C213.971 45.2464 213.985 45.2529 213.997 45.2621C214.01 45.2713 214.02 45.2829 214.028 45.2963C214.036 45.3097 214.041 45.3245 214.043 45.3398C214.044 45.3552 214.043 45.3708 214.039 45.3856L205.193 75.1525C205.186 75.176 205.172 75.1965 205.152 75.2111C205.133 75.2258 205.109 75.2337 205.084 75.2337ZM203.441 74.6203L205.006 74.9854L213.787 45.4364L212.221 45.0714L203.441 74.6203Z" fill="#111111"/>
</g>
<g clip-path="url(#clip2_0_7039)">
<path d="M52.6533 47.7952L49.5805 52.1451C50.3425 51.0752 51.4165 50.2697 52.6606 49.847C56.2911 48.5691 60.5878 50.5181 62.2578 54.182C63.3185 56.5302 63.0543 59.0081 61.77 60.8267L64.8332 56.4892C66.1174 54.6706 66.3913 52.1803 65.3209 49.8445C63.662 46.1792 59.3542 44.2316 55.7237 45.5095C54.4906 45.9308 53.4153 46.7253 52.6533 47.7952Z" fill="#111111"/>
<path d="M61.7838 60.9371C61.8168 60.933 61.8374 60.9192 61.8567 60.8944L64.9199 56.5569C66.2799 54.628 66.4713 52.103 65.416 49.799C63.7282 46.0812 59.3627 44.1183 55.6772 45.403C54.4124 45.8394 53.3274 46.6463 52.5462 47.741L49.483 52.0785C49.4445 52.1281 49.4636 52.1931 49.5131 52.2318C49.5626 52.2706 49.6273 52.2514 49.6659 52.2018C50.4182 51.1443 51.4619 50.365 52.695 49.9436C56.2732 48.6946 60.5204 50.6048 62.1506 54.2176C63.1632 56.4483 62.9843 58.8933 61.6725 60.7601C61.634 60.8097 61.6531 60.8746 61.7026 60.9134C61.7287 60.9438 61.7617 60.9398 61.7838 60.9371ZM57.1809 45.2736C60.395 44.8771 63.7976 46.7345 65.2247 49.8787C66.2374 52.1094 66.0585 54.5544 64.7467 56.4212L62.6453 59.4062C63.247 57.7616 63.1611 55.8877 62.3639 54.1352C60.6761 50.4174 56.3106 48.4544 52.625 49.7391C51.8846 49.9875 51.217 50.3727 50.6276 50.8492L52.74 47.8629C53.4923 46.8054 54.536 46.0261 55.7581 45.6061C56.2301 45.4469 56.7076 45.332 57.1809 45.2736Z" fill="#111111"/>
<path d="M40.8067 45.8802L43.8698 41.5426C40.7295 45.9794 40.0815 52.0493 42.6763 57.7753C46.7421 66.7298 70.4476 79.9921 71.6959 80.6906L68.6328 85.0281C67.3844 84.3296 43.6666 71.0577 39.6131 62.1128C37.0073 56.3882 37.6678 50.328 40.8067 45.8802Z" fill="url(#paint0_linear_0_7039)"/>
<path d="M68.648 85.1495C68.681 85.1455 68.7016 85.1317 68.7209 85.1069L71.7841 80.7694C71.8033 80.7446 71.8103 80.7101 71.8062 80.6769C71.8021 80.6438 71.7773 80.6244 71.7526 80.605C69.1969 79.1816 46.7138 66.408 42.7728 57.7409C40.2727 52.2388 40.7143 46.2167 43.9484 41.6338L43.958 41.6214C43.9966 41.5718 43.9774 41.5069 43.9279 41.4681C43.8784 41.4293 43.8137 41.4485 43.7752 41.4981L43.7655 41.5105L40.7024 45.8481C37.4215 50.5041 36.9688 56.6172 39.5004 62.1939C43.4689 70.9025 66.0221 83.7011 68.5792 85.1356C68.6026 85.1439 68.6259 85.1523 68.648 85.1495ZM71.5337 80.733L68.5946 84.8981C65.6649 83.2516 43.5957 70.6625 39.7097 62.0784C37.2095 56.5763 37.6498 50.5432 40.8949 45.9589L42.4547 43.7474C40.4234 48.025 40.4257 53.1173 42.5719 57.833C46.484 66.4475 68.5078 79.031 71.5337 80.733Z" fill="#111111"/>
<path d="M51.3917 35.937C42.5232 39.05 38.6215 48.8192 42.6763 57.7751C46.7311 66.731 70.4477 79.9919 71.696 80.6904C72.0551 79.4346 78.8772 55.4745 74.8114 46.52C70.7456 37.5654 60.2602 32.824 51.3917 35.937ZM61.7531 58.787C58.1226 60.065 53.8258 58.116 52.1558 54.452C50.4859 50.7881 52.0918 46.7762 55.7237 45.5093C59.3555 44.2425 63.6509 46.1804 65.3209 49.8443C66.9909 53.5083 65.3946 57.5078 61.7531 58.787Z" fill="#B6F1CF"/>
<path d="M71.7096 80.8013L71.7426 80.7972C71.7743 80.7821 71.7935 80.7573 71.8115 80.7214C72.5436 78.1409 78.8775 55.2057 74.9174 46.4736C70.8351 37.4763 60.2672 32.7001 51.356 35.8296C47.1571 37.3011 43.9071 40.3043 42.2104 44.305C40.4089 48.543 40.5423 53.3387 42.5703 57.8222C46.5415 66.5529 69.0851 79.3639 71.6408 80.7873C71.6655 80.8067 71.6876 80.804 71.7096 80.8013ZM54.9129 35.2226C62.8269 34.2464 71.2022 38.8219 74.7164 46.5657C78.5846 55.096 72.5169 77.3814 71.6315 80.5305C68.5575 78.8008 46.6532 66.2811 42.7713 57.7301C40.761 53.3005 40.6344 48.56 42.4111 44.3924C44.083 40.4621 47.2821 37.4988 51.4163 36.0466C52.5614 35.6361 53.7351 35.3679 54.9129 35.2226ZM60.3328 59.2319C60.8282 59.1708 61.3057 59.0558 61.7887 58.8952L61.7997 58.8939C63.5351 58.2872 64.8792 57.0446 65.58 55.3877C66.3249 53.6357 66.2694 51.6459 65.4269 49.798C63.7391 46.0802 59.3736 44.1173 55.688 45.402C53.9526 46.0086 52.6085 47.2513 51.9077 48.9081C51.1628 50.6601 51.2183 52.65 52.0609 54.4978C53.5319 57.7264 57.0197 59.6405 60.3328 59.2319ZM61.7284 58.6783C58.1406 59.9398 53.903 58.0171 52.2618 54.4057C51.4481 52.6104 51.3898 50.6882 52.1195 48.9942C52.794 47.3966 54.0982 46.1926 55.7703 45.6162C59.3485 44.3671 63.5958 46.2774 65.2259 49.8901C66.0396 51.6854 66.0979 53.6076 65.3792 55.3003C64.7033 56.8868 63.3992 58.0909 61.7284 58.6783Z" fill="#111111"/>
</g>
<defs>
<linearGradient id="paint0_linear_0_7039" x1="41.0742" y1="52.8519" x2="71.6986" y2="75.6117" gradientUnits="userSpaceOnUse">
<stop stop-color="#36C170"/>
<stop offset="1" stop-color="#111111"/>
</linearGradient>
<clipPath id="clip0_0_7039">
<rect width="168.277" height="168.277" fill="white" transform="translate(36.8081 44.8966)"/>
</clipPath>
<clipPath id="clip1_0_7039">
<rect width="107.322" height="89.7932" fill="white" transform="translate(141.303 39.9206)"/>
</clipPath>
<clipPath id="clip2_0_7039">
<rect width="38.4505" height="51.4558" fill="white" transform="matrix(-0.992478 0.122425 0.122425 0.992478 73.7737 32.6716)"/>
</clipPath>
</defs>
</svg>
