<svg width="274" height="331" viewBox="0 0 274 331" fill="none" xmlns="http://www.w3.org/2000/svg">
<mask id="mask0_0_1982" style="mask-type:luminance" maskUnits="userSpaceOnUse" x="14" y="11" width="246" height="533">
<rect x="14.4711" y="11.8476" width="245.058" height="531.27" rx="31.1778" fill="white"/>
</mask>
<g mask="url(#mask0_0_1982)">
<path d="M230.747 13.0949L43.2525 13.0949C27.357 13.0949 14.4711 25.9808 14.4711 41.8764L14.4711 507.845C14.4711 523.741 27.357 536.627 43.2525 536.627H230.747C246.643 536.627 259.529 523.741 259.529 507.845V41.8764C259.529 25.9808 246.643 13.0949 230.747 13.0949Z" fill="white"/>
<path d="M129.891 256.976C131.044 256.976 132.058 257.23 132.931 257.736C133.823 258.225 134.513 258.934 135.002 259.859C135.508 260.768 135.763 261.825 135.763 263.03C135.763 264.271 135.474 265.38 134.897 266.359C134.342 267.334 133.525 268.133 132.538 268.666C131.543 269.207 130.415 269.478 129.158 269.478C127.864 269.478 126.712 269.199 125.698 268.64C124.702 268.098 123.876 267.29 123.313 266.307C122.754 265.311 122.474 264.193 122.474 262.952C122.474 261.974 122.649 260.995 122.998 260.016C123.348 259.038 123.898 257.998 124.65 256.898L129.263 250.214H133.272L128.318 257.186C128.843 257.046 129.367 256.976 129.891 256.976ZM129.158 266.386C130.171 266.386 130.957 266.089 131.517 265.494C132.093 264.883 132.381 264.07 132.381 263.056C132.381 262.026 132.093 261.214 131.517 260.619C130.957 260.008 130.171 259.702 129.158 259.702C128.145 259.702 127.34 260.008 126.747 260.619C126.169 261.214 125.881 262.026 125.881 263.056C125.881 264.07 126.169 264.883 126.747 265.494C127.34 266.089 128.144 266.386 129.158 266.386ZM138.141 259.44C138.141 256.418 138.682 254.05 139.765 252.337C140.867 250.625 142.684 249.769 145.217 249.769C147.751 249.769 149.56 250.625 150.642 252.337C151.744 254.05 152.294 256.418 152.294 259.44C152.294 262.48 151.744 264.865 150.642 266.595C149.56 268.325 147.751 269.19 145.217 269.19C142.684 269.19 140.867 268.325 139.765 266.595C138.682 264.865 138.141 262.48 138.141 259.44ZM148.677 259.44C148.677 258.147 148.589 257.064 148.415 256.19C148.257 255.299 147.926 254.574 147.419 254.015C146.93 253.455 146.196 253.176 145.217 253.176C144.239 253.176 143.496 253.455 142.99 254.015C142.501 254.574 142.168 255.299 141.993 256.19C141.836 257.064 141.757 258.147 141.757 259.44C141.757 260.768 141.836 261.886 141.993 262.794C142.15 263.686 142.483 264.411 142.99 264.97C143.496 265.511 144.238 265.783 145.217 265.783C146.196 265.783 146.939 265.511 147.445 264.97C147.952 264.411 148.284 263.686 148.441 262.794C148.598 261.886 148.677 260.768 148.677 259.44ZM153.024 240.176C153.024 239.73 153.152 239.382 153.409 239.13C153.672 238.874 154.008 238.745 154.418 238.745C154.827 238.745 155.161 238.874 155.417 239.13C155.68 239.382 155.812 239.73 155.812 240.176C155.812 240.623 155.68 240.975 155.417 241.231C155.161 241.488 154.827 241.616 154.418 241.616C154.008 241.616 153.672 241.488 153.409 241.231C153.152 240.975 153.024 240.623 153.024 240.176ZM158.619 238.865L154.959 245.249H153.932L157.592 238.865H158.619ZM154.418 239.379C154.033 239.379 153.84 239.645 153.84 240.176C153.84 240.715 154.033 240.984 154.418 240.984C154.601 240.984 154.742 240.92 154.84 240.791C154.944 240.657 154.995 240.452 154.995 240.176C154.995 239.645 154.803 239.379 154.418 239.379ZM156.757 243.929C156.757 243.482 156.885 243.133 157.143 242.883C157.406 242.626 157.741 242.497 158.152 242.497C158.555 242.497 158.885 242.626 159.142 242.883C159.405 243.133 159.536 243.482 159.536 243.929C159.536 244.375 159.405 244.726 159.142 244.983C158.885 245.241 158.555 245.369 158.152 245.369C157.741 245.369 157.406 245.241 157.143 244.983C156.885 244.726 156.757 244.375 156.757 243.929ZM158.142 243.13C157.757 243.13 157.565 243.396 157.565 243.929C157.565 244.461 157.757 244.726 158.142 244.726C158.527 244.726 158.72 244.46 158.72 243.929C158.72 243.397 158.527 243.13 158.142 243.13Z" fill="#069D6E"/>
<path d="M138.639 317.779C171.751 317.779 198.593 290.936 198.593 257.825C198.593 224.713 171.751 197.871 138.639 197.871C105.527 197.871 78.6852 224.713 78.6852 257.825C78.6852 290.936 105.527 317.779 138.639 317.779Z" stroke="#1B8037" stroke-width="3.27578"/>
<path d="M138.638 197.858C138.638 196.96 139.366 196.23 140.265 196.253C149.169 196.489 157.924 198.653 165.923 202.605C174.407 206.797 181.811 212.888 187.561 220.404C193.311 227.92 197.25 236.662 199.074 245.948C200.9 255.234 200.56 264.815 198.083 273.948C195.605 283.082 191.056 291.522 184.788 298.613C178.522 305.704 170.705 311.255 161.945 314.836C153.185 318.417 143.718 319.931 134.279 319.262C125.38 318.63 116.732 316.074 108.928 311.777C108.141 311.343 107.882 310.346 108.335 309.57C108.79 308.795 109.784 308.537 110.572 308.97C117.949 313.018 126.115 315.423 134.509 316.018C143.45 316.653 152.418 315.218 160.715 311.826C169.012 308.435 176.417 303.176 182.353 296.46C188.289 289.743 192.598 281.749 194.944 273.097C197.291 264.446 197.612 255.371 195.884 246.575C194.155 237.779 190.423 229.5 184.978 222.38C179.531 215.26 172.518 209.491 164.482 205.52C156.932 201.79 148.669 199.741 140.264 199.507C139.366 199.482 138.638 198.756 138.638 197.858Z" fill="white"/>
<path d="M138.639 317.779C171.751 317.779 198.593 290.936 198.593 257.825C198.593 224.713 171.751 197.871 138.639 197.871C105.527 197.871 78.6852 224.713 78.6852 257.825C78.6852 290.936 105.527 317.779 138.639 317.779Z" stroke="#D7DBE0" stroke-width="3.27578"/>
<path d="M138.638 197.858C138.638 196.96 139.366 196.23 140.265 196.253C149.169 196.489 157.924 198.653 165.923 202.605C174.407 206.797 181.811 212.888 187.561 220.404C193.311 227.92 197.25 236.662 199.074 245.948C200.9 255.234 200.56 264.815 198.083 273.948C195.605 283.082 191.056 291.522 184.788 298.613C178.522 305.704 170.705 311.255 161.945 314.836C153.185 318.417 143.718 319.931 134.279 319.262C125.38 318.63 116.732 316.074 108.928 311.777C108.141 311.343 107.882 310.346 108.335 309.57C108.79 308.795 109.784 308.537 110.572 308.97C117.949 313.018 126.115 315.423 134.509 316.018C143.45 316.653 152.418 315.218 160.715 311.826C169.012 308.435 176.417 303.176 182.353 296.46C188.289 289.743 192.598 281.749 194.944 273.097C197.291 264.446 197.612 255.371 195.884 246.575C194.155 237.779 190.423 229.5 184.978 222.38C179.531 215.26 172.518 209.491 164.482 205.52C156.932 201.79 148.669 199.741 140.264 199.507C139.366 199.482 138.638 198.756 138.638 197.858Z" fill="#069D6E"/>
<path d="M35.2964 84.8312H30.9251L30.2022 86.9232H27.8909L31.8382 75.9315H34.4017L38.349 86.9232H36.0212L35.2983 84.8312H35.2964ZM34.6987 83.0701L33.1103 78.4786L31.5218 83.0701H34.6987ZM44.6502 78.0846C45.6884 78.0846 46.5268 78.4145 47.1662 79.0753C47.8057 79.7254 48.1259 80.6375 48.1259 81.8116V86.9222H45.9242V82.1104C45.9242 81.4186 45.7515 80.8888 45.4051 80.5221C45.0597 80.1446 44.5871 79.9564 43.9894 79.9564C43.381 79.9564 42.8988 80.1446 42.5427 80.5221C42.1963 80.8888 42.0236 81.4186 42.0236 82.1104V86.9222H39.8219V78.2098H42.0236V79.2946C42.3176 78.9172 42.6892 78.6231 43.1404 78.4136C43.6013 78.1933 44.1049 78.0846 44.6502 78.0846ZM49.6531 82.5355C49.6531 81.6544 49.8259 80.8733 50.1723 80.1921C50.5284 79.511 51.0058 78.986 51.6035 78.6193C52.2119 78.2525 52.8882 78.0691 53.6324 78.0691C54.2825 78.0691 54.8482 78.2001 55.3304 78.4621C55.8234 78.7241 56.2163 79.0549 56.5103 79.4528V78.2108H58.7275V86.9232H56.5094V85.6492C56.226 86.0577 55.8331 86.3983 55.3295 86.6709C54.8366 86.9329 54.265 87.0639 53.6149 87.0639C52.8814 87.0639 52.2099 86.8747 51.6015 86.4982C51.0038 86.1208 50.5274 85.591 50.1703 84.9098C49.8239 84.218 49.6512 83.4262 49.6512 82.5355H49.6531ZM56.5094 82.5665C56.5094 82.0319 56.4046 81.5758 56.195 81.1984C55.9854 80.8102 55.7021 80.5172 55.346 80.3173C54.9899 80.1077 54.6066 80.0029 54.1981 80.0029C53.7896 80.0029 53.4121 80.1029 53.0657 80.3018C52.7193 80.5007 52.437 80.7947 52.2167 81.1828C52.0071 81.5603 51.9023 82.0115 51.9023 82.5355C51.9023 83.0594 52.0071 83.5213 52.2167 83.9191C52.437 84.3072 52.7203 84.6061 53.0657 84.8157C53.4218 85.0253 53.7993 85.1301 54.1981 85.1301C54.6066 85.1301 54.9899 85.0301 55.346 84.8312C55.7021 84.6216 55.9854 84.3276 56.195 83.9502C56.4046 83.562 56.5094 83.1011 56.5094 82.5665ZM63.0784 75.2853V86.9222H60.8768V75.2862L63.0784 75.2853ZM73.5879 78.2098L68.1939 91.0422H65.8506L67.7379 86.702L64.2467 78.2098H66.7151L68.9643 84.2956L71.2446 78.2098H73.5879ZM76.787 85.1136H80.6712V86.9222H74.2865V85.1456L78.0921 80.0194H74.302V78.2108H80.6236V79.9874L76.787 85.1136ZM83.4928 77.1725C83.1047 77.1725 82.7797 77.0522 82.5177 76.8106C82.3948 76.6899 82.2979 76.5454 82.2329 76.3859C82.168 76.2263 82.1365 76.0552 82.1402 75.883C82.1402 75.5162 82.2664 75.2125 82.5177 74.9709C82.7797 74.7196 83.1047 74.5934 83.4928 74.5934C83.881 74.5934 84.2002 74.7196 84.4525 74.9709C84.5801 75.0854 84.6814 75.2262 84.7492 75.3837C84.8171 75.5412 84.8499 75.7116 84.8455 75.883C84.8455 76.2498 84.7145 76.5593 84.4525 76.8106C84.2012 77.0512 83.881 77.1725 83.4928 77.1725ZM84.5777 78.2108V86.9232H82.376V78.2108H84.5777ZM91.5804 78.0846C92.6187 78.0846 93.457 78.4145 94.0964 79.0753C94.7359 79.7254 95.0561 80.6375 95.0561 81.8116V86.9222H92.8544V82.1104C92.8544 81.4186 92.6817 80.8888 92.3353 80.5221C91.9899 80.1446 91.5173 79.9564 90.9206 79.9564C90.3122 79.9564 89.83 80.1446 89.4739 80.5221C89.1275 80.8888 88.9547 81.4186 88.9547 82.1104V86.9222H86.7541V78.2098H88.9557V79.2946C89.2514 78.9154 89.6342 78.6132 90.0716 78.4136C90.5335 78.1933 91.0361 78.0837 91.5814 78.0837L91.5804 78.0846ZM100.562 78.0691C101.212 78.0691 101.783 78.2001 102.276 78.4621C102.769 78.7134 103.157 79.0443 103.44 79.4528V78.2108H105.657V86.9853C105.657 87.7926 105.495 88.5106 105.17 89.1394C104.845 89.7783 104.336 90.3045 103.707 90.6492C103.057 91.0267 102.271 91.2149 101.349 91.2149C100.111 91.2149 99.0945 90.9267 98.2979 90.3504C97.511 89.774 97.0656 88.9871 96.9608 87.9915H99.1469C99.2624 88.3903 99.5089 88.7047 99.8863 88.9347C100.273 89.1763 100.74 89.2966 101.285 89.2966C101.925 89.2966 102.444 89.1025 102.842 88.7144C103.241 88.337 103.44 87.7606 103.44 86.9843V85.6317C103.157 86.0402 102.763 86.3808 102.261 86.6535C101.768 86.9261 101.201 87.062 100.562 87.062C99.8281 87.062 99.1576 86.8728 98.5492 86.4963C97.9408 86.1198 97.4586 85.589 97.1025 84.9079C96.7561 84.216 96.5834 83.4243 96.5834 82.5335C96.5834 81.6525 96.7561 80.8714 97.1025 80.1902C97.4586 79.509 97.936 78.9841 98.5337 78.6173C99.1411 78.2505 99.8174 78.0671 100.562 78.0671V78.0691ZM103.44 82.5665C103.44 82.0319 103.335 81.5758 103.125 81.1984C102.916 80.8102 102.632 80.5172 102.276 80.3173C101.92 80.1077 101.537 80.0029 101.128 80.0029C100.72 80.0029 100.342 80.1029 99.996 80.3018C99.6496 80.5007 99.3672 80.7947 99.1469 81.1828C98.9373 81.5603 98.8325 82.0115 98.8325 82.5355C98.8325 83.0594 98.9373 83.5213 99.1469 83.9191C99.3672 84.3072 99.6496 84.6061 99.996 84.8157C100.352 85.0253 100.729 85.1301 101.128 85.1301C101.537 85.1301 101.92 85.0301 102.276 84.8312C102.634 84.62 102.927 84.3154 103.125 83.9502C103.335 83.562 103.44 83.1011 103.44 82.5665ZM112.671 77.1725C112.283 77.1725 111.958 77.0522 111.696 76.8106C111.573 76.6899 111.476 76.5454 111.411 76.3859C111.346 76.2263 111.315 76.0552 111.319 75.883C111.319 75.5162 111.445 75.2125 111.696 74.9709C111.958 74.7196 112.283 74.5934 112.671 74.5934C113.059 74.5934 113.379 74.7196 113.63 74.9709C113.758 75.0853 113.859 75.2261 113.927 75.3836C113.995 75.5411 114.028 75.7115 114.024 75.883C114.027 76.0566 113.994 76.229 113.926 76.3889C113.858 76.5488 113.757 76.6925 113.63 76.8106C113.379 77.0512 113.059 77.1725 112.671 77.1725ZM113.756 78.2108V86.9232H111.554V78.2108H113.756ZM120.759 78.0846C121.797 78.0846 122.635 78.4145 123.275 79.0753C123.914 79.7254 124.234 80.6375 124.234 81.8116V86.9222H122.033V82.1104C122.033 81.4186 121.86 80.8888 121.514 80.5221C121.168 80.1446 120.696 79.9564 120.099 79.9564C119.491 79.9564 119.008 80.1446 118.652 80.5221C118.306 80.8888 118.133 81.4186 118.133 82.1104V86.9222H115.931V78.2098H118.133V79.2946C118.426 78.9172 118.799 78.6231 119.249 78.4136C119.711 78.1933 120.213 78.0846 120.759 78.0846ZM132.276 79.4683C132.56 79.0695 132.948 78.7396 133.441 78.4776C133.943 78.2049 134.515 78.0691 135.154 78.0691C135.899 78.0691 136.57 78.2525 137.168 78.6193C137.775 78.986 138.253 79.51 138.598 80.1921C138.955 80.8626 139.133 81.6437 139.133 82.5355C139.133 83.4272 138.955 84.218 138.598 84.9098C138.253 85.591 137.775 86.1208 137.168 86.4982C136.57 86.8757 135.899 87.0639 135.154 87.0639C134.515 87.0639 133.949 86.9329 133.456 86.6709C132.974 86.4089 132.581 86.0781 132.276 85.6802V91.0742H130.075V78.2108H132.276V79.4683ZM136.884 82.5345C136.884 82.0105 136.774 81.5593 136.554 81.1819C136.362 80.8122 136.067 80.5061 135.704 80.3008C135.359 80.1019 134.982 80.002 134.572 80.002C134.174 80.002 133.797 80.1068 133.441 80.3163C133.083 80.5274 132.789 80.832 132.591 81.1974C132.381 81.5855 132.276 82.0416 132.276 82.5655C132.276 83.0895 132.381 83.5455 132.591 83.9337C132.811 84.3218 133.094 84.6207 133.441 84.8302C133.797 85.0292 134.174 85.1291 134.572 85.1291C134.982 85.1291 135.359 85.0243 135.704 84.8147C136.062 84.6051 136.344 84.3063 136.554 83.9182C136.774 83.53 136.884 83.0691 136.884 82.5345ZM142.934 79.5624C143.204 79.114 143.583 78.7409 144.036 78.4776C144.496 78.2156 145.02 78.0846 145.608 78.0846V80.3959H145.026C144.334 80.3959 143.81 80.5579 143.453 80.883C143.107 81.2081 142.934 81.7738 142.934 82.5811V86.9213H140.733V78.2088H142.934V79.5624ZM150.959 87.0639C150.12 87.0639 149.366 86.8805 148.695 86.5137C148.024 86.1363 147.495 85.6065 147.107 84.9253C146.729 84.2442 146.54 83.4572 146.54 82.5665C146.54 81.6757 146.734 80.8888 147.122 80.2077C147.521 79.5265 148.06 79.0016 148.742 78.6348C149.424 78.2573 150.184 78.0691 151.022 78.0691C151.86 78.0691 152.621 78.2573 153.302 78.6348C153.976 78.9946 154.533 79.5405 154.906 80.2077C155.305 80.8888 155.504 81.6757 155.504 82.5665C155.504 83.4572 155.299 84.2442 154.891 84.9253C154.503 85.596 153.937 86.1459 153.256 86.5137C152.573 86.8805 151.809 87.0639 150.959 87.0639ZM150.959 85.1456C151.358 85.1456 151.73 85.0515 152.076 84.8623C152.432 84.6634 152.715 84.3693 152.925 83.9812C153.134 83.5931 153.239 83.1215 153.239 82.5655C153.239 81.7369 153.019 81.1033 152.579 80.6627C152.377 80.4442 152.131 80.2709 151.858 80.1543C151.584 80.0377 151.288 79.9805 150.991 79.9864C150.693 79.9805 150.398 80.0377 150.124 80.1543C149.85 80.2709 149.604 80.4442 149.402 80.6627C148.983 81.1033 148.774 81.7369 148.774 82.5655C148.774 83.3942 148.977 84.0336 149.387 84.4838C149.806 84.9244 150.33 85.1456 150.959 85.1456ZM156.553 82.5665C156.553 81.6651 156.736 80.8791 157.103 80.2077C157.47 79.5265 157.978 79.0016 158.628 78.6348C159.278 78.2573 160.022 78.0691 160.862 78.0691C161.942 78.0691 162.833 78.3417 163.535 78.8871C164.248 79.4217 164.725 80.1766 164.966 81.1518H162.591C162.466 80.7743 162.25 80.4813 161.947 80.2707C161.653 80.0505 161.286 79.9408 160.845 79.9408C160.217 79.9408 159.719 80.1718 159.352 80.6327C158.985 81.0839 158.802 81.7281 158.802 82.5665C158.802 83.3951 158.985 84.0394 159.352 84.5003C159.719 84.9515 160.217 85.1766 160.845 85.1766C161.737 85.1766 162.318 84.7778 162.591 83.9812H164.966C164.725 84.9244 164.248 85.6744 163.535 86.2304C162.822 86.7864 161.931 87.0639 160.862 87.0639C160.022 87.0639 159.278 86.8805 158.628 86.5137C157.978 86.1363 157.47 85.6123 157.103 84.9409C156.736 84.2597 156.553 83.4679 156.553 82.5665ZM174.677 82.3773C174.677 82.6917 174.657 82.975 174.614 83.2263H168.246C168.298 83.8551 168.519 84.348 168.906 84.7041C169.293 85.0602 169.771 85.2387 170.337 85.2387C171.155 85.2387 171.737 84.8875 172.083 84.185H174.457C174.206 85.0233 173.723 85.7152 173.01 86.2605C172.298 86.7951 171.423 87.0629 170.384 87.0629C169.546 87.0629 168.791 86.8795 168.12 86.5128C167.463 86.1391 166.924 85.5888 166.563 84.9244C166.196 84.2432 166.012 83.4563 166.012 82.5655C166.012 81.6641 166.196 80.8723 166.563 80.1912C166.931 79.51 167.443 78.9851 168.104 78.6183C168.765 78.2515 169.525 78.0681 170.384 78.0681C171.212 78.0681 171.952 78.2467 172.602 78.6028C173.262 78.9589 173.771 79.4673 174.127 80.1281C174.494 80.7782 174.677 81.5283 174.677 82.3773ZM172.397 81.7485C172.387 81.1828 172.182 80.7316 171.784 80.3959C171.386 80.0495 170.898 79.8768 170.321 79.8768C169.776 79.8768 169.315 80.0447 168.938 80.3804C168.571 80.7054 168.345 81.1615 168.261 81.7485H172.397ZM179.618 87.0639C178.906 87.0639 178.265 86.9378 177.7 86.6865C177.134 86.4245 176.683 86.0732 176.347 85.6327C176.022 85.1922 175.844 84.7051 175.812 84.1704H178.03C178.072 84.5062 178.234 84.7837 178.518 85.0039C178.811 85.2242 179.173 85.3338 179.602 85.3338C180.022 85.3338 180.347 85.2494 180.578 85.0825C180.818 84.9147 180.94 84.7002 180.94 84.4373C180.94 84.1539 180.792 83.9443 180.499 83.8085C180.216 83.662 179.76 83.5048 179.131 83.3369C178.481 83.1797 177.946 83.0177 177.527 82.8498C177.115 82.6803 176.749 82.4164 176.458 82.0794C176.164 81.733 176.017 81.2672 176.017 80.6802C176.017 80.198 176.153 79.7574 176.426 79.3596C176.709 78.9618 177.108 78.6464 177.621 78.4165C178.145 78.1855 178.758 78.071 179.461 78.071C180.499 78.071 181.327 78.333 181.946 78.857C182.564 79.3703 182.904 80.0679 182.968 80.949H180.861C180.851 80.7889 180.807 80.6328 180.731 80.4915C180.655 80.3503 180.549 80.2273 180.42 80.131C180.168 79.9214 179.828 79.8166 179.398 79.8166C179 79.8166 178.69 79.8904 178.47 80.0369C178.261 80.1834 178.156 80.3881 178.156 80.6501C178.156 80.9432 178.302 81.1692 178.596 81.3264C178.889 81.473 179.345 81.6253 179.964 81.7825C180.593 81.9397 181.112 82.1017 181.521 82.2696C181.932 82.4389 182.295 82.7092 182.575 83.0555C182.878 83.4019 183.035 83.8628 183.046 84.4392C183.052 84.9237 182.904 85.3975 182.622 85.7918C182.349 86.1897 181.951 86.505 181.427 86.735C180.913 86.9552 180.31 87.0639 179.618 87.0639ZM188.188 87.0639C187.475 87.0639 186.835 86.9378 186.269 86.6865C185.703 86.4245 185.252 86.0732 184.917 85.6327C184.598 85.209 184.412 84.7 184.382 84.1704H186.599C186.619 84.3353 186.673 84.4944 186.756 84.6377C186.84 84.7811 186.953 84.9057 187.087 85.0039C187.38 85.2242 187.741 85.3338 188.171 85.3338C188.591 85.3338 188.917 85.2494 189.146 85.0825C189.388 84.9147 189.508 84.7002 189.508 84.4373C189.508 84.1539 189.362 83.9443 189.068 83.8085C188.785 83.662 188.329 83.5048 187.7 83.3369C187.05 83.1797 186.515 83.0177 186.096 82.8498C185.684 82.68 185.318 82.4162 185.027 82.0794C184.733 81.733 184.586 81.2672 184.586 80.6802C184.583 80.2083 184.726 79.7471 184.995 79.3596C185.278 78.9618 185.677 78.6464 186.19 78.4165C186.715 78.1855 187.328 78.071 188.031 78.071C189.068 78.071 189.897 78.333 190.515 78.857C191.134 79.3703 191.474 80.0679 191.537 80.949H189.43C189.399 80.6026 189.251 80.3299 188.989 80.131C188.738 79.9214 188.397 79.8166 187.968 79.8166C187.569 79.8166 187.259 79.8904 187.04 80.0369C186.829 80.1834 186.725 80.3881 186.725 80.6501C186.725 80.9432 186.872 81.1692 187.165 81.3264C187.459 81.473 187.915 81.6253 188.533 81.7825C189.162 81.9397 189.681 82.1017 190.091 82.2696C190.5 82.4374 190.85 82.6994 191.144 83.0555C191.448 83.4019 191.605 83.8628 191.616 84.4392C191.616 84.9428 191.474 85.393 191.191 85.7918C190.918 86.1897 190.52 86.505 189.995 86.735C189.482 86.9552 188.88 87.0639 188.188 87.0639Z" fill="#2A3033"/>
<path d="M27.8739 101.867C27.8739 101.243 28.0146 100.684 28.296 100.188C28.5645 99.6998 28.961 99.2939 29.4429 99.0141C29.9319 98.7327 30.4734 98.592 31.0662 98.592C31.7629 98.592 32.3723 98.7608 32.8914 99.0965C33.4105 99.4323 33.7909 99.9097 34.0286 100.528H33.0292C32.8516 100.143 32.5955 99.8456 32.2588 99.638C31.9288 99.4303 31.531 99.3265 31.0662 99.3265C30.6199 99.3265 30.2191 99.4303 29.865 99.638C29.5076 99.8488 29.218 100.158 29.0305 100.528C28.8287 100.907 28.7278 101.353 28.7278 101.867C28.7278 102.374 28.8287 102.822 29.0305 103.207C29.2323 103.585 29.5108 103.879 29.865 104.087C30.2191 104.295 30.6199 104.399 31.0662 104.399C31.531 104.399 31.9288 104.298 32.2588 104.097C32.5955 103.888 32.8516 103.592 33.0292 103.207H34.0286C33.7899 103.818 33.4105 104.292 32.8914 104.628C32.3713 104.958 31.7629 105.123 31.0662 105.123C30.4984 105.13 29.9387 104.988 29.4429 104.711C28.9597 104.429 28.5774 104.041 28.296 103.545C28.0146 103.05 27.8739 102.491 27.8739 101.867ZM37.7672 99.9494C38.1466 99.9494 38.4891 100.033 38.7948 100.198C39.1004 100.357 39.3391 100.599 39.5099 100.923C39.6875 101.247 39.7758 101.641 39.7758 102.105V105.069H38.95V102.225C38.95 101.723 38.8249 101.341 38.5736 101.078C38.3232 100.809 37.9807 100.674 37.546 100.674C37.1055 100.674 36.7542 100.812 36.4913 101.088C36.2341 101.362 36.106 101.763 36.106 102.289V105.069H35.2716V98.2805H36.106V100.757C36.271 100.501 36.4971 100.302 36.7853 100.161C37.0924 100.017 37.4281 99.9447 37.7672 99.9494ZM45.7267 102.363C45.7267 102.522 45.718 102.69 45.6995 102.867H41.6815C41.7125 103.362 41.8804 103.751 42.186 104.032C42.4985 104.307 42.874 104.445 43.3145 104.445C43.6755 104.445 43.9753 104.362 44.213 104.197C44.4575 104.026 44.6293 103.8 44.7263 103.518H45.6248C45.49 104.001 45.2212 104.395 44.8175 104.702C44.4139 105.001 43.9122 105.151 43.3135 105.151C42.8646 105.159 42.4215 105.048 42.0288 104.83C41.6553 104.616 41.3622 104.313 41.1478 103.922C40.9334 103.524 40.8266 103.066 40.8266 102.546C40.8266 102.026 40.9304 101.571 41.1391 101.179C41.3477 100.787 41.6378 100.488 42.0104 100.28C42.3898 100.066 42.8235 99.9591 43.3135 99.9591C43.7909 99.9591 44.2121 100.063 44.5798 100.271C44.9387 100.471 45.2319 100.77 45.424 101.133C45.6258 101.494 45.7267 101.904 45.7267 102.363ZM44.8641 102.188C44.8641 101.87 44.7942 101.598 44.6526 101.372C44.5119 101.139 44.3198 100.965 44.0743 100.849C43.8356 100.727 43.5697 100.666 43.2767 100.666C42.8546 100.666 42.4936 100.8 42.1938 101.069C41.9008 101.338 41.7319 101.712 41.6892 102.188H44.8641ZM46.5165 102.546C46.5165 102.026 46.6204 101.574 46.828 101.189C47.0357 100.797 47.3239 100.494 47.6906 100.28C48.0632 100.066 48.4882 99.9591 48.9656 99.9591C49.5827 99.9591 50.0912 100.109 50.488 100.408C50.8917 100.708 51.1576 101.124 51.2856 101.656H50.3871C50.3017 101.351 50.1339 101.109 49.8826 100.931C49.6381 100.754 49.3324 100.666 48.9656 100.666C48.4882 100.666 48.103 100.83 47.81 101.16C47.516 101.484 47.3695 101.946 47.3695 102.546C47.3695 103.151 47.516 103.619 47.81 103.949C48.104 104.279 48.4892 104.445 48.9656 104.445C49.3324 104.445 49.6381 104.36 49.8826 104.188C50.1271 104.016 50.295 103.772 50.3871 103.454H51.2856C51.165 103.947 50.8803 104.383 50.4783 104.692C50.0747 104.998 49.5701 105.151 48.9647 105.151C48.4873 105.151 48.0623 105.045 47.6897 104.83C47.322 104.615 47.0229 104.3 46.8271 103.922C46.6194 103.531 46.5165 103.072 46.5165 102.546ZM55.2077 105.069L53.235 102.849V105.069H52.4005V98.2805H53.235V102.27L55.1708 100.042H56.3361L53.9695 102.546L56.3458 105.069H55.2077ZM57.5529 99.2256C57.3938 99.2256 57.2599 99.1703 57.1493 99.0597C57.0386 98.949 56.9843 98.8151 56.9843 98.656C56.983 98.5811 56.997 98.5066 57.0253 98.4372C57.0537 98.3679 57.0958 98.3049 57.1493 98.2524C57.2599 98.1427 57.3938 98.0874 57.5529 98.0874C57.7062 98.0874 57.8343 98.1427 57.9381 98.2524C57.9915 98.3049 58.0337 98.3679 58.0621 98.4372C58.0904 98.5066 58.1044 98.5811 58.1031 98.656C58.1031 98.8151 58.0478 98.95 57.9381 99.0597C57.8343 99.1703 57.7052 99.2256 57.5529 99.2256ZM57.9566 100.042V105.069H57.1221V100.042H57.9566ZM61.8281 99.9494C62.4394 99.9494 62.9352 100.137 63.3146 100.509C63.694 100.876 63.8832 101.409 63.8832 102.105V105.069H63.0575V102.225C63.0575 101.723 62.9323 101.341 62.681 101.078C62.4307 100.809 62.0882 100.674 61.6535 100.674C61.2129 100.674 60.8617 100.812 60.5987 101.088C60.3416 101.362 60.2135 101.763 60.2135 102.289V105.069H59.379V100.042H60.2135V100.757C60.3782 100.501 60.6097 100.295 60.883 100.161C61.1702 100.02 61.4856 99.9494 61.8281 99.9494ZM67.3201 99.9591C67.7548 99.9591 68.1332 100.054 68.4573 100.243C68.7872 100.433 69.0317 100.671 69.1909 100.959V100.042H70.035V105.178C70.035 105.637 69.937 106.044 69.741 106.399C69.545 106.754 69.2636 107.04 68.8968 107.242C68.5359 107.444 68.1138 107.545 67.6306 107.545C66.9698 107.545 66.4196 107.39 65.9791 107.077C65.7664 106.932 65.5869 106.743 65.4525 106.523C65.318 106.304 65.2316 106.058 65.199 105.802H66.0247C66.1159 106.108 66.3061 106.353 66.5933 106.536C66.8805 106.726 67.226 106.82 67.6296 106.82C68.0886 106.82 68.4612 106.677 68.7484 106.389C69.0414 106.102 69.1889 105.699 69.1889 105.178V104.124C69.024 104.418 68.7794 104.662 68.4554 104.857C68.1313 105.052 67.7519 105.151 67.3181 105.151C66.8718 105.151 66.4652 105.041 66.0985 104.82C65.7375 104.601 65.4532 104.292 65.2456 103.895C65.0379 103.498 64.9341 103.045 64.9341 102.536C64.9341 102.023 65.0379 101.574 65.2456 101.189C65.4532 100.797 65.7375 100.494 66.0985 100.28C66.4652 100.066 66.8718 99.9591 67.3181 99.9591H67.3201ZM69.1918 102.546C69.1918 102.167 69.1152 101.837 68.9628 101.555C68.8105 101.274 68.6019 101.059 68.3389 100.913C68.0809 100.76 67.7859 100.681 67.486 100.684C67.1736 100.684 66.8893 100.757 66.6331 100.904C66.3769 101.052 66.1712 101.265 66.0189 101.546C65.8666 101.826 65.7899 102.158 65.7899 102.536C65.7899 102.922 65.8666 103.258 66.0189 103.545C66.1722 103.827 66.3769 104.044 66.6331 104.197C66.8902 104.344 67.1745 104.418 67.486 104.418C67.7975 104.418 68.0818 104.344 68.3389 104.197C68.6019 104.044 68.8095 103.827 68.9628 103.545C69.1161 103.258 69.1918 102.925 69.1918 102.546ZM78.2216 100.042L75.1942 107.435H74.3316L75.3223 105.014L73.2953 100.042H74.2219L75.7997 104.115L77.359 100.042H78.2216ZM81.2528 105.151C80.7822 105.151 80.3534 105.045 79.9681 104.83C79.5898 104.617 79.2783 104.302 79.0687 103.922C78.8542 103.524 78.7475 103.066 78.7475 102.546C78.7475 102.032 78.8571 101.58 79.0774 101.189C79.3035 100.791 79.6091 100.488 79.9943 100.28C80.3796 100.066 80.8104 99.9591 81.2878 99.9591C81.7652 99.9591 82.196 100.066 82.5812 100.28C82.9644 100.486 83.2798 100.798 83.4894 101.179C83.7155 101.571 83.829 102.026 83.829 102.546C83.829 103.066 83.7126 103.524 83.4807 103.922C83.2624 104.305 82.9415 104.62 82.554 104.83C82.163 105.045 81.7293 105.151 81.2528 105.151ZM81.2528 104.418C81.5527 104.418 81.8341 104.347 82.097 104.206C82.36 104.066 82.5705 103.855 82.7297 103.574C82.8946 103.292 82.9771 102.95 82.9771 102.546C82.9771 102.142 82.8975 101.8 82.7384 101.518C82.596 101.254 82.3791 101.037 82.1145 100.895C81.8588 100.754 81.5716 100.682 81.28 100.684C80.9853 100.681 80.6946 100.753 80.4358 100.895C80.1766 101.038 79.9659 101.255 79.8304 101.518C79.677 101.8 79.6014 102.142 79.6014 102.546C79.6014 102.955 79.6751 103.301 79.8216 103.582C79.974 103.864 80.1758 104.075 80.4271 104.216C80.6812 104.351 80.9651 104.42 81.2528 104.418ZM89.387 100.042V105.069H88.5515V104.326C88.3924 104.583 88.1692 104.785 87.882 104.931C87.6006 105.072 87.2892 105.142 86.9466 105.142C86.5812 105.147 86.2196 105.066 85.8919 104.904C85.5804 104.738 85.332 104.493 85.1486 104.169C84.9711 103.845 84.8828 103.451 84.8828 102.987V100.042H85.7085V102.876C85.7085 103.372 85.8337 103.754 86.085 104.023C86.3353 104.286 86.6779 104.418 87.1126 104.418C87.5589 104.418 87.9111 104.28 88.1673 104.004C88.4235 103.729 88.5525 103.329 88.5525 102.803V100.042H89.387ZM91.6313 100.858C91.7699 100.579 91.9863 100.346 92.2543 100.188C92.5298 100.029 92.8636 99.9494 93.2546 99.9494V100.812H93.0344C92.099 100.812 91.6313 101.32 91.6313 102.334V105.069H90.7959V100.042H91.6313V100.858ZM96.3519 102.536C96.3519 102.023 96.4557 101.574 96.6634 101.189C96.872 100.797 97.1563 100.494 97.5172 100.28C97.884 100.066 98.2906 99.9591 98.7369 99.9591C99.1775 99.9591 99.5598 100.054 99.8838 100.243C100.208 100.433 100.45 100.671 100.609 100.959V100.042H101.452V105.069H100.609V104.132C100.443 104.426 100.195 104.671 99.8654 104.867C99.5413 105.056 99.1619 105.151 98.7282 105.151C98.2809 105.151 97.8782 105.041 97.5172 104.82C97.1563 104.6 96.872 104.292 96.6634 103.895C96.4547 103.498 96.3519 103.045 96.3519 102.536ZM100.609 102.546C100.609 102.167 100.532 101.837 100.379 101.555C100.225 101.274 100.018 101.059 99.7548 100.913C99.4986 100.761 99.2143 100.684 98.9019 100.684C98.5894 100.684 98.3061 100.757 98.049 100.904C97.7875 101.055 97.5745 101.278 97.4348 101.546C97.2814 101.827 97.2048 102.158 97.2048 102.536C97.2048 102.922 97.2814 103.258 97.4348 103.545C97.5758 103.815 97.7883 104.041 98.049 104.197C98.3061 104.344 98.5904 104.418 98.9019 104.418C99.2007 104.421 99.495 104.345 99.7548 104.197C100.018 104.044 100.226 103.827 100.379 103.545C100.532 103.258 100.609 102.925 100.609 102.546ZM105.312 99.9494C105.924 99.9494 106.419 100.137 106.798 100.509C107.178 100.876 107.367 101.409 107.367 102.105V105.069H106.541V102.225C106.541 101.723 106.416 101.341 106.166 101.078C105.914 100.809 105.572 100.674 105.138 100.674C104.698 100.674 104.346 100.812 104.083 101.088C103.826 101.362 103.698 101.763 103.698 102.289V105.069H102.863V100.042H103.698V100.757C103.863 100.501 104.086 100.302 104.368 100.161C104.662 100.018 104.985 99.9461 105.312 99.9494ZM110.51 105.151C110.125 105.151 109.779 105.087 109.473 104.958C109.168 104.824 108.926 104.641 108.749 104.408C108.572 104.171 108.47 103.887 108.456 103.592H109.317C109.342 103.842 109.458 104.047 109.667 104.206C109.875 104.365 110.158 104.445 110.501 104.445C110.819 104.445 111.07 104.374 111.253 104.233C111.436 104.093 111.529 103.916 111.529 103.702C111.533 103.601 111.507 103.501 111.455 103.414C111.403 103.328 111.326 103.259 111.235 103.216C111.04 103.106 110.737 102.998 110.326 102.894C110.015 102.816 109.709 102.718 109.409 102.601C109.177 102.497 108.976 102.347 108.804 102.151C108.639 101.949 108.557 101.686 108.557 101.362C108.556 101.108 108.636 100.861 108.785 100.656C108.939 100.442 109.155 100.274 109.437 100.151C109.718 100.023 110.039 99.9591 110.4 99.9591C110.957 99.9591 111.406 100.1 111.749 100.381C112.091 100.663 112.275 101.048 112.299 101.537H111.465C111.446 101.274 111.338 101.063 111.143 100.904C110.948 100.745 110.697 100.666 110.373 100.666C110.073 100.666 109.834 100.73 109.657 100.858C109.479 100.986 109.391 101.155 109.391 101.362C109.391 101.528 109.443 101.665 109.547 101.776C109.665 101.885 109.802 101.971 109.951 102.032C110.174 102.112 110.4 102.182 110.629 102.243C110.99 102.341 111.284 102.439 111.51 102.536C111.736 102.628 111.929 102.769 112.088 102.958C112.253 103.149 112.339 103.396 112.345 103.702C112.345 103.977 112.268 104.225 112.116 104.445C111.95 104.675 111.725 104.856 111.465 104.968C111.189 105.09 110.871 105.151 110.51 105.151ZM120.22 100.042L118.651 105.069H117.789L116.578 101.078L115.367 105.069H114.505L112.927 100.042H113.78L114.936 104.262L116.183 100.042H117.037L118.257 104.27L119.394 100.042H120.22ZM125.635 102.363C125.635 102.522 125.625 102.69 125.607 102.867H121.59C121.62 103.362 121.788 103.751 122.094 104.032C122.406 104.307 122.782 104.445 123.222 104.445C123.583 104.445 123.883 104.362 124.121 104.197C124.361 104.032 124.541 103.794 124.635 103.518H125.534C125.399 104.001 125.13 104.395 124.727 104.702C124.323 105.001 123.821 105.151 123.222 105.151C122.773 105.159 122.331 105.048 121.938 104.83C121.565 104.616 121.271 104.313 121.057 103.922C120.844 103.524 120.736 103.066 120.736 102.546C120.736 102.026 120.841 101.571 121.048 101.179C121.256 100.787 121.547 100.488 121.92 100.28C122.299 100.066 122.733 99.9591 123.222 99.9591C123.699 99.9591 124.121 100.063 124.488 100.271C124.855 100.478 125.136 100.766 125.332 101.133C125.538 101.51 125.642 101.933 125.635 102.363ZM124.772 102.188C124.772 101.87 124.703 101.598 124.562 101.372C124.426 101.144 124.224 100.962 123.984 100.849C123.745 100.727 123.479 100.666 123.186 100.666C122.764 100.666 122.403 100.8 122.103 101.069C121.81 101.338 121.641 101.712 121.599 102.188H124.772ZM127.572 100.858C127.718 100.57 127.926 100.347 128.196 100.188C128.465 100.029 128.804 99.9494 129.195 99.9494V100.812H128.975C128.039 100.812 127.572 101.32 127.572 102.334V105.069H126.736V100.042H127.572V100.858ZM131.938 105.151C131.553 105.151 131.208 105.087 130.902 104.958C130.596 104.824 130.355 104.641 130.177 104.408C129.999 104.169 129.901 103.898 129.884 103.592H130.746C130.77 103.842 130.886 104.047 131.094 104.206C131.308 104.365 131.587 104.445 131.929 104.445C132.248 104.445 132.498 104.374 132.681 104.233C132.865 104.093 132.957 103.916 132.957 103.702C132.961 103.601 132.936 103.501 132.883 103.414C132.831 103.328 132.754 103.259 132.663 103.216C132.467 103.106 132.164 102.998 131.755 102.894C131.443 102.816 131.137 102.718 130.838 102.601C130.605 102.497 130.403 102.347 130.232 102.151C130.067 101.949 129.985 101.686 129.985 101.362C129.985 101.106 130.061 100.87 130.214 100.656C130.367 100.441 130.584 100.274 130.865 100.151C131.146 100.023 131.468 99.9591 131.829 99.9591C132.385 99.9591 132.835 100.1 133.177 100.381C133.52 100.663 133.703 101.048 133.727 101.537H132.892C132.887 101.415 132.856 101.295 132.801 101.186C132.745 101.077 132.667 100.981 132.572 100.904C132.382 100.745 132.124 100.666 131.8 100.666C131.502 100.666 131.263 100.73 131.085 100.858C130.908 100.986 130.819 101.155 130.819 101.362C130.819 101.528 130.871 101.665 130.976 101.776C131.094 101.885 131.23 101.971 131.379 102.032C131.602 102.112 131.829 102.182 132.058 102.243C132.418 102.341 132.712 102.439 132.939 102.536C133.165 102.628 133.357 102.769 133.516 102.958C133.681 103.149 133.767 103.396 133.773 103.702C133.773 103.977 133.696 104.225 133.544 104.445C133.392 104.665 133.173 104.839 132.892 104.968C132.617 105.09 132.299 105.151 131.938 105.151ZM137.085 102.536C137.085 102.023 137.19 101.574 137.397 101.189C137.605 100.797 137.889 100.494 138.25 100.28C138.617 100.066 139.027 99.9591 139.479 99.9591C139.87 99.9591 140.234 100.05 140.571 100.235C140.908 100.411 141.164 100.647 141.341 100.94V98.2805H142.186V105.069H141.341V104.124C141.177 104.424 140.932 104.671 140.608 104.867C140.284 105.056 139.904 105.151 139.47 105.151C139.023 105.151 138.617 105.041 138.25 104.82C137.886 104.597 137.59 104.276 137.397 103.895C137.19 103.497 137.085 103.045 137.085 102.536ZM141.341 102.546C141.341 102.167 141.265 101.837 141.112 101.555C140.971 101.286 140.754 101.063 140.489 100.913C140.231 100.761 139.947 100.684 139.636 100.684C139.324 100.684 139.039 100.757 138.782 100.904C138.525 101.052 138.321 101.265 138.168 101.546C138.014 101.826 137.939 102.158 137.939 102.536C137.939 102.922 138.014 103.258 138.168 103.545C138.321 103.827 138.526 104.044 138.782 104.197C139.039 104.344 139.323 104.418 139.636 104.418C139.948 104.418 140.231 104.344 140.489 104.197C140.753 104.042 140.969 103.817 141.112 103.545C141.265 103.258 141.341 102.925 141.341 102.546ZM143.284 102.536C143.284 102.023 143.388 101.574 143.596 101.189C143.804 100.797 144.088 100.494 144.449 100.28C144.816 100.066 145.223 99.9591 145.669 99.9591C146.11 99.9591 146.492 100.054 146.816 100.243C147.14 100.433 147.382 100.671 147.541 100.959V100.042H148.385V105.069H147.541V104.132C147.376 104.426 147.127 104.671 146.798 104.867C146.473 105.056 146.094 105.151 145.66 105.151C145.234 105.156 144.814 105.042 144.449 104.82C144.085 104.597 143.79 104.276 143.596 103.895C143.388 103.497 143.284 103.045 143.284 102.536ZM147.541 102.546C147.541 102.167 147.464 101.837 147.312 101.555C147.17 101.286 146.953 101.063 146.688 100.913C146.431 100.761 146.146 100.684 145.834 100.684C145.522 100.684 145.238 100.757 144.981 100.904C144.724 101.052 144.519 101.265 144.367 101.546C144.215 101.826 144.137 102.158 144.137 102.536C144.137 102.922 144.214 103.258 144.367 103.545C144.519 103.827 144.725 104.044 144.981 104.197C145.238 104.344 145.523 104.418 145.834 104.418C146.146 104.418 146.431 104.344 146.688 104.197C146.952 104.042 147.169 103.817 147.312 103.545C147.464 103.258 147.541 102.925 147.541 102.546ZM150.814 100.73V103.693C150.814 103.937 150.865 104.111 150.97 104.216C151.074 104.313 151.254 104.362 151.51 104.362H152.126V105.069H151.374C150.909 105.069 150.559 104.961 150.328 104.748C150.096 104.534 149.979 104.182 149.979 103.693V100.73H149.327V100.042H149.979V98.7754H150.814V100.042H152.126V100.73H150.813H150.814ZM152.825 102.536C152.825 102.023 152.929 101.574 153.137 101.189C153.344 100.797 153.629 100.494 153.99 100.28C154.36 100.065 154.782 99.9543 155.21 99.9591C155.651 99.9591 156.032 100.054 156.356 100.243C156.68 100.433 156.922 100.671 157.081 100.959V100.042H157.925V105.069H157.081V104.132C156.916 104.426 156.669 104.671 156.339 104.867C156.015 105.056 155.635 105.151 155.2 105.151C154.774 105.156 154.354 105.042 153.99 104.82C153.625 104.597 153.33 104.276 153.137 103.895C152.929 103.497 152.825 103.045 152.825 102.536ZM157.081 102.546C157.081 102.167 157.005 101.837 156.852 101.555C156.71 101.286 156.494 101.063 156.228 100.913C155.971 100.761 155.687 100.684 155.375 100.684C155.076 100.68 154.782 100.756 154.522 100.904C154.261 101.056 154.047 101.278 153.907 101.546C153.755 101.827 153.678 102.158 153.678 102.536C153.678 102.922 153.755 103.258 153.907 103.545C154.049 103.815 154.262 104.04 154.522 104.197C154.782 104.345 155.076 104.421 155.375 104.418C155.687 104.418 155.971 104.344 156.228 104.197C156.493 104.042 156.709 103.817 156.852 103.545C157.005 103.258 157.081 102.925 157.081 102.546ZM160.199 103.913L159.171 106.381H158.611L159.281 103.913H160.199ZM164.435 100.968C164.6 100.681 164.844 100.442 165.169 100.252C165.498 100.057 165.881 99.9591 166.315 99.9591C166.762 99.9591 167.165 100.066 167.526 100.28C167.893 100.494 168.18 100.797 168.388 101.189C168.597 101.574 168.7 102.023 168.7 102.536C168.7 103.045 168.597 103.497 168.388 103.895C168.193 104.278 167.895 104.599 167.526 104.82C167.162 105.042 166.742 105.156 166.315 105.151C165.888 105.151 165.508 105.056 165.178 104.867C164.874 104.691 164.619 104.442 164.435 104.142V107.454H163.6V100.042H164.435V100.968ZM167.848 102.536C167.848 102.158 167.771 101.827 167.618 101.546C167.464 101.264 167.257 101.051 166.994 100.904C166.734 100.756 166.44 100.68 166.141 100.684C165.835 100.684 165.551 100.761 165.288 100.913C165.031 101.059 164.823 101.277 164.664 101.564C164.512 101.845 164.435 102.172 164.435 102.546C164.435 102.925 164.512 103.258 164.664 103.545C164.823 103.827 165.031 104.044 165.288 104.197C165.551 104.344 165.835 104.418 166.141 104.418C166.44 104.421 166.734 104.345 166.994 104.197C167.257 104.044 167.465 103.827 167.618 103.545C167.771 103.258 167.848 102.922 167.848 102.536ZM170.634 98.2805V105.069H169.799V98.2805H170.634ZM176.643 102.363C176.643 102.522 176.634 102.69 176.615 102.867H172.598C172.628 103.362 172.796 103.751 173.103 104.032C173.414 104.307 173.791 104.445 174.23 104.445C174.591 104.445 174.891 104.362 175.13 104.197C175.374 104.026 175.545 103.8 175.643 103.518H176.543C176.408 104.001 176.139 104.395 175.735 104.702C175.332 105.001 174.83 105.151 174.23 105.151C173.782 105.159 173.339 105.048 172.947 104.83C172.573 104.616 172.28 104.313 172.066 103.922C171.852 103.524 171.744 103.066 171.744 102.546C171.744 102.026 171.849 101.571 172.057 101.179C172.264 100.787 172.556 100.488 172.928 100.28C173.308 100.066 173.741 99.9591 174.23 99.9591C174.708 99.9591 175.13 100.063 175.497 100.271C175.863 100.478 176.145 100.766 176.341 101.133C176.547 101.51 176.651 101.933 176.643 102.363ZM175.781 102.188C175.781 101.87 175.711 101.598 175.57 101.372C175.434 101.144 175.233 100.962 174.992 100.849C174.753 100.727 174.487 100.666 174.194 100.666C173.772 100.666 173.411 100.8 173.112 101.069C172.818 101.338 172.65 101.712 172.607 102.188H175.781ZM177.433 102.536C177.433 102.023 177.537 101.574 177.745 101.189C177.953 100.797 178.238 100.494 178.599 100.28C178.965 100.066 179.372 99.9591 179.818 99.9591C180.259 99.9591 180.641 100.054 180.965 100.243C181.289 100.433 181.531 100.671 181.69 100.959V100.042H182.533V105.069H181.69V104.132C181.524 104.426 181.277 104.671 180.947 104.867C180.623 105.056 180.243 105.151 179.81 105.151C179.362 105.151 178.959 105.041 178.599 104.82C178.239 104.6 177.953 104.292 177.745 103.895C177.536 103.498 177.433 103.045 177.433 102.536ZM181.69 102.546C181.69 102.167 181.613 101.837 181.46 101.555C181.307 101.274 181.099 101.059 180.836 100.913C180.58 100.761 180.296 100.684 179.983 100.684C179.671 100.684 179.388 100.757 179.13 100.904C178.869 101.055 178.656 101.278 178.516 101.546C178.363 101.827 178.286 102.158 178.286 102.536C178.286 102.922 178.363 103.258 178.516 103.545C178.657 103.815 178.87 104.041 179.13 104.197C179.388 104.344 179.672 104.418 179.983 104.418C180.282 104.421 180.576 104.345 180.836 104.197C181.099 104.044 181.308 103.827 181.46 103.545C181.613 103.258 181.69 102.925 181.69 102.546ZM185.724 105.151C185.338 105.151 184.993 105.087 184.687 104.958C184.382 104.824 184.14 104.641 183.963 104.408C183.785 104.169 183.687 103.898 183.67 103.592H184.531C184.555 103.842 184.672 104.047 184.88 104.206C185.094 104.365 185.372 104.445 185.715 104.445C186.033 104.445 186.284 104.374 186.467 104.233C186.65 104.093 186.742 103.916 186.742 103.702C186.747 103.601 186.721 103.501 186.669 103.414C186.616 103.328 186.54 103.259 186.449 103.216C186.253 103.106 185.95 102.998 185.54 102.894C185.229 102.816 184.923 102.718 184.623 102.601C184.39 102.497 184.189 102.347 184.018 102.151C183.853 101.949 183.77 101.686 183.77 101.362C183.77 101.106 183.846 100.87 183.999 100.656C184.153 100.441 184.369 100.274 184.65 100.151C184.932 100.023 185.253 99.9591 185.614 99.9591C186.17 99.9591 186.62 100.1 186.962 100.381C187.303 100.663 187.489 101.048 187.513 101.537H186.677C186.673 101.415 186.641 101.295 186.586 101.186C186.531 101.077 186.453 100.981 186.357 100.904C186.167 100.745 185.91 100.666 185.586 100.666C185.287 100.666 185.048 100.73 184.871 100.858C184.693 100.986 184.605 101.155 184.605 101.362C184.605 101.528 184.656 101.665 184.761 101.776C184.879 101.885 185.016 101.971 185.165 102.032C185.388 102.112 185.614 102.182 185.843 102.243C186.204 102.341 186.498 102.439 186.724 102.536C186.95 102.628 187.142 102.769 187.301 102.958C187.466 103.149 187.553 103.396 187.559 103.702C187.559 103.977 187.482 104.225 187.33 104.445C187.177 104.665 186.959 104.839 186.677 104.968C186.403 105.09 186.085 105.151 185.724 105.151ZM193.323 102.363C193.323 102.522 193.314 102.69 193.296 102.867H189.278C189.309 103.362 189.477 103.751 189.782 104.032C190.095 104.307 190.47 104.445 190.911 104.445C191.272 104.445 191.572 104.362 191.81 104.197C192.055 104.026 192.226 103.8 192.324 103.518H193.222C193.094 103.992 192.81 104.409 192.415 104.702C192.012 105.001 191.511 105.151 190.911 105.151C190.434 105.151 190.006 105.045 189.626 104.83C189.254 104.616 188.949 104.301 188.746 103.922C188.532 103.524 188.425 103.066 188.425 102.546C188.425 102.026 188.529 101.571 188.736 101.179C188.944 100.787 189.235 100.488 189.609 100.28C189.987 100.066 190.422 99.9591 190.911 99.9591C191.388 99.9591 191.81 100.063 192.177 100.271C192.544 100.478 192.825 100.766 193.02 101.133C193.226 101.51 193.331 101.933 193.323 102.363ZM192.462 102.188C192.462 101.87 192.391 101.598 192.25 101.372C192.109 101.139 191.917 100.965 191.673 100.849C191.434 100.727 191.168 100.666 190.874 100.666C190.475 100.657 190.088 100.801 189.792 101.069C189.498 101.338 189.33 101.712 189.288 102.188H192.462ZM203.568 100.042L201.999 105.069H201.136L199.926 101.078L198.715 105.069H197.853L196.275 100.042H197.128L198.283 104.262L199.531 100.042H200.384L201.605 104.27L202.742 100.042H203.568ZM204.084 102.536C204.084 102.023 204.188 101.574 204.396 101.189C204.604 100.797 204.888 100.494 205.249 100.28C205.616 100.066 206.023 99.9591 206.469 99.9591C206.91 99.9591 207.292 100.054 207.616 100.243C207.94 100.433 208.182 100.671 208.341 100.959V100.042H209.185V105.069H208.341V104.132C208.176 104.426 207.927 104.671 207.597 104.867C207.273 105.056 206.894 105.151 206.46 105.151C206.034 105.156 205.614 105.042 205.249 104.82C204.885 104.597 204.59 104.276 204.396 103.895C204.188 103.497 204.084 103.045 204.084 102.536ZM208.341 102.546C208.341 102.167 208.264 101.837 208.111 101.555C207.97 101.285 207.753 101.062 207.488 100.913C207.231 100.761 206.946 100.684 206.634 100.684C206.322 100.684 206.038 100.757 205.781 100.904C205.52 101.055 205.307 101.278 205.167 101.546C205.014 101.827 204.937 102.158 204.937 102.536C204.937 102.922 205.014 103.258 205.167 103.545C205.308 103.815 205.52 104.041 205.781 104.197C206.038 104.344 206.322 104.418 206.634 104.418C206.945 104.418 207.231 104.344 207.488 104.197C207.752 104.043 207.968 103.817 208.111 103.545C208.264 103.258 208.341 102.925 208.341 102.546ZM211.027 99.2256C210.867 99.2256 210.733 99.1703 210.623 99.0597C210.513 98.949 210.458 98.8151 210.458 98.656C210.458 98.4969 210.512 98.363 210.623 98.2524C210.734 98.1417 210.867 98.0874 211.027 98.0874C211.179 98.0874 211.308 98.1427 211.412 98.2524C211.465 98.3049 211.507 98.3679 211.536 98.4372C211.564 98.5066 211.578 98.5811 211.577 98.656C211.577 98.8151 211.521 98.95 211.412 99.0597C211.308 99.1703 211.179 99.2256 211.027 99.2256ZM211.43 100.042V105.069H210.595V100.042H211.43ZM213.871 100.73V103.693C213.871 103.937 213.923 104.111 214.027 104.216C214.131 104.313 214.311 104.362 214.568 104.362H215.182V105.069H214.43C213.966 105.069 213.617 104.961 213.384 104.748C213.152 104.534 213.036 104.182 213.036 103.693V100.73H212.385V100.042H213.036V98.7754H213.871V100.042H215.182V100.73H213.871ZM216.46 105.123C216.301 105.123 216.166 105.069 216.057 104.958C215.947 104.848 215.892 104.714 215.892 104.555C215.892 104.395 215.946 104.262 216.057 104.151C216.167 104.04 216.301 103.986 216.46 103.986C216.613 103.986 216.742 104.041 216.846 104.151C216.899 104.203 216.941 104.266 216.969 104.336C216.998 104.405 217.012 104.48 217.01 104.555C217.01 104.714 216.955 104.849 216.846 104.958C216.742 105.069 216.613 105.123 216.46 105.123ZM29.0033 112.259V116.305C29.0033 116.874 29.1411 117.296 29.4157 117.57C29.6971 117.846 30.0852 117.984 30.5811 117.984C31.0701 117.984 31.4524 117.846 31.728 117.57C32.0094 117.296 32.1501 116.874 32.1501 116.305V112.259H32.9845V116.295C32.9845 116.827 32.8778 117.277 32.6634 117.644C32.4605 117.995 32.1569 118.276 31.792 118.451C31.4115 118.633 30.994 118.724 30.5723 118.717C30.1476 118.724 29.7271 118.633 29.343 118.451C28.9817 118.274 28.6814 117.993 28.4803 117.644C28.2727 117.277 28.1689 116.827 28.1689 116.295V112.259H29.0033ZM36.1565 118.736C35.7713 118.736 35.4259 118.672 35.1202 118.543C34.8146 118.414 34.573 118.225 34.3954 117.992C34.2178 117.754 34.1198 117.482 34.1014 117.176H34.964C34.9882 117.427 35.1047 117.631 35.3123 117.791C35.5268 117.95 35.8043 118.029 36.1468 118.029C36.4651 118.029 36.7154 117.958 36.8988 117.818C37.0822 117.677 37.1744 117.5 37.1744 117.286C37.1786 117.185 37.1531 117.085 37.101 116.999C37.0489 116.912 36.9725 116.843 36.8813 116.8C36.6853 116.69 36.3826 116.583 35.9731 116.479C35.6005 116.381 35.2939 116.283 35.0562 116.186C34.8243 116.081 34.6224 115.931 34.4507 115.735C34.2857 115.534 34.2033 115.271 34.2033 114.947C34.2033 114.69 34.2799 114.455 34.4323 114.24C34.5846 114.026 34.8019 113.858 35.0833 113.736C35.3647 113.608 35.6859 113.544 36.0469 113.544C36.6028 113.544 37.0531 113.684 37.3956 113.966C37.7381 114.247 37.9215 114.632 37.9458 115.121H37.1113C37.1062 114.999 37.0749 114.879 37.0195 114.77C36.9641 114.661 36.8859 114.565 36.7901 114.489C36.6009 114.329 36.3438 114.25 36.0197 114.25C35.7199 114.25 35.4812 114.314 35.3046 114.442C35.128 114.57 35.0387 114.739 35.0387 114.947C35.0387 115.113 35.0911 115.249 35.1949 115.36C35.313 115.469 35.4497 115.556 35.5986 115.616C35.7635 115.678 35.9896 115.748 36.2778 115.828C36.5778 115.905 36.8721 116.003 37.1588 116.121C37.3849 116.213 37.578 116.354 37.7371 116.543C37.9021 116.733 37.9875 116.98 37.9943 117.286C37.9975 117.552 37.9174 117.812 37.7653 118.029C37.612 118.25 37.3956 118.423 37.1142 118.552C36.8386 118.675 36.5213 118.736 36.1604 118.736H36.1565ZM43.6279 113.626V118.653H42.7935V117.91C42.6343 118.167 42.4112 118.369 42.1239 118.515C41.8425 118.656 41.5311 118.726 41.1886 118.726C40.8231 118.732 40.4615 118.65 40.1338 118.488C39.8224 118.322 39.574 118.078 39.3906 117.754C39.213 117.43 39.1247 117.036 39.1247 116.571V113.626H39.9504V116.46C39.9504 116.956 40.0756 117.338 40.3269 117.607C40.5773 117.87 40.9198 118.002 41.3545 118.002C41.8008 118.002 42.1521 117.864 42.4092 117.589C42.6663 117.313 42.7944 116.913 42.7944 116.388V113.626H43.6279ZM44.7254 116.121C44.7254 115.607 44.8292 115.158 45.0368 114.773C45.2445 114.381 45.5288 114.078 45.8897 113.865C46.2565 113.65 46.6631 113.544 47.1094 113.544C47.5499 113.544 47.9322 113.639 48.2563 113.828C48.5587 113.996 48.8094 114.243 48.9811 114.543V113.626H49.8253V118.653H48.9811V117.717C48.8162 118.011 48.5688 118.255 48.2379 118.451C47.9138 118.641 47.5344 118.736 47.1007 118.736C46.6543 118.736 46.2507 118.625 45.8897 118.405C45.5288 118.185 45.2445 117.876 45.0368 117.479C44.8292 117.082 44.7254 116.629 44.7254 116.121ZM48.9821 116.13C48.9821 115.751 48.9055 115.421 48.7531 115.14C48.6008 114.858 48.3922 114.644 48.1292 114.497C47.8712 114.344 47.5762 114.265 47.2763 114.268C46.9648 114.268 46.6805 114.341 46.4234 114.489C46.1663 114.636 45.9615 114.85 45.8092 115.13C45.6568 115.41 45.5802 115.742 45.5802 116.121C45.5802 116.507 45.6568 116.843 45.8092 117.13C45.9615 117.411 46.1672 117.629 46.4234 117.782C46.6805 117.928 46.9648 118.002 47.2763 118.002C47.5878 118.002 47.8721 117.928 48.1292 117.782C48.3922 117.629 48.5998 117.411 48.7531 117.13C48.9064 116.843 48.9821 116.51 48.9821 116.13ZM52.0716 111.865V118.653H51.2371V111.865H52.0716ZM54.3295 111.865V118.653H53.4951V111.865H54.3295ZM60.0825 113.626L57.0551 121.02H56.1925L57.1832 118.598L55.1562 113.626H56.0829L57.6606 117.699L59.2199 113.626H60.0825ZM64.3859 114.314V117.277C64.3859 117.522 64.4383 117.696 64.5421 117.8C64.6459 117.897 64.8264 117.947 65.0835 117.947H65.6977V118.653H64.9457C64.4809 118.653 64.1326 118.546 63.8997 118.332C63.6669 118.119 63.5514 117.766 63.5514 117.277V114.314H62.9003V113.626H63.5514V112.36H64.3859V113.626H65.6977V114.314H64.3859ZM69.2044 113.534C69.5838 113.534 69.9263 113.617 70.232 113.782C70.5376 113.941 70.7764 114.183 70.9471 114.507C71.1247 114.831 71.213 115.225 71.213 115.69V118.653H70.3873V115.809C70.3873 115.308 70.2621 114.925 70.0108 114.662C69.7604 114.394 69.4179 114.259 68.9832 114.259C68.5427 114.259 68.1914 114.396 67.9285 114.672C67.6713 114.947 67.5433 115.347 67.5433 115.873V118.653H66.7088V111.865H67.5433V114.341C67.7082 114.085 67.9343 113.886 68.2225 113.745C68.5293 113.602 68.8657 113.529 69.2044 113.534ZM72.2648 116.121C72.2648 115.607 72.3686 115.158 72.5773 114.773C72.7849 114.381 73.0692 114.078 73.4302 113.865C73.7969 113.65 74.2035 113.544 74.6498 113.544C75.0904 113.544 75.4727 113.639 75.7968 113.828C76.1208 114.017 76.3624 114.256 76.5216 114.543V113.626H77.3658V118.653H76.5216V117.717C76.3566 118.011 76.1092 118.255 75.7783 118.451C75.4542 118.641 75.0748 118.736 74.6411 118.736C74.1948 118.736 73.7911 118.625 73.4302 118.405C73.0692 118.185 72.7849 117.876 72.5773 117.479C72.3696 117.082 72.2648 116.629 72.2648 116.121ZM76.5216 116.13C76.5216 115.751 76.4449 115.421 76.2926 115.14C76.1402 114.858 75.9316 114.644 75.6687 114.497C75.4107 114.344 75.1157 114.265 74.8158 114.268C74.5043 114.268 74.22 114.341 73.9629 114.489C73.7057 114.636 73.501 114.85 73.3487 115.13C73.1963 115.41 73.1197 115.742 73.1197 116.121C73.1197 116.507 73.1963 116.843 73.3487 117.13C73.502 117.411 73.7067 117.629 73.9629 117.782C74.22 117.928 74.5043 118.002 74.8158 118.002C75.1272 118.002 75.4125 117.928 75.6687 117.782C75.9316 117.629 76.1393 117.411 76.2926 117.13C76.4459 116.843 76.5216 116.51 76.5216 116.13ZM79.7944 114.314V117.277C79.7944 117.522 79.8468 117.696 79.9507 117.8C80.0545 117.897 80.235 117.947 80.4921 117.947H81.1063V118.653H80.3543C79.8895 118.653 79.5412 118.546 79.3083 118.332C79.0754 118.119 78.96 117.766 78.96 117.277V114.314H78.3089V113.626H78.96V112.36H79.7944V113.626H81.1063V114.314H79.7944ZM85.5814 114.314V117.277C85.5814 117.522 85.6338 117.696 85.7376 117.8C85.8414 117.897 86.0219 117.947 86.2791 117.947H86.8933V118.653H86.1413C85.6765 118.653 85.3281 118.546 85.0953 118.332C84.8624 118.119 84.7469 117.766 84.7469 117.277V114.314H84.0959V113.626H84.7469V112.36H85.5814V113.626H86.8933V114.314H85.5785H85.5814ZM87.5929 116.121C87.5929 115.607 87.6967 115.158 87.9043 114.773C88.112 114.381 88.3963 114.078 88.7572 113.865C89.124 113.65 89.5316 113.544 89.9779 113.544C90.4184 113.544 90.7998 113.639 91.1248 113.828C91.4499 114.017 91.6905 114.256 91.8487 114.543V113.626H92.6928V118.653H91.8487V117.717C91.6837 118.011 91.4363 118.255 91.1064 118.451C90.7823 118.641 90.4029 118.736 89.9682 118.736C89.5219 118.736 89.1182 118.625 88.7572 118.405C88.3963 118.185 88.112 117.876 87.9043 117.479C87.6967 117.082 87.5929 116.629 87.5929 116.121ZM91.8487 116.13C91.8487 115.751 91.773 115.421 91.6197 115.14C91.4779 114.87 91.2613 114.647 90.9958 114.497C90.7386 114.345 90.4543 114.268 90.1428 114.268C89.8314 114.268 89.5461 114.341 89.2899 114.489C89.0338 114.636 88.8281 114.85 88.6757 115.13C88.5234 115.41 88.4467 115.742 88.4467 116.121C88.4467 116.507 88.5234 116.843 88.6757 117.13C88.829 117.411 89.0338 117.629 89.2899 117.782C89.5461 117.928 89.8314 118.002 90.1428 118.002C90.4543 118.002 90.7386 117.928 90.9958 117.782C91.2603 117.627 91.4764 117.401 91.6197 117.13C91.773 116.843 91.8487 116.51 91.8487 116.13ZM96.9108 118.653L94.9381 116.433V118.653H94.1037V111.865H94.9381V115.855L96.8739 113.626H98.0393L95.6727 116.13L98.048 118.653H96.9108ZM103.411 115.947C103.411 116.106 103.402 116.274 103.384 116.452H99.3657C99.3967 116.946 99.5646 117.336 99.8703 117.616C100.183 117.892 100.558 118.029 100.999 118.029C101.36 118.029 101.66 117.947 101.897 117.782C102.138 117.617 102.318 117.379 102.411 117.103H103.31C103.182 117.577 102.897 117.994 102.503 118.286C102.099 118.585 101.598 118.736 100.999 118.736C100.521 118.736 100.093 118.629 99.714 118.415C99.3414 118.2 99.0474 117.897 98.834 117.506C98.6195 117.108 98.5128 116.65 98.5128 116.13C98.5128 115.61 98.6166 115.155 98.8243 114.763C99.0319 114.371 99.323 114.072 99.6966 113.865C100.075 113.65 100.51 113.544 100.999 113.544C101.476 113.544 101.897 113.647 102.265 113.855C102.633 114.063 102.913 114.351 103.108 114.718C103.314 115.094 103.418 115.518 103.411 115.947ZM102.549 115.772C102.549 115.454 102.478 115.182 102.338 114.956C102.197 114.723 102.005 114.55 101.76 114.433C101.522 114.311 101.256 114.25 100.962 114.25C100.563 114.241 100.176 114.386 99.88 114.654C99.586 114.922 99.4181 115.296 99.3754 115.772H102.549ZM106.647 116.121C106.647 115.607 106.751 115.158 106.958 114.773C107.167 114.381 107.451 114.078 107.812 113.865C108.179 113.65 108.586 113.544 109.032 113.544C109.472 113.544 109.855 113.639 110.179 113.828C110.503 114.017 110.745 114.256 110.904 114.543V113.626H111.747V118.653H110.904V117.717C110.738 118.011 110.49 118.255 110.16 118.451C109.836 118.641 109.457 118.736 109.023 118.736C108.576 118.736 108.172 118.625 107.812 118.405C107.452 118.185 107.167 117.876 106.958 117.479C106.75 117.082 106.647 116.629 106.647 116.121ZM110.904 116.13C110.904 115.751 110.827 115.421 110.674 115.14C110.52 114.858 110.313 114.644 110.05 114.497C109.794 114.345 109.509 114.268 109.197 114.268C108.884 114.268 108.601 114.341 108.344 114.489C108.083 114.64 107.87 114.862 107.73 115.13C107.576 115.411 107.5 115.742 107.5 116.121C107.5 116.507 107.576 116.843 107.73 117.13C107.871 117.399 108.083 117.625 108.344 117.782C108.601 117.928 108.885 118.002 109.197 118.002C109.496 118.005 109.79 117.929 110.05 117.782C110.313 117.629 110.521 117.411 110.674 117.13C110.827 116.843 110.904 116.51 110.904 116.13ZM113.992 114.561C114.172 114.253 114.432 114 114.745 113.828C115.075 113.639 115.452 113.544 115.874 113.544C116.326 113.544 116.732 113.65 117.093 113.865C117.454 114.079 117.739 114.381 117.946 114.773C118.154 115.158 118.259 115.607 118.259 116.121C118.259 116.629 118.154 117.081 117.946 117.479C117.739 117.877 117.451 118.186 117.084 118.405C116.724 118.625 116.32 118.736 115.874 118.736C115.439 118.736 115.057 118.641 114.727 118.451C114.403 118.261 114.158 118.02 113.992 117.727V118.653H113.158V111.865H113.992V114.561ZM117.405 116.121C117.405 115.742 117.329 115.411 117.176 115.13C117.022 114.849 116.815 114.635 116.552 114.489C116.295 114.341 116.01 114.268 115.699 114.268C115.393 114.268 115.109 114.345 114.846 114.497C114.589 114.644 114.381 114.861 114.222 115.148C114.069 115.43 113.992 115.757 113.992 116.13C113.992 116.51 114.069 116.843 114.222 117.13C114.381 117.411 114.589 117.629 114.846 117.782C115.109 117.928 115.393 118.002 115.699 118.002C116.01 118.002 116.295 117.928 116.552 117.782C116.816 117.627 117.032 117.401 117.176 117.13C117.329 116.843 117.405 116.507 117.405 116.121ZM121.549 118.736C121.078 118.736 120.651 118.629 120.265 118.415C119.887 118.201 119.575 117.887 119.366 117.506C119.152 117.108 119.046 116.65 119.046 116.13C119.046 115.616 119.155 115.164 119.376 114.773C119.602 114.375 119.907 114.072 120.292 113.865C120.678 113.65 121.109 113.544 121.586 113.544C122.062 113.544 122.494 113.65 122.879 113.865C123.265 114.072 123.567 114.372 123.788 114.763C124.014 115.155 124.127 115.61 124.127 116.13C124.127 116.65 124.011 117.108 123.779 117.506C123.561 117.889 123.24 118.204 122.852 118.415C122.461 118.629 122.026 118.736 121.549 118.736ZM121.549 118.002C121.849 118.002 122.13 117.931 122.393 117.791C122.656 117.65 122.868 117.439 123.027 117.158C123.192 116.877 123.274 116.534 123.274 116.13C123.274 115.727 123.195 115.384 123.036 115.103C122.876 114.821 122.669 114.614 122.412 114.479C122.156 114.339 121.869 114.266 121.577 114.268C121.272 114.268 120.99 114.338 120.733 114.479C120.483 114.614 120.281 114.821 120.128 115.103C119.974 115.384 119.899 115.727 119.899 116.13C119.899 116.54 119.971 116.885 120.119 117.167C120.266 117.448 120.473 117.66 120.724 117.8C120.975 117.934 121.25 118.002 121.549 118.002ZM129.683 113.626V118.653H128.848V117.91C128.69 118.167 128.466 118.369 128.178 118.515C127.897 118.656 127.585 118.726 127.243 118.726C126.852 118.726 126.5 118.646 126.188 118.488C125.876 118.322 125.628 118.078 125.445 117.754C125.267 117.43 125.179 117.036 125.179 116.571V113.626H126.005V116.46C126.005 116.956 126.13 117.338 126.38 117.607C126.632 117.87 126.974 118.002 127.408 118.002C127.854 118.002 128.206 117.864 128.463 117.589C128.719 117.313 128.848 116.913 128.848 116.388V113.626H129.683ZM132.111 114.314V117.277C132.111 117.522 132.162 117.696 132.266 117.8C132.371 117.897 132.551 117.947 132.808 117.947H133.423V118.653H132.67C132.205 118.653 131.857 118.546 131.625 118.332C131.393 118.119 131.275 117.766 131.275 117.277V114.314H130.624V113.626H131.275V112.36H132.111V113.626H133.423V114.314H132.111ZM139.503 118.653L138.31 116.781L137.164 118.653H136.292L137.916 116.158L136.292 113.626H137.237L138.43 115.488L139.567 113.626H140.439L138.824 116.112L140.448 118.653H139.503ZM145.494 118.736C145.139 118.742 144.786 118.676 144.457 118.543C144.152 118.409 143.91 118.225 143.733 117.992C143.556 117.756 143.454 117.472 143.439 117.176H144.302C144.326 117.427 144.443 117.631 144.65 117.791C144.865 117.95 145.142 118.029 145.485 118.029C145.803 118.029 146.053 117.958 146.238 117.818C146.422 117.677 146.512 117.5 146.512 117.286C146.517 117.185 146.491 117.085 146.439 116.999C146.387 116.912 146.31 116.843 146.219 116.8C146.023 116.69 145.721 116.583 145.311 116.479C144.937 116.381 144.632 116.283 144.393 116.186C144.161 116.081 143.959 115.931 143.788 115.735C143.623 115.534 143.54 115.271 143.54 114.947C143.539 114.693 143.62 114.445 143.769 114.24C143.923 114.027 144.14 113.858 144.421 113.736C144.703 113.608 145.023 113.544 145.384 113.544C145.941 113.544 146.39 113.684 146.733 113.966C147.075 114.247 147.258 114.632 147.283 115.121H146.448C146.443 114.999 146.412 114.879 146.356 114.77C146.301 114.661 146.223 114.565 146.127 114.489C145.938 114.329 145.681 114.25 145.357 114.25C145.057 114.25 144.818 114.314 144.642 114.442C144.465 114.57 144.375 114.739 144.375 114.947C144.375 115.113 144.427 115.249 144.531 115.36C144.642 115.464 144.775 115.549 144.935 115.616C145.1 115.678 145.326 115.748 145.614 115.828C145.975 115.926 146.268 116.024 146.494 116.121C146.72 116.213 146.913 116.354 147.072 116.543C147.237 116.733 147.323 116.98 147.329 117.286C147.332 117.552 147.252 117.812 147.099 118.029C146.947 118.25 146.73 118.423 146.448 118.552C146.173 118.675 145.855 118.736 145.494 118.736ZM153.094 115.947C153.094 116.106 153.085 116.274 153.067 116.452H149.049C149.079 116.946 149.248 117.336 149.553 117.616C149.865 117.892 150.241 118.029 150.682 118.029C151.042 118.029 151.342 117.947 151.58 117.782C151.82 117.617 152 117.379 152.094 117.103H152.993C152.858 117.586 152.589 117.98 152.186 118.286C151.782 118.585 151.28 118.736 150.682 118.736C150.204 118.736 149.776 118.629 149.397 118.415C149.024 118.2 148.719 117.885 148.516 117.506C148.303 117.108 148.196 116.65 148.196 116.13C148.196 115.61 148.3 115.155 148.507 114.763C148.715 114.371 149.006 114.072 149.379 113.865C149.758 113.65 150.192 113.544 150.682 113.544C151.158 113.544 151.58 113.647 151.947 113.855C152.314 114.063 152.595 114.351 152.791 114.718C152.997 115.094 153.101 115.518 153.094 115.947ZM152.231 115.772C152.231 115.454 152.161 115.182 152.021 114.956C151.885 114.728 151.683 114.546 151.442 114.433C151.204 114.311 150.938 114.25 150.645 114.25C150.223 114.25 149.862 114.385 149.562 114.654C149.269 114.922 149.1 115.296 149.057 115.772H152.231ZM153.884 116.13C153.884 115.61 153.988 115.158 154.196 114.773C154.404 114.381 154.691 114.078 155.058 113.865C155.431 113.65 155.856 113.544 156.333 113.544C156.951 113.544 157.458 113.693 157.856 113.993C158.26 114.293 158.526 114.709 158.654 115.241H157.755C157.678 114.947 157.499 114.691 157.251 114.516C157.006 114.338 156.7 114.25 156.333 114.25C155.856 114.25 155.471 114.415 155.177 114.745C154.884 115.069 154.737 115.531 154.737 116.13C154.737 116.736 154.884 117.204 155.177 117.533C155.47 117.863 155.856 118.029 156.333 118.029C156.7 118.029 157.006 117.944 157.251 117.772C157.495 117.6 157.663 117.357 157.755 117.039H158.654C158.519 117.552 158.25 117.965 157.847 118.277C157.443 118.582 156.938 118.736 156.333 118.736C155.856 118.736 155.431 118.629 155.058 118.415C154.691 118.2 154.404 117.897 154.196 117.506C153.989 117.115 153.884 116.656 153.884 116.13ZM161.961 118.736C161.489 118.736 161.061 118.629 160.676 118.415C160.298 118.201 159.986 117.887 159.777 117.506C159.563 117.108 159.456 116.65 159.456 116.13C159.456 115.616 159.566 115.164 159.786 114.773C160.012 114.375 160.318 114.072 160.703 113.865C161.088 113.65 161.52 113.544 161.997 113.544C162.473 113.544 162.905 113.65 163.29 113.865C163.675 114.072 163.978 114.372 164.198 114.763C164.425 115.155 164.538 115.61 164.538 116.13C164.538 116.65 164.421 117.108 164.189 117.506C163.971 117.889 163.65 118.204 163.263 118.415C162.872 118.629 162.437 118.736 161.961 118.736ZM161.961 118.002C162.26 118.002 162.541 117.931 162.804 117.791C163.067 117.65 163.278 117.439 163.437 117.158C163.602 116.877 163.685 116.534 163.685 116.13C163.685 115.727 163.605 115.384 163.446 115.103C163.287 114.821 163.079 114.614 162.822 114.479C162.567 114.339 162.279 114.266 161.988 114.268C161.682 114.268 161.401 114.338 161.144 114.479C160.893 114.614 160.691 114.821 160.538 115.103C160.385 115.384 160.309 115.727 160.309 116.13C160.309 116.54 160.382 116.885 160.529 117.167C160.677 117.448 160.884 117.66 161.135 117.8C161.385 117.934 161.661 118.002 161.961 118.002ZM168.084 113.534C168.697 113.534 169.191 113.721 169.571 114.094C169.95 114.46 170.139 114.993 170.139 115.69V118.653H169.314V115.809C169.314 115.308 169.189 114.925 168.938 114.662C168.687 114.394 168.344 114.259 167.911 114.259C167.47 114.259 167.119 114.396 166.856 114.672C166.599 114.947 166.471 115.347 166.471 115.873V118.653H165.635V113.626H166.471V114.341C166.636 114.085 166.859 113.886 167.14 113.745C167.434 113.603 167.758 113.53 168.084 113.534ZM171.191 116.121C171.191 115.607 171.295 115.158 171.503 114.773C171.711 114.381 171.996 114.078 172.357 113.865C172.73 113.649 173.154 113.538 173.585 113.544C173.966 113.541 174.342 113.635 174.677 113.819C175.013 113.996 175.27 114.231 175.448 114.525V111.865H176.291V118.653H175.448V117.708C175.282 118.008 175.038 118.255 174.714 118.451C174.389 118.641 174.011 118.736 173.576 118.736C173.13 118.736 172.723 118.625 172.357 118.405C171.996 118.186 171.711 117.876 171.503 117.479C171.294 117.082 171.191 116.629 171.191 116.121ZM175.448 116.13C175.448 115.751 175.371 115.421 175.218 115.14C175.065 114.858 174.857 114.644 174.594 114.497C174.338 114.345 174.054 114.268 173.741 114.268C173.429 114.268 173.145 114.341 172.888 114.489C172.627 114.64 172.414 114.862 172.274 115.13C172.121 115.411 172.044 115.742 172.044 116.121C172.044 116.507 172.121 116.843 172.274 117.13C172.415 117.399 172.628 117.625 172.888 117.782C173.145 117.928 173.43 118.002 173.741 118.002C174.04 118.005 174.334 117.929 174.594 117.782C174.857 117.629 175.066 117.411 175.218 117.13C175.371 116.843 175.448 116.51 175.448 116.13ZM179.482 118.736C179.096 118.736 178.751 118.672 178.445 118.543C178.14 118.414 177.898 118.225 177.721 117.992C177.544 117.756 177.442 117.472 177.427 117.176H178.289C178.313 117.427 178.43 117.631 178.638 117.791C178.847 117.95 179.13 118.029 179.473 118.029C179.791 118.029 180.042 117.958 180.225 117.818C180.408 117.677 180.5 117.5 180.5 117.286C180.505 117.185 180.479 117.085 180.427 116.999C180.374 116.912 180.298 116.843 180.206 116.8C180.01 116.69 179.708 116.583 179.298 116.479C178.987 116.4 178.681 116.302 178.381 116.186C178.148 116.081 177.947 115.931 177.776 115.735C177.611 115.534 177.528 115.271 177.528 114.947C177.528 114.69 177.604 114.455 177.757 114.24C177.911 114.026 178.127 113.858 178.408 113.736C178.69 113.608 179.011 113.544 179.372 113.544C179.928 113.544 180.378 113.684 180.721 113.966C181.063 114.247 181.247 114.632 181.271 115.121H180.435C180.431 114.999 180.399 114.879 180.344 114.77C180.289 114.661 180.211 114.565 180.115 114.489C179.925 114.329 179.669 114.25 179.344 114.25C179.045 114.25 178.806 114.314 178.629 114.442C178.451 114.57 178.363 114.739 178.363 114.947C178.363 115.113 178.414 115.249 178.519 115.36C178.637 115.469 178.774 115.556 178.923 115.616C179.146 115.696 179.372 115.767 179.601 115.828C179.962 115.926 180.256 116.024 180.482 116.121C180.708 116.213 180.9 116.354 181.059 116.543C181.225 116.733 181.311 116.98 181.317 117.286C181.317 117.562 181.24 117.809 181.088 118.029C180.935 118.25 180.717 118.423 180.435 118.552C180.161 118.675 179.843 118.736 179.482 118.736Z" fill="#6A7381"/>
<path d="M53.1309 41.5969C53.1309 34.5403 47.4104 28.8198 40.3538 28.8198C33.2972 28.8198 27.5767 34.5403 27.5767 41.5969C27.5767 48.6535 33.2972 54.374 40.3538 54.374C47.4104 54.374 53.1309 48.6535 53.1309 41.5969Z" fill="white"/>
<path fill-rule="evenodd" clip-rule="evenodd" d="M39.4152 37.3488C39.5753 37.5089 39.5753 37.768 39.4152 37.9281L36.2917 41.0515H45.1313C45.3574 41.0515 45.5408 41.2349 45.5408 41.461C45.5408 41.6871 45.3574 41.8704 45.1313 41.8704H36.2917L39.4152 44.9939C39.5753 45.154 39.5753 45.4131 39.4152 45.5732C39.2551 45.7333 38.996 45.7333 38.8359 45.5732L35.0138 41.7511C34.8537 41.591 34.8537 41.3319 35.0138 41.1718L38.8359 37.3498C38.996 37.1896 39.2551 37.1887 39.4152 37.3488Z" fill="#6A7381"/>
<path d="M53.1309 41.5969C53.1309 34.5403 47.4104 28.8198 40.3538 28.8198C33.2972 28.8198 27.5767 34.5403 27.5767 41.5969C27.5767 48.6535 33.2972 54.374 40.3538 54.374C47.4104 54.374 53.1309 48.6535 53.1309 41.5969Z" stroke="#D7DBE0" stroke-width="0.654962"/>
<path d="M230.747 13.0949L43.2525 13.0949C27.357 13.0949 14.4711 25.9808 14.4711 41.8764L14.4711 507.845C14.4711 523.741 27.357 536.627 43.2525 536.627H230.747C246.643 536.627 259.529 523.741 259.529 507.845V41.8764C259.529 25.9808 246.643 13.0949 230.747 13.0949Z" stroke="#F1F2F4" stroke-width="0.654962"/>
</g>
<mask id="mask1_0_1982" style="mask-type:luminance" maskUnits="userSpaceOnUse" x="-1" y="0" width="276" height="558">
<path fill-rule="evenodd" clip-rule="evenodd" d="M274.494 0L-0.494263 0L-0.494263 557.46H274.494V0ZM18.1411 31.4801C14.4711 38.6829 14.4711 48.112 14.4711 66.9701L14.4711 490.49C14.4711 509.348 14.4711 518.777 18.1411 525.98C21.3694 532.316 26.5205 537.467 32.8563 540.695C40.0592 544.365 49.4883 544.365 68.3464 544.365H205.654C224.512 544.365 233.941 544.365 241.144 540.695C247.479 537.467 252.631 532.316 255.859 525.98C259.529 518.777 259.529 509.348 259.529 490.49V66.9701C259.529 48.112 259.529 38.6829 255.859 31.4801C252.631 25.1443 247.479 19.9931 241.144 16.7649C233.941 13.0948 224.512 13.0948 205.653 13.0948L68.3464 13.0948C49.4882 13.0948 40.0592 13.0948 32.8563 16.7649C26.5205 19.9931 21.3694 25.1443 18.1411 31.4801Z" fill="white"/>
</mask>
<g mask="url(#mask1_0_1982)">
<g filter="url(#filter0_i_0_1982)">
<rect x="1.06464" y="201.409" width="3.11778" height="42.0901" rx="0.935335" fill="url(#paint0_linear_0_1982)"/>
</g>
<rect x="1.22053" y="201.565" width="2.806" height="41.7783" rx="0.779446" stroke="url(#paint1_linear_0_1982)" stroke-width="0.311778"/>
<g filter="url(#filter1_i_0_1982)">
<rect x="1.06464" y="147.783" width="3.11778" height="42.0901" rx="0.935335" fill="url(#paint2_linear_0_1982)"/>
</g>
<rect x="1.22053" y="147.939" width="2.806" height="41.7783" rx="0.779446" stroke="url(#paint3_linear_0_1982)" stroke-width="0.311778"/>
<g filter="url(#filter2_i_0_1982)">
<rect x="0.752869" y="107.875" width="3.11778" height="21.2009" rx="0.935335" fill="url(#paint4_linear_0_1982)"/>
</g>
<rect x="0.908758" y="108.031" width="2.806" height="20.8891" rx="0.779446" stroke="url(#paint5_linear_0_1982)" stroke-width="0.311778"/>
<g filter="url(#filter3_i_0_1982)">
<rect x="270.441" y="177.09" width="3.11778" height="66.097" rx="0.685912" fill="url(#paint6_linear_0_1982)"/>
</g>
<rect x="270.597" y="177.246" width="2.806" height="65.7852" rx="0.530023" stroke="url(#paint7_linear_0_1982)" stroke-width="0.311778"/>
<path d="M3.24707 74.0786C3.24707 48.5852 3.24707 35.8385 8.20841 26.1014C12.5725 17.5363 19.5361 10.5727 28.1012 6.20855C37.8384 1.24721 50.5851 1.24721 76.0785 1.24721L198.545 1.24721C224.038 1.24721 236.785 1.24721 246.522 6.20855C255.087 10.5727 262.051 17.5363 266.415 26.1014C271.376 35.8385 271.376 48.5852 271.376 74.0786V483.381C271.376 508.874 271.376 521.621 266.415 531.358C262.051 539.923 255.087 546.887 246.522 551.251C236.785 556.212 224.038 556.212 198.545 556.212H76.0785C50.5851 556.212 37.8384 556.212 28.1012 551.251C19.5361 546.887 12.5725 539.923 8.20841 531.358C3.24707 521.621 3.24707 508.874 3.24707 483.381L3.24707 74.0786Z" fill="black"/>
<path d="M4.96186 73.7668C4.96186 60.9867 4.96344 51.5235 5.5753 44.0347C6.18523 36.5695 7.39148 31.245 9.70232 26.7097C13.8721 18.5259 20.5257 11.8723 28.7095 7.70251C33.2448 5.39166 38.5694 4.18541 46.0345 3.57548C53.5233 2.96362 62.9866 2.96204 75.7667 2.96204L198.857 2.96204C211.637 2.96204 221.1 2.96362 228.589 3.57548C236.054 4.18541 241.379 5.39166 245.914 7.70251C254.098 11.8723 260.751 18.5259 264.921 26.7097C267.232 31.245 268.438 36.5695 269.048 44.0347C269.66 51.5235 269.662 60.9868 269.662 73.7669V483.693C269.662 496.473 269.66 505.936 269.048 513.425C268.438 520.89 267.232 526.215 264.921 530.75C260.751 538.934 254.098 545.588 245.914 549.757C241.379 552.068 236.054 553.274 228.589 553.884C221.1 554.496 211.637 554.498 198.857 554.498H75.7667C62.9866 554.498 53.5234 554.496 46.0345 553.884C38.5694 553.274 33.2448 552.068 28.7095 549.757C20.5257 545.588 13.8721 538.934 9.70232 530.75C7.39148 526.215 6.18523 520.89 5.5753 513.425C4.96344 505.936 4.96186 496.473 4.96186 483.693L4.96186 73.7668Z" stroke="#121214" stroke-width="4.05312"/>
<path d="M4.96186 73.7668C4.96186 60.9867 4.96344 51.5235 5.5753 44.0347C6.18523 36.5695 7.39148 31.245 9.70232 26.7097C13.8721 18.5259 20.5257 11.8723 28.7095 7.70251C33.2448 5.39166 38.5694 4.18541 46.0345 3.57548C53.5233 2.96362 62.9866 2.96204 75.7667 2.96204L198.857 2.96204C211.637 2.96204 221.1 2.96362 228.589 3.57548C236.054 4.18541 241.379 5.39166 245.914 7.70251C254.098 11.8723 260.751 18.5259 264.921 26.7097C267.232 31.245 268.438 36.5695 269.048 44.0347C269.66 51.5235 269.662 60.9868 269.662 73.7669V483.693C269.662 496.473 269.66 505.936 269.048 513.425C268.438 520.89 267.232 526.215 264.921 530.75C260.751 538.934 254.098 545.588 245.914 549.757C241.379 552.068 236.054 553.274 228.589 553.884C221.1 554.496 211.637 554.498 198.857 554.498H75.7667C62.9866 554.498 53.5234 554.496 46.0345 553.884C38.5694 553.274 33.2448 552.068 28.7095 549.757C20.5257 545.588 13.8721 538.934 9.70232 530.75C7.39148 526.215 6.18523 520.89 5.5753 513.425C4.96344 505.936 4.96186 496.473 4.96186 483.693L4.96186 73.7668Z" stroke="url(#paint8_linear_0_1982)" stroke-width="4.05312"/>
<path d="M4.96186 73.7668C4.96186 60.9867 4.96344 51.5235 5.5753 44.0347C6.18523 36.5695 7.39148 31.245 9.70232 26.7097C13.8721 18.5259 20.5257 11.8723 28.7095 7.70251C33.2448 5.39166 38.5694 4.18541 46.0345 3.57548C53.5233 2.96362 62.9866 2.96204 75.7667 2.96204L198.857 2.96204C211.637 2.96204 221.1 2.96362 228.589 3.57548C236.054 4.18541 241.379 5.39166 245.914 7.70251C254.098 11.8723 260.751 18.5259 264.921 26.7097C267.232 31.245 268.438 36.5695 269.048 44.0347C269.66 51.5235 269.662 60.9868 269.662 73.7669V483.693C269.662 496.473 269.66 505.936 269.048 513.425C268.438 520.89 267.232 526.215 264.921 530.75C260.751 538.934 254.098 545.588 245.914 549.757C241.379 552.068 236.054 553.274 228.589 553.884C221.1 554.496 211.637 554.498 198.857 554.498H75.7667C62.9866 554.498 53.5234 554.496 46.0345 553.884C38.5694 553.274 33.2448 552.068 28.7095 549.757C20.5257 545.588 13.8721 538.934 9.70232 530.75C7.39148 526.215 6.18523 520.89 5.5753 513.425C4.96344 505.936 4.96186 496.473 4.96186 483.693L4.96186 73.7668Z" stroke="#F0EEEA" stroke-width="4.05312"/>
<path d="M4.96186 73.7668C4.96186 60.9867 4.96344 51.5235 5.5753 44.0347C6.18523 36.5695 7.39148 31.245 9.70232 26.7097C13.8721 18.5259 20.5257 11.8723 28.7095 7.70251C33.2448 5.39166 38.5694 4.18541 46.0345 3.57548C53.5233 2.96362 62.9866 2.96204 75.7667 2.96204L198.857 2.96204C211.637 2.96204 221.1 2.96362 228.589 3.57548C236.054 4.18541 241.379 5.39166 245.914 7.70251C254.098 11.8723 260.751 18.5259 264.921 26.7097C267.232 31.245 268.438 36.5695 269.048 44.0347C269.66 51.5235 269.662 60.9868 269.662 73.7669V483.693C269.662 496.473 269.66 505.936 269.048 513.425C268.438 520.89 267.232 526.215 264.921 530.75C260.751 538.934 254.098 545.588 245.914 549.757C241.379 552.068 236.054 553.274 228.589 553.884C221.1 554.496 211.637 554.498 198.857 554.498H75.7667C62.9866 554.498 53.5234 554.496 46.0345 553.884C38.5694 553.274 33.2448 552.068 28.7095 549.757C20.5257 545.588 13.8721 538.934 9.70232 530.75C7.39148 526.215 6.18523 520.89 5.5753 513.425C4.96344 505.936 4.96186 496.473 4.96186 483.693L4.96186 73.7668Z" stroke="#E1E0E1" stroke-width="4.05312"/>
<path d="M2.93531 74.4528C2.93531 61.5263 2.93556 51.8503 3.56294 44.1714C4.19003 36.4963 5.44211 30.8439 7.93064 25.9599C12.3246 17.3361 19.336 10.3248 27.9597 5.93082C32.8437 3.44229 38.4961 2.19021 46.1713 1.56312C53.8501 0.935739 63.5262 0.935497 76.4526 0.935497L198.171 0.935497C211.097 0.935497 220.773 0.935739 228.452 1.56312C236.127 2.19021 241.78 3.44229 246.664 5.93082C255.288 10.3248 262.299 17.3361 266.693 25.9599C269.181 30.8439 270.433 36.4963 271.061 44.1714C271.688 51.8503 271.688 61.5264 271.688 74.4528V483.007C271.688 495.934 271.688 505.61 271.061 513.288C270.433 520.964 269.181 526.616 266.693 531.5C262.299 540.124 255.288 547.135 246.664 551.529C241.78 554.018 236.127 555.27 228.452 555.897C220.773 556.524 211.097 556.524 198.171 556.524H76.4527C63.5262 556.524 53.8501 556.524 46.1713 555.897C38.4961 555.27 32.8437 554.018 27.9597 551.529C19.336 547.135 12.3246 540.124 7.93064 531.5C5.44211 526.616 4.19003 520.964 3.56294 513.288C2.93556 505.61 2.93531 495.934 2.93531 483.007L2.93531 74.4528Z" stroke="#717170" stroke-width="0.623556"/>
<g filter="url(#filter4_i_0_1982)">
<path d="M3.87061 73.7044C3.87061 48.5603 3.87061 35.9882 8.76398 26.3844C13.0683 17.9367 19.9365 11.0684 28.3843 6.76411C37.9881 1.87073 50.5602 1.87073 75.7043 1.87073L198.919 1.87073C224.063 1.87073 236.635 1.87073 246.239 6.76411C254.687 11.0684 261.555 17.9367 265.859 26.3844C270.753 35.9882 270.753 48.5603 270.753 73.7044V483.755C270.753 508.899 270.753 521.471 265.859 531.075C261.555 539.523 254.687 546.391 246.239 550.696C236.635 555.589 224.063 555.589 198.919 555.589H75.7043C50.5602 555.589 37.9881 555.589 28.3843 550.696C19.9365 546.391 13.0683 539.523 8.76398 531.075C3.87061 521.471 3.87061 508.899 3.87061 483.755L3.87061 73.7044Z" fill="black" fill-opacity="0.01"/>
</g>
<g filter="url(#filter5_b_0_1982)">
<rect x="2.6236" y="59.5496" width="3.74134" height="3.74134" fill="#6B6B6A" fill-opacity="0.6"/>
</g>
<g filter="url(#filter6_b_0_1982)">
<rect x="268.259" y="59.5496" width="3.74134" height="3.74134" fill="#6B6B6A" fill-opacity="0.6"/>
</g>
<g filter="url(#filter7_b_0_1982)">
<rect x="211.515" y="0.623749" width="3.74134" height="3.74134" fill="#6B6B6A" fill-opacity="0.6"/>
</g>
<g filter="url(#filter8_i_0_1982)">
<path fill-rule="evenodd" clip-rule="evenodd" d="M164.118 4.98843C164.039 5.86265 163.305 6.5478 162.41 6.5478L112.214 6.5478C111.319 6.5478 110.584 5.86265 110.506 4.98843L164.118 4.98843Z" fill="#121214"/>
</g>
</g>
<defs>
<filter id="filter0_i_0_1982" x="1.06464" y="201.409" width="3.1178" height="42.0901" filterUnits="userSpaceOnUse" color-interpolation-filters="sRGB">
<feFlood flood-opacity="0" result="BackgroundImageFix"/>
<feBlend mode="normal" in="SourceGraphic" in2="BackgroundImageFix" result="shape"/>
<feColorMatrix in="SourceAlpha" type="matrix" values="0 0 0 0 0 0 0 0 0 0 0 0 0 0 0 0 0 0 127 0" result="hardAlpha"/>
<feOffset dx="0.623556"/>
<feComposite in2="hardAlpha" operator="arithmetic" k2="-1" k3="1"/>
<feColorMatrix type="matrix" values="0 0 0 0 0.858824 0 0 0 0 0.858824 0 0 0 0 0.858824 0 0 0 1 0"/>
<feBlend mode="normal" in2="shape" result="effect1_innerShadow_0_1982"/>
</filter>
<filter id="filter1_i_0_1982" x="1.06464" y="147.783" width="3.1178" height="42.0901" filterUnits="userSpaceOnUse" color-interpolation-filters="sRGB">
<feFlood flood-opacity="0" result="BackgroundImageFix"/>
<feBlend mode="normal" in="SourceGraphic" in2="BackgroundImageFix" result="shape"/>
<feColorMatrix in="SourceAlpha" type="matrix" values="0 0 0 0 0 0 0 0 0 0 0 0 0 0 0 0 0 0 127 0" result="hardAlpha"/>
<feOffset dx="0.623556"/>
<feComposite in2="hardAlpha" operator="arithmetic" k2="-1" k3="1"/>
<feColorMatrix type="matrix" values="0 0 0 0 0.858824 0 0 0 0 0.858824 0 0 0 0 0.858824 0 0 0 1 0"/>
<feBlend mode="normal" in2="shape" result="effect1_innerShadow_0_1982"/>
</filter>
<filter id="filter2_i_0_1982" x="0.752869" y="107.875" width="3.1178" height="21.2009" filterUnits="userSpaceOnUse" color-interpolation-filters="sRGB">
<feFlood flood-opacity="0" result="BackgroundImageFix"/>
<feBlend mode="normal" in="SourceGraphic" in2="BackgroundImageFix" result="shape"/>
<feColorMatrix in="SourceAlpha" type="matrix" values="0 0 0 0 0 0 0 0 0 0 0 0 0 0 0 0 0 0 127 0" result="hardAlpha"/>
<feOffset dx="0.623556"/>
<feComposite in2="hardAlpha" operator="arithmetic" k2="-1" k3="1"/>
<feColorMatrix type="matrix" values="0 0 0 0 0.858824 0 0 0 0 0.858824 0 0 0 0 0.858824 0 0 0 1 0"/>
<feBlend mode="normal" in2="shape" result="effect1_innerShadow_0_1982"/>
</filter>
<filter id="filter3_i_0_1982" x="270.441" y="177.09" width="3.1178" height="66.097" filterUnits="userSpaceOnUse" color-interpolation-filters="sRGB">
<feFlood flood-opacity="0" result="BackgroundImageFix"/>
<feBlend mode="normal" in="SourceGraphic" in2="BackgroundImageFix" result="shape"/>
<feColorMatrix in="SourceAlpha" type="matrix" values="0 0 0 0 0 0 0 0 0 0 0 0 0 0 0 0 0 0 127 0" result="hardAlpha"/>
<feOffset dx="-0.623556"/>
<feComposite in2="hardAlpha" operator="arithmetic" k2="-1" k3="1"/>
<feColorMatrix type="matrix" values="0 0 0 0 0.858824 0 0 0 0 0.858824 0 0 0 0 0.858824 0 0 0 1 0"/>
<feBlend mode="normal" in2="shape" result="effect1_innerShadow_0_1982"/>
</filter>
<filter id="filter4_i_0_1982" x="3.87061" y="1.87073" width="266.882" height="553.718" filterUnits="userSpaceOnUse" color-interpolation-filters="sRGB">
<feFlood flood-opacity="0" result="BackgroundImageFix"/>
<feBlend mode="normal" in="SourceGraphic" in2="BackgroundImageFix" result="shape"/>
<feColorMatrix in="SourceAlpha" type="matrix" values="0 0 0 0 0 0 0 0 0 0 0 0 0 0 0 0 0 0 127 0" result="hardAlpha"/>
<feOffset/>
<feGaussianBlur stdDeviation="0.935335"/>
<feComposite in2="hardAlpha" operator="arithmetic" k2="-1" k3="1"/>
<feColorMatrix type="matrix" values="0 0 0 0 1 0 0 0 0 1 0 0 0 0 1 0 0 0 0.25 0"/>
<feBlend mode="normal" in2="shape" result="effect1_innerShadow_0_1982"/>
</filter>
<filter id="filter5_b_0_1982" x="1.7761" y="58.7021" width="5.43634" height="5.43634" filterUnits="userSpaceOnUse" color-interpolation-filters="sRGB">
<feFlood flood-opacity="0" result="BackgroundImageFix"/>
<feGaussianBlur in="BackgroundImageFix" stdDeviation="0.423751"/>
<feComposite in2="SourceAlpha" operator="in" result="effect1_backgroundBlur_0_1982"/>
<feBlend mode="normal" in="SourceGraphic" in2="effect1_backgroundBlur_0_1982" result="shape"/>
</filter>
<filter id="filter6_b_0_1982" x="267.411" y="58.7021" width="5.43634" height="5.43634" filterUnits="userSpaceOnUse" color-interpolation-filters="sRGB">
<feFlood flood-opacity="0" result="BackgroundImageFix"/>
<feGaussianBlur in="BackgroundImageFix" stdDeviation="0.423751"/>
<feComposite in2="SourceAlpha" operator="in" result="effect1_backgroundBlur_0_1982"/>
<feBlend mode="normal" in="SourceGraphic" in2="effect1_backgroundBlur_0_1982" result="shape"/>
</filter>
<filter id="filter7_b_0_1982" x="210.667" y="-0.223752" width="5.43634" height="5.43634" filterUnits="userSpaceOnUse" color-interpolation-filters="sRGB">
<feFlood flood-opacity="0" result="BackgroundImageFix"/>
<feGaussianBlur in="BackgroundImageFix" stdDeviation="0.423751"/>
<feComposite in2="SourceAlpha" operator="in" result="effect1_backgroundBlur_0_1982"/>
<feBlend mode="normal" in="SourceGraphic" in2="effect1_backgroundBlur_0_1982" result="shape"/>
</filter>
<filter id="filter8_i_0_1982" x="110.506" y="4.98843" width="53.612" height="1.55936" filterUnits="userSpaceOnUse" color-interpolation-filters="sRGB">
<feFlood flood-opacity="0" result="BackgroundImageFix"/>
<feBlend mode="normal" in="SourceGraphic" in2="BackgroundImageFix" result="shape"/>
<feColorMatrix in="SourceAlpha" type="matrix" values="0 0 0 0 0 0 0 0 0 0 0 0 0 0 0 0 0 0 127 0" result="hardAlpha"/>
<feOffset dy="-0.155889"/>
<feComposite in2="hardAlpha" operator="arithmetic" k2="-1" k3="1"/>
<feColorMatrix type="matrix" values="0 0 0 0 1 0 0 0 0 1 0 0 0 0 1 0 0 0 0.2 0"/>
<feBlend mode="normal" in2="shape" result="effect1_innerShadow_0_1982"/>
</filter>
<linearGradient id="paint0_linear_0_1982" x1="1.09045" y1="201.767" x2="1.09045" y2="243.161" gradientUnits="userSpaceOnUse">
<stop stop-color="#1F1B27"/>
<stop stop-color="#272727"/>
<stop offset="0.0128274" stop-color="#919191"/>
<stop offset="0.0265834" stop-color="#E0E0E0"/>
<stop offset="0.0494867" stop-color="#E0E0E0"/>
<stop offset="0.0629992" stop-color="#8F8F8F"/>
<stop offset="0.0781288" stop-color="#313131"/>
<stop offset="0.0889895" stop-color="#2F2F2F"/>
<stop offset="0.121558" stop-color="#C9CBCA"/>
<stop offset="0.482664" stop-color="#D6D8D6"/>
<stop offset="0.890578" stop-color="#C9CBCA"/>
<stop offset="0.924415" stop-color="#2E2E2E"/>
<stop offset="0.933175" stop-color="#2E2E2E"/>
<stop offset="0.947745" stop-color="#8E8E8E"/>
<stop offset="0.959336" stop-color="#E0E0E0"/>
<stop offset="0.980295" stop-color="#E0E0E0"/>
<stop offset="0.989929" stop-color="#7B7B7B"/>
<stop offset="1" stop-color="#343434"/>
</linearGradient>
<linearGradient id="paint1_linear_0_1982" x1="1.0699" y1="201.409" x2="1.0699" y2="243.357" gradientUnits="userSpaceOnUse">
<stop stop-color="#0D0D0D"/>
<stop offset="0.203726" stop-color="#454545"/>
<stop offset="0.778081" stop-color="#454545"/>
<stop offset="1" stop-color="#0D0D0D"/>
</linearGradient>
<linearGradient id="paint2_linear_0_1982" x1="1.09045" y1="148.142" x2="1.09045" y2="189.535" gradientUnits="userSpaceOnUse">
<stop stop-color="#1F1B27"/>
<stop stop-color="#272727"/>
<stop offset="0.0128274" stop-color="#919191"/>
<stop offset="0.0265834" stop-color="#E0E0E0"/>
<stop offset="0.0494867" stop-color="#E0E0E0"/>
<stop offset="0.0629992" stop-color="#8F8F8F"/>
<stop offset="0.0781288" stop-color="#313131"/>
<stop offset="0.0889895" stop-color="#2F2F2F"/>
<stop offset="0.121558" stop-color="#C9CBCA"/>
<stop offset="0.482664" stop-color="#D6D8D6"/>
<stop offset="0.890578" stop-color="#C9CBCA"/>
<stop offset="0.924415" stop-color="#2E2E2E"/>
<stop offset="0.933175" stop-color="#2E2E2E"/>
<stop offset="0.947745" stop-color="#8E8E8E"/>
<stop offset="0.959336" stop-color="#E0E0E0"/>
<stop offset="0.980295" stop-color="#E0E0E0"/>
<stop offset="0.989929" stop-color="#7B7B7B"/>
<stop offset="1" stop-color="#343434"/>
</linearGradient>
<linearGradient id="paint3_linear_0_1982" x1="1.0699" y1="147.783" x2="1.0699" y2="189.731" gradientUnits="userSpaceOnUse">
<stop stop-color="#0D0D0D"/>
<stop offset="0.203726" stop-color="#454545"/>
<stop offset="0.778081" stop-color="#454545"/>
<stop offset="1" stop-color="#0D0D0D"/>
</linearGradient>
<linearGradient id="paint4_linear_0_1982" x1="0.794626" y1="108.177" x2="0.794626" y2="128.81" gradientUnits="userSpaceOnUse">
<stop stop-color="#272727"/>
<stop offset="0.0128274" stop-color="#919191"/>
<stop offset="0.0222069" stop-color="#E0E0E0"/>
<stop offset="0.0582652" stop-color="#E0E0E0"/>
<stop offset="0.0716356" stop-color="#8F8F8F"/>
<stop offset="0.0873934" stop-color="#313131"/>
<stop offset="0.099098" stop-color="#2F2F2F"/>
<stop offset="0.133506" stop-color="#D1D2CF"/>
<stop offset="0.479704" stop-color="#E1E3E2"/>
<stop offset="0.842712" stop-color="#CFD1D0"/>
<stop offset="0.897125" stop-color="#2E2E2E"/>
<stop offset="0.91095" stop-color="#2E2E2E"/>
<stop offset="0.928399" stop-color="#8E8E8E"/>
<stop offset="0.94133" stop-color="#E0E0E0"/>
<stop offset="0.971681" stop-color="#E0E0E0"/>
<stop offset="0.989929" stop-color="#7B7B7B"/>
<stop offset="1" stop-color="#343434"/>
</linearGradient>
<linearGradient id="paint5_linear_0_1982" x1="0.758132" y1="107.875" x2="0.758132" y2="129.005" gradientUnits="userSpaceOnUse">
<stop offset="0.0139314" stop-color="#0D0D0D"/>
<stop offset="0.203726" stop-color="#454545"/>
<stop offset="0.79051" stop-color="#454545"/>
<stop offset="0.991068" stop-color="#0D0D0D"/>
</linearGradient>
<linearGradient id="paint6_linear_0_1982" x1="270.46" y1="177.466" x2="270.46" y2="242.756" gradientUnits="userSpaceOnUse">
<stop stop-color="#262626"/>
<stop offset="0.00895078" stop-color="#858585"/>
<stop offset="0.0148141" stop-color="#E0E0E0"/>
<stop offset="0.0257073" stop-color="#E0E0E0"/>
<stop offset="0.0344213" stop-color="#868686"/>
<stop offset="0.0449677" stop-color="#313131"/>
<stop offset="0.0503533" stop-color="#2F2F2F"/>
<stop offset="0.0722192" stop-color="#CCCCCC"/>
<stop offset="0.49044" stop-color="#D3D5D3"/>
<stop offset="0.915803" stop-color="#D1D3D2"/>
<stop offset="0.947894" stop-color="#2E2E2E"/>
<stop offset="0.954408" stop-color="#2E2E2E"/>
<stop offset="0.961734" stop-color="#8E8E8E"/>
<stop offset="0.970575" stop-color="#E0E0E0"/>
<stop offset="0.986829" stop-color="#E0E0E0"/>
<stop offset="0.993206" stop-color="#7B7B7B"/>
<stop offset="1" stop-color="#343434"/>
</linearGradient>
<linearGradient id="paint7_linear_0_1982" x1="270.446" y1="177.09" x2="270.446" y2="242.964" gradientUnits="userSpaceOnUse">
<stop stop-color="#0D0D0D"/>
<stop offset="0.227764" stop-color="#454545"/>
<stop offset="0.76232" stop-color="#454545"/>
<stop offset="1" stop-color="#0D0D0D"/>
</linearGradient>
<linearGradient id="paint8_linear_0_1982" x1="2.9353" y1="0.935486" x2="2.9353" y2="556.524" gradientUnits="userSpaceOnUse">
<stop stop-color="#7C7F80"/>
<stop offset="1" stop-color="#797A7D"/>
</linearGradient>
</defs>
</svg>
